<?xml version="1.0" encoding="utf-8"?>
<!DOCTYPE svg PUBLIC "-//W3C//DTD SVG 1.1//EN" "http://www.w3.org/Graphics/SVG/1.1/DTD/svg11.dtd">
<svg height="40" version="1.1" width="40" xmlns="http://www.w3.org/2000/svg" style="overflow: hidden; position: absolute; left: 36px; top: 554px;"><desc style="-webkit-tap-highlight-color: rgba(0, 0, 0, 0);">Created with Raphaël 2.1.2</desc><defs style="-webkit-tap-highlight-color: rgba(0, 0, 0, 0);"><linearGradient id="58990-_0050af-_002c62" x1="0" y1="1" x2="6.123233995736766e-17" y2="0" gradientTransform="matrix(1,0,0,1,-4,-4)" style="-webkit-tap-highlight-color: rgba(0, 0, 0, 0);"><stop offset="0%" stop-color="#0050af" style="-webkit-tap-highlight-color: rgba(0, 0, 0, 0);"></stop><stop offset="100%" stop-color="#002c62" style="-webkit-tap-highlight-color: rgba(0, 0, 0, 0);"></stop></linearGradient></defs><path fill="none" stroke="#ffffff" d="M15.499,23.438C11.653,23.438,7.791,22.451,5.965,20.320999999999998C5.911,20.557,5.875,20.801,5.875,21.057999999999996V24.934999999999995C5.875,28.369999999999994,10.863,29.932999999999996,15.5,29.932999999999996S25.125,28.369999999999997,25.125,24.934999999999995V21.057999999999996C25.125,20.799999999999997,25.089,20.556999999999995,25.035,20.320999999999998C23.209,22.451,19.347,23.438,15.499,23.438ZM15.499,15.943C11.653,15.943,7.791,14.956,5.966000000000001,12.826C5.912000000000001,13.062000000000001,5.875000000000001,13.305,5.875000000000001,13.562000000000001V17.439C5.875000000000001,20.874,10.863000000000001,22.437,15.5,22.437S25.125,20.874000000000002,25.125,17.439V13.562000000000001C25.125,13.305000000000001,25.089,13.061000000000002,25.035,12.825000000000001C23.209,14.956,19.347,15.943,15.499,15.943ZM15.5,1.066C10.863,1.066,5.875,2.6310000000000002,5.875,6.067V9.943C5.875,13.378,10.863,14.940999999999999,15.5,14.940999999999999S25.125,13.377999999999998,25.125,9.942999999999998V6.067C25.125,2.632,20.137,1.066,15.5,1.066ZM15.5,9.066C11.289,9.066,7.875,7.723000000000001,7.875,6.066000000000001C7.875,4.410000000000001,11.289,3.0660000000000007,15.5,3.0660000000000007S23.125,4.410000000000001,23.125,6.066000000000001C23.125,7.724,19.711,9.066,15.5,9.066Z" stroke-width="3" stroke-linejoin="round" opacity="0" transform="matrix(1,0,0,1,4,4)" style="-webkit-tap-highlight-color: rgba(0, 0, 0, 0); stroke-linejoin: round; opacity: 0;"></path><path fill="#333333" stroke="none" d="M15.499,23.438C11.653,23.438,7.791,22.451,5.965,20.320999999999998C5.911,20.557,5.875,20.801,5.875,21.057999999999996V24.934999999999995C5.875,28.369999999999994,10.863,29.932999999999996,15.5,29.932999999999996S25.125,28.369999999999997,25.125,24.934999999999995V21.057999999999996C25.125,20.799999999999997,25.089,20.556999999999995,25.035,20.320999999999998C23.209,22.451,19.347,23.438,15.499,23.438ZM15.499,15.943C11.653,15.943,7.791,14.956,5.966000000000001,12.826C5.912000000000001,13.062000000000001,5.875000000000001,13.305,5.875000000000001,13.562000000000001V17.439C5.875000000000001,20.874,10.863000000000001,22.437,15.5,22.437S25.125,20.874000000000002,25.125,17.439V13.562000000000001C25.125,13.305000000000001,25.089,13.061000000000002,25.035,12.825000000000001C23.209,14.956,19.347,15.943,15.499,15.943ZM15.5,1.066C10.863,1.066,5.875,2.6310000000000002,5.875,6.067V9.943C5.875,13.378,10.863,14.940999999999999,15.5,14.940999999999999S25.125,13.377999999999998,25.125,9.942999999999998V6.067C25.125,2.632,20.137,1.066,15.5,1.066ZM15.5,9.066C11.289,9.066,7.875,7.723000000000001,7.875,6.066000000000001C7.875,4.410000000000001,11.289,3.0660000000000007,15.5,3.0660000000000007S23.125,4.410000000000001,23.125,6.066000000000001C23.125,7.724,19.711,9.066,15.5,9.066Z" transform="matrix(1,0,0,1,4,4)" style="-webkit-tap-highlight-color: rgba(0, 0, 0, 0); opacity: 1; fill-opacity: 1;" opacity="1" fill-opacity="1"></path><rect x="0" y="0" width="32" height="32" r="0" rx="0" ry="0" fill="#000000" stroke="#000" opacity="0" style="-webkit-tap-highlight-color: rgba(0, 0, 0, 0); opacity: 0;"></rect></svg>
