<?xml version="1.0" encoding="UTF-8" standalone="no"?>
<!DOCTYPE svg PUBLIC "-//W3C//DTD SVG 1.1//EN"
 "http://www.w3.org/Graphics/SVG/1.1/DTD/svg11.dtd">
<!-- Generated by graphviz version 2.43.0 (0)
 -->
<!-- Title: MOSA Runtime Tables Pages: 1 -->
<svg width="4728pt" height="1133pt"
 viewBox="0.00 0.00 4728.00 1133.26" xmlns="http://www.w3.org/2000/svg" xmlns:xlink="http://www.w3.org/1999/xlink">
<g id="graph0" class="graph" transform="scale(1 1) rotate(0) translate(4 1129.26)">
<title>MOSA Runtime Tables</title>
<polygon fill="white" stroke="transparent" points="-4,4 -4,-1129.26 4724,-1129.26 4724,4 -4,4"/>
<!-- Key -->
<g id="node1" class="node">
<title>Key</title>
<polygon fill="none" stroke="black" points="0,-630.26 0,-700.26 296,-700.26 296,-630.26 0,-630.26"/>
<text text-anchor="middle" x="148" y="-683.46" font-family="Times,serif" font-size="16.00">Key</text>
<polyline fill="none" stroke="black" points="0,-674.26 296,-674.26 "/>
<text text-anchor="middle" x="148" y="-657.46" font-family="Times,serif" font-size="16.00">~ Denotes field may be zero filled</text>
<text text-anchor="middle" x="148" y="-639.46" font-family="Times,serif" font-size="16.00">due to no value being available.</text>
</g>
<!-- NameString -->
<g id="node2" class="node">
<title>NameString</title>
<polygon fill="none" stroke="red" points="4488.5,-746.26 4488.5,-876.26 4705.5,-876.26 4705.5,-746.26 4488.5,-746.26"/>
<text text-anchor="middle" x="4597" y="-859.46" font-family="Times,serif" font-size="16.00">String Object</text>
<polyline fill="none" stroke="red" points="4488.5,-850.26 4705.5,-850.26 "/>
<text text-anchor="middle" x="4597" y="-833.46" font-family="Times,serif" font-size="16.00">Object Header</text>
<polyline fill="none" stroke="red" points="4488.5,-824.26 4705.5,-824.26 "/>
<text text-anchor="middle" x="4597" y="-807.46" font-family="Times,serif" font-size="16.00">Pointer to Method Table</text>
<polyline fill="none" stroke="red" points="4488.5,-798.26 4705.5,-798.26 "/>
<text text-anchor="middle" x="4597" y="-781.46" font-family="Times,serif" font-size="16.00">String Length</text>
<polyline fill="none" stroke="red" points="4488.5,-772.26 4705.5,-772.26 "/>
<text text-anchor="middle" x="4597" y="-755.46" font-family="Times,serif" font-size="16.00">Unicode String</text>
</g>
<!-- AssemblyListTable -->
<g id="node3" class="node">
<title>AssemblyListTable</title>
<polygon fill="none" stroke="black" points="47,-719.26 47,-849.26 249,-849.26 249,-719.26 47,-719.26"/>
<text text-anchor="middle" x="148" y="-832.46" font-family="Times,serif" font-size="16.00">Assembly Table</text>
<polyline fill="none" stroke="black" points="47,-823.26 249,-823.26 "/>
<text text-anchor="middle" x="148" y="-806.46" font-family="Times,serif" font-size="16.00">Number of Assemblies</text>
<polyline fill="none" stroke="black" points="47,-797.26 249,-797.26 "/>
<text text-anchor="middle" x="148" y="-780.46" font-family="Times,serif" font-size="16.00">Pointer to Assembly 1</text>
<polyline fill="none" stroke="black" points="47,-771.26 249,-771.26 "/>
<text text-anchor="middle" x="148" y="-754.46" font-family="Times,serif" font-size="16.00">..</text>
<polyline fill="none" stroke="black" points="47,-745.26 249,-745.26 "/>
<text text-anchor="middle" x="148" y="-728.46" font-family="Times,serif" font-size="16.00">Pointer to Assembly N</text>
</g>
<!-- AssemblyDefinition -->
<g id="node4" class="node">
<title>AssemblyDefinition</title>
<polygon fill="none" stroke="black" points="443,-589.26 443,-797.26 710,-797.26 710,-589.26 443,-589.26"/>
<text text-anchor="middle" x="576.5" y="-780.46" font-family="Times,serif" font-size="16.00">Assembly</text>
<polyline fill="none" stroke="black" points="443,-771.26 710,-771.26 "/>
<text text-anchor="middle" x="576.5" y="-754.46" font-family="Times,serif" font-size="16.00">Pointer to Assembly Name</text>
<polyline fill="none" stroke="black" points="443,-745.26 710,-745.26 "/>
<text text-anchor="middle" x="576.5" y="-728.46" font-family="Times,serif" font-size="16.00">~Pointer to Custom Attributes</text>
<polyline fill="none" stroke="black" points="443,-719.26 710,-719.26 "/>
<text text-anchor="middle" x="576.5" y="-702.46" font-family="Times,serif" font-size="16.00">Flags: IsReflectionOnly</text>
<polyline fill="none" stroke="black" points="443,-693.26 710,-693.26 "/>
<text text-anchor="middle" x="576.5" y="-676.46" font-family="Times,serif" font-size="16.00">Number of Types</text>
<polyline fill="none" stroke="black" points="443,-667.26 710,-667.26 "/>
<text text-anchor="middle" x="576.5" y="-650.46" font-family="Times,serif" font-size="16.00">Pointer to Type Definition 1</text>
<polyline fill="none" stroke="black" points="443,-641.26 710,-641.26 "/>
<text text-anchor="middle" x="576.5" y="-624.46" font-family="Times,serif" font-size="16.00">...</text>
<polyline fill="none" stroke="black" points="443,-615.26 710,-615.26 "/>
<text text-anchor="middle" x="576.5" y="-598.46" font-family="Times,serif" font-size="16.00">Pointer to Type Definition N</text>
</g>
<!-- AssemblyListTable&#45;&gt;AssemblyDefinition -->
<g id="0" class="edge">
<title>AssemblyListTable:f2&#45;&gt;AssemblyDefinition:f0</title>
<path fill="none" stroke="black" d="M250,-784.26C332.26,-784.26 355.35,-784.26 432.76,-784.26"/>
<polygon fill="black" stroke="black" points="433,-787.76 443,-784.26 433,-780.76 433,-787.76"/>
</g>
<!-- AssemblyDefinition&#45;&gt;NameString -->
<g id="0" class="edge">
<title>AssemblyDefinition:f1&#45;&gt;NameString:f0</title>
<path fill="none" stroke="red" d="M710,-758.26C876.31,-758.26 616.69,-1125.26 783,-1125.26 783,-1125.26 783,-1125.26 4401,-1125.26 4458.69,-1125.26 4429.67,-893.06 4477.2,-865.85"/>
<polygon fill="red" stroke="red" points="4478.23,-869.2 4487,-863.26 4476.44,-862.43 4478.23,-869.2"/>
</g>
<!-- CustomAttributesTable -->
<g id="node5" class="node">
<title>CustomAttributesTable</title>
<polygon fill="none" stroke="black" points="857,-780.26 857,-910.26 1122,-910.26 1122,-780.26 857,-780.26"/>
<text text-anchor="middle" x="989.5" y="-893.46" font-family="Times,serif" font-size="16.00">Custom Attributes Table</text>
<polyline fill="none" stroke="black" points="857,-884.26 1122,-884.26 "/>
<text text-anchor="middle" x="989.5" y="-867.46" font-family="Times,serif" font-size="16.00">Number of Attributes</text>
<polyline fill="none" stroke="black" points="857,-858.26 1122,-858.26 "/>
<text text-anchor="middle" x="989.5" y="-841.46" font-family="Times,serif" font-size="16.00">Pointer to Custom Attribute 1</text>
<polyline fill="none" stroke="black" points="857,-832.26 1122,-832.26 "/>
<text text-anchor="middle" x="989.5" y="-815.46" font-family="Times,serif" font-size="16.00">...</text>
<polyline fill="none" stroke="black" points="857,-806.26 1122,-806.26 "/>
<text text-anchor="middle" x="989.5" y="-789.46" font-family="Times,serif" font-size="16.00">Pointer to Custom Attribute N</text>
</g>
<!-- AssemblyDefinition&#45;&gt;CustomAttributesTable -->
<g id="0" class="edge">
<title>AssemblyDefinition:f2&#45;&gt;CustomAttributesTable:f0</title>
<path fill="none" stroke="black" d="M710,-732.26C804.67,-732.26 762.16,-885.55 846.92,-896.63"/>
<polygon fill="black" stroke="black" points="846.8,-900.13 857,-897.26 847.24,-893.14 846.8,-900.13"/>
</g>
<!-- TypeDefinition -->
<g id="node6" class="node">
<title>TypeDefinition</title>
<polygon fill="none" stroke="blue" points="2085,-76.26 2085,-640.26 2435,-640.26 2435,-76.26 2085,-76.26"/>
<text text-anchor="middle" x="2260" y="-623.46" font-family="Times,serif" font-size="16.00">Type Definition</text>
<text text-anchor="middle" x="2260" y="-605.46" font-family="Times,serif" font-size="16.00">(contains Method Table)</text>
<polyline fill="none" stroke="blue" points="2085,-596.26 2435,-596.26 "/>
<text text-anchor="middle" x="2260" y="-579.46" font-family="Times,serif" font-size="16.00">Pointer to Type Name</text>
<polyline fill="none" stroke="blue" points="2085,-570.26 2435,-570.26 "/>
<text text-anchor="middle" x="2260" y="-553.46" font-family="Times,serif" font-size="16.00">~Pointer to Custom Attributes</text>
<polyline fill="none" stroke="blue" points="2085,-544.26 2435,-544.26 "/>
<text text-anchor="middle" x="2260" y="-527.46" font-family="Times,serif" font-size="16.00">Type Code &amp; Attributes</text>
<polyline fill="none" stroke="blue" points="2085,-518.26 2435,-518.26 "/>
<text text-anchor="middle" x="2260" y="-501.46" font-family="Times,serif" font-size="16.00">Type Size</text>
<polyline fill="none" stroke="blue" points="2085,-492.26 2435,-492.26 "/>
<text text-anchor="middle" x="2260" y="-475.46" font-family="Times,serif" font-size="16.00">Pointer to Assembly</text>
<polyline fill="none" stroke="blue" points="2085,-466.26 2435,-466.26 "/>
<text text-anchor="middle" x="2260" y="-449.46" font-family="Times,serif" font-size="16.00">~Pointer to Parent Type</text>
<polyline fill="none" stroke="blue" points="2085,-440.26 2435,-440.26 "/>
<text text-anchor="middle" x="2260" y="-423.46" font-family="Times,serif" font-size="16.00">~Pointer to Declaring Type</text>
<polyline fill="none" stroke="blue" points="2085,-414.26 2435,-414.26 "/>
<text text-anchor="middle" x="2260" y="-397.46" font-family="Times,serif" font-size="16.00">~Pointer to Element Type</text>
<polyline fill="none" stroke="blue" points="2085,-388.26 2435,-388.26 "/>
<text text-anchor="middle" x="2260" y="-371.46" font-family="Times,serif" font-size="16.00">~Pointer to Default Constructor Method</text>
<polyline fill="none" stroke="blue" points="2085,-362.26 2435,-362.26 "/>
<text text-anchor="middle" x="2260" y="-345.46" font-family="Times,serif" font-size="16.00">~Pointer to Properties Table</text>
<polyline fill="none" stroke="blue" points="2085,-336.26 2435,-336.26 "/>
<text text-anchor="middle" x="2260" y="-319.46" font-family="Times,serif" font-size="16.00">~Pointer to Fields Table</text>
<polyline fill="none" stroke="blue" points="2085,-310.26 2435,-310.26 "/>
<text text-anchor="middle" x="2260" y="-293.46" font-family="Times,serif" font-size="16.00">~Pointer to Interface Slot Table</text>
<polyline fill="none" stroke="blue" points="2085,-284.26 2435,-284.26 "/>
<text text-anchor="middle" x="2260" y="-267.46" font-family="Times,serif" font-size="16.00">~Pointer to Interface Bitmap</text>
<polyline fill="none" stroke="blue" points="2085,-258.26 2435,-258.26 "/>
<text text-anchor="middle" x="2260" y="-241.46" font-family="Times,serif" font-size="16.00">Number of Methods</text>
<polyline fill="none" stroke="blue" points="2085,-232.26 2435,-232.26 "/>
<text text-anchor="middle" x="2260" y="-215.46" font-family="Times,serif" font-size="16.00">Pointer to Method 1</text>
<polyline fill="none" stroke="blue" points="2085,-206.26 2435,-206.26 "/>
<text text-anchor="middle" x="2260" y="-189.46" font-family="Times,serif" font-size="16.00">...</text>
<polyline fill="none" stroke="blue" points="2085,-180.26 2435,-180.26 "/>
<text text-anchor="middle" x="2260" y="-163.46" font-family="Times,serif" font-size="16.00">Pointer to Method N</text>
<polyline fill="none" stroke="blue" points="2085,-154.26 2435,-154.26 "/>
<text text-anchor="middle" x="2260" y="-137.46" font-family="Times,serif" font-size="16.00">Pointer to Method Definition 1</text>
<polyline fill="none" stroke="blue" points="2085,-128.26 2435,-128.26 "/>
<text text-anchor="middle" x="2260" y="-111.46" font-family="Times,serif" font-size="16.00">...</text>
<polyline fill="none" stroke="blue" points="2085,-102.26 2435,-102.26 "/>
<text text-anchor="middle" x="2260" y="-85.46" font-family="Times,serif" font-size="16.00">Pointer to Method Definition N</text>
</g>
<!-- AssemblyDefinition&#45;&gt;TypeDefinition -->
<g id="0" class="edge">
<title>AssemblyDefinition:f5&#45;&gt;TypeDefinition:f0</title>
<path fill="none" stroke="blue" d="M710,-654.26C801.29,-654.26 691.71,-462.26 783,-462.26 783,-462.26 783,-462.26 1233,-462.26 1369.26,-462.26 1404.35,-460.37 1539,-481.26 1659.36,-499.93 1944.35,-612.11 2074.75,-618.02"/>
<polygon fill="blue" stroke="blue" points="2074.92,-621.52 2085,-618.26 2075.09,-614.52 2074.92,-621.52"/>
</g>
<!-- CustomAttribute -->
<g id="node19" class="node">
<title>CustomAttribute</title>
<polygon fill="none" stroke="black" points="1269,-491.26 1269,-673.26 1539,-673.26 1539,-491.26 1269,-491.26"/>
<text text-anchor="middle" x="1404" y="-656.46" font-family="Times,serif" font-size="16.00">Custom Attribute</text>
<polyline fill="none" stroke="black" points="1269,-647.26 1539,-647.26 "/>
<text text-anchor="middle" x="1404" y="-630.46" font-family="Times,serif" font-size="16.00">Pointer to Attribute Type</text>
<polyline fill="none" stroke="black" points="1269,-621.26 1539,-621.26 "/>
<text text-anchor="middle" x="1404" y="-604.46" font-family="Times,serif" font-size="16.00">Pointer to Constructor Method</text>
<polyline fill="none" stroke="black" points="1269,-595.26 1539,-595.26 "/>
<text text-anchor="middle" x="1404" y="-578.46" font-family="Times,serif" font-size="16.00">Number of Arguments</text>
<polyline fill="none" stroke="black" points="1269,-569.26 1539,-569.26 "/>
<text text-anchor="middle" x="1404" y="-552.46" font-family="Times,serif" font-size="16.00">Pointer to Argument 1</text>
<polyline fill="none" stroke="black" points="1269,-543.26 1539,-543.26 "/>
<text text-anchor="middle" x="1404" y="-526.46" font-family="Times,serif" font-size="16.00">...</text>
<polyline fill="none" stroke="black" points="1269,-517.26 1539,-517.26 "/>
<text text-anchor="middle" x="1404" y="-500.46" font-family="Times,serif" font-size="16.00">Pointer to Argument N</text>
</g>
<!-- CustomAttributesTable&#45;&gt;CustomAttribute -->
<g id="0" class="edge">
<title>CustomAttributesTable:f2&#45;&gt;CustomAttribute:f0</title>
<path fill="none" stroke="black" d="M1122,-845.26C1177.26,-845.26 1123.94,-769.77 1158,-726.26 1191.23,-683.8 1209.33,-662.87 1258.99,-660.49"/>
<polygon fill="black" stroke="black" points="1259.08,-663.99 1269,-660.26 1258.92,-656.99 1259.08,-663.99"/>
</g>
<!-- TypeDefinition&#45;&gt;NameString -->
<g id="0" class="edge">
<title>TypeDefinition:f1&#45;&gt;NameString:f0</title>
<path fill="none" stroke="red" d="M2435,-583.26C2481.52,-583.26 2461.48,-508.26 2508,-508.26 2508,-508.26 2508,-508.26 2741.5,-508.26 2815.94,-508.26 2836.31,-525.1 2899,-565.26 2977.33,-615.43 2961.14,-676.15 3046,-714.26 3194.19,-780.8 3248.56,-733.26 3411,-733.26 3411,-733.26 3411,-733.26 4401,-733.26 4466.62,-733.26 4422.93,-849.91 4477.02,-862.21"/>
<polygon fill="red" stroke="red" points="4476.69,-865.7 4487,-863.26 4477.42,-858.73 4476.69,-865.7"/>
</g>
<!-- TypeDefinition&#45;&gt;AssemblyDefinition -->
<g id="0" class="edge">
<title>TypeDefinition:f5&#45;&gt;AssemblyDefinition:f0</title>
<path fill="none" stroke="black" d="M2085,-479.26C1994.06,-479.26 1763.52,-522.71 1686,-570.26 1620.9,-610.18 1652.37,-702.26 1576,-702.26 783,-702.26 783,-702.26 783,-702.26 760.06,-702.26 761.33,-721.18 746,-738.26 731.37,-754.56 734.28,-776.1 719.95,-782.43"/>
<polygon fill="black" stroke="black" points="719.21,-779.01 710,-784.26 720.47,-785.9 719.21,-779.01"/>
</g>
<!-- TypeDefinition&#45;&gt;CustomAttributesTable -->
<g id="0" class="edge">
<title>TypeDefinition:f2&#45;&gt;CustomAttributesTable:f0</title>
<path fill="none" stroke="black" d="M2085,-557.26C1994.2,-557.26 1765.93,-602.18 1686,-645.26 1676.04,-650.63 1621.84,-709.2 1613,-716.26 1597.68,-728.48 1595.6,-740.26 1576,-740.26 1195,-740.26 1195,-740.26 1195,-740.26 1121.81,-740.26 1191.43,-882.3 1132.18,-896.17"/>
<polygon fill="black" stroke="black" points="1131.57,-892.72 1122,-897.26 1132.31,-899.68 1131.57,-892.72"/>
</g>
<!-- TypeDefinition&#45;&gt;TypeDefinition -->
<g id="0" class="edge">
<title>TypeDefinition:f6&#45;&gt;TypeDefinition:f0</title>
<path fill="none" stroke="blue" d="M2085,-456.82C2026.67,-467.13 1980,-490.01 1980,-535.76 1980,-578.83 2021.36,-601.62 2074.87,-612.75"/>
<polygon fill="blue" stroke="blue" points="2074.52,-616.25 2085,-614.7 2075.84,-609.37 2074.52,-616.25"/>
</g>
<!-- MethodDefinition -->
<g id="node7" class="node">
<title>MethodDefinition</title>
<polygon fill="none" stroke="green" points="3522,-102.26 3522,-440.26 3832,-440.26 3832,-102.26 3522,-102.26"/>
<text text-anchor="middle" x="3677" y="-423.46" font-family="Times,serif" font-size="16.00">Method Definition</text>
<polyline fill="none" stroke="green" points="3522,-414.26 3832,-414.26 "/>
<text text-anchor="middle" x="3677" y="-397.46" font-family="Times,serif" font-size="16.00">Pointer to Method Name</text>
<polyline fill="none" stroke="green" points="3522,-388.26 3832,-388.26 "/>
<text text-anchor="middle" x="3677" y="-371.46" font-family="Times,serif" font-size="16.00">~Pointer to Custom Attributes</text>
<polyline fill="none" stroke="green" points="3522,-362.26 3832,-362.26 "/>
<text text-anchor="middle" x="3677" y="-345.46" font-family="Times,serif" font-size="16.00">Method Attributes</text>
<polyline fill="none" stroke="green" points="3522,-336.26 3832,-336.26 "/>
<text text-anchor="middle" x="3677" y="-319.46" font-family="Times,serif" font-size="16.00">Local &amp; Parameter Stack Size</text>
<polyline fill="none" stroke="green" points="3522,-310.26 3832,-310.26 "/>
<text text-anchor="middle" x="3677" y="-293.46" font-family="Times,serif" font-size="16.00">Pointer to Method</text>
<polyline fill="none" stroke="green" points="3522,-284.26 3832,-284.26 "/>
<text text-anchor="middle" x="3677" y="-267.46" font-family="Times,serif" font-size="16.00">Pointer to Return Type Definition</text>
<polyline fill="none" stroke="green" points="3522,-258.26 3832,-258.26 "/>
<text text-anchor="middle" x="3677" y="-241.46" font-family="Times,serif" font-size="16.00">~Pointer to Protected Region Table</text>
<polyline fill="none" stroke="green" points="3522,-232.26 3832,-232.26 "/>
<text text-anchor="middle" x="3677" y="-215.46" font-family="Times,serif" font-size="16.00">Pointer to GC Tracking Information</text>
<polyline fill="none" stroke="green" points="3522,-206.26 3832,-206.26 "/>
<text text-anchor="middle" x="3677" y="-189.46" font-family="Times,serif" font-size="16.00">Number of Parameters</text>
<polyline fill="none" stroke="green" points="3522,-180.26 3832,-180.26 "/>
<text text-anchor="middle" x="3677" y="-163.46" font-family="Times,serif" font-size="16.00">Pointer to Parameter Definition 1</text>
<polyline fill="none" stroke="green" points="3522,-154.26 3832,-154.26 "/>
<text text-anchor="middle" x="3677" y="-137.46" font-family="Times,serif" font-size="16.00">...</text>
<polyline fill="none" stroke="green" points="3522,-128.26 3832,-128.26 "/>
<text text-anchor="middle" x="3677" y="-111.46" font-family="Times,serif" font-size="16.00">Pointer to Parameter Definition N</text>
</g>
<!-- TypeDefinition&#45;&gt;MethodDefinition -->
<g id="0" class="edge">
<title>TypeDefinition:f9&#45;&gt;MethodDefinition:f0</title>
<path fill="none" stroke="green" d="M2435,-375.26C2468.12,-375.26 2474.88,-390.26 2508,-390.26 2508,-390.26 2508,-390.26 2741.5,-390.26 3023.29,-390.26 3098.96,-307.6 3375,-364.26 3390.37,-367.41 3479.32,-414.1 3512.18,-425"/>
<polygon fill="green" stroke="green" points="3511.47,-428.42 3522,-427.26 3513.04,-421.6 3511.47,-428.42"/>
</g>
<!-- TypeDefinition&#45;&gt;MethodDefinition -->
<g id="0" class="edge">
<title>TypeDefinition:f16&#45;&gt;MethodDefinition:f0</title>
<path fill="none" stroke="black" d="M2435,-141.26C2485.14,-141.26 2457.86,-55.26 2508,-55.26 2508,-55.26 2508,-55.26 3010,-55.26 3177.63,-55.26 3231,-64.45 3375,-150.26 3437.13,-187.28 3452.13,-205.35 3486,-269.26 3517.95,-329.54 3457.05,-417.39 3511.75,-426.49"/>
<polygon fill="black" stroke="black" points="3511.77,-430 3522,-427.26 3512.29,-423.02 3511.77,-430"/>
</g>
<!-- PropertiesTable -->
<g id="node8" class="node">
<title>PropertiesTable</title>
<polygon fill="none" stroke="black" points="2600.5,-232.26 2600.5,-362.26 2880.5,-362.26 2880.5,-232.26 2600.5,-232.26"/>
<text text-anchor="middle" x="2740.5" y="-345.46" font-family="Times,serif" font-size="16.00">Properties Table</text>
<polyline fill="none" stroke="black" points="2600.5,-336.26 2880.5,-336.26 "/>
<text text-anchor="middle" x="2740.5" y="-319.46" font-family="Times,serif" font-size="16.00">Number of Properties</text>
<polyline fill="none" stroke="black" points="2600.5,-310.26 2880.5,-310.26 "/>
<text text-anchor="middle" x="2740.5" y="-293.46" font-family="Times,serif" font-size="16.00">Pointer to Property Definition 1</text>
<polyline fill="none" stroke="black" points="2600.5,-284.26 2880.5,-284.26 "/>
<text text-anchor="middle" x="2740.5" y="-267.46" font-family="Times,serif" font-size="16.00">...</text>
<polyline fill="none" stroke="black" points="2600.5,-258.26 2880.5,-258.26 "/>
<text text-anchor="middle" x="2740.5" y="-241.46" font-family="Times,serif" font-size="16.00">Pointer to Property Definition N</text>
</g>
<!-- TypeDefinition&#45;&gt;PropertiesTable -->
<g id="0" class="edge">
<title>TypeDefinition:f10&#45;&gt;PropertiesTable:f0</title>
<path fill="none" stroke="black" d="M2435,-349.26C2504.54,-349.26 2524.47,-349.26 2589.17,-349.26"/>
<polygon fill="black" stroke="black" points="2589.5,-352.76 2599.5,-349.26 2589.5,-345.76 2589.5,-352.76"/>
</g>
<!-- FieldsTable -->
<g id="node9" class="node">
<title>FieldsTable</title>
<polygon fill="none" stroke="black" points="2615,-574.26 2615,-704.26 2866,-704.26 2866,-574.26 2615,-574.26"/>
<text text-anchor="middle" x="2740.5" y="-687.46" font-family="Times,serif" font-size="16.00">Fields Table</text>
<polyline fill="none" stroke="black" points="2615,-678.26 2866,-678.26 "/>
<text text-anchor="middle" x="2740.5" y="-661.46" font-family="Times,serif" font-size="16.00">Number of Fields</text>
<polyline fill="none" stroke="black" points="2615,-652.26 2866,-652.26 "/>
<text text-anchor="middle" x="2740.5" y="-635.46" font-family="Times,serif" font-size="16.00">Pointer to Field Definition 1</text>
<polyline fill="none" stroke="black" points="2615,-626.26 2866,-626.26 "/>
<text text-anchor="middle" x="2740.5" y="-609.46" font-family="Times,serif" font-size="16.00">...</text>
<polyline fill="none" stroke="black" points="2615,-600.26 2866,-600.26 "/>
<text text-anchor="middle" x="2740.5" y="-583.46" font-family="Times,serif" font-size="16.00">Pointer to Field Definition N</text>
</g>
<!-- TypeDefinition&#45;&gt;FieldsTable -->
<g id="0" class="edge">
<title>TypeDefinition:f11&#45;&gt;FieldsTable:f0</title>
<path fill="none" stroke="black" d="M2435,-323.26C2488.27,-323.26 2445.97,-513.23 2471,-560.26 2509.76,-633.09 2526.11,-686.71 2603.26,-690.98"/>
<polygon fill="black" stroke="black" points="2603.41,-694.49 2613.5,-691.26 2603.6,-687.49 2603.41,-694.49"/>
</g>
<!-- InterfaceSlotTable -->
<g id="node10" class="node">
<title>InterfaceSlotTable</title>
<polygon fill="none" stroke="black" points="2582,-83.26 2582,-213.26 2899,-213.26 2899,-83.26 2582,-83.26"/>
<text text-anchor="middle" x="2740.5" y="-196.46" font-family="Times,serif" font-size="16.00">Interface Slot Table</text>
<polyline fill="none" stroke="black" points="2582,-187.26 2899,-187.26 "/>
<text text-anchor="middle" x="2740.5" y="-170.46" font-family="Times,serif" font-size="16.00">Number of Interface Method Tables</text>
<polyline fill="none" stroke="black" points="2582,-161.26 2899,-161.26 "/>
<text text-anchor="middle" x="2740.5" y="-144.46" font-family="Times,serif" font-size="16.00">Pointer to Interface Method Table 1</text>
<polyline fill="none" stroke="black" points="2582,-135.26 2899,-135.26 "/>
<text text-anchor="middle" x="2740.5" y="-118.46" font-family="Times,serif" font-size="16.00">...</text>
<polyline fill="none" stroke="black" points="2582,-109.26 2899,-109.26 "/>
<text text-anchor="middle" x="2740.5" y="-92.46" font-family="Times,serif" font-size="16.00">Pointer to Interface Method Table N</text>
</g>
<!-- TypeDefinition&#45;&gt;InterfaceSlotTable -->
<g id="0" class="edge">
<title>TypeDefinition:f12&#45;&gt;InterfaceSlotTable:f0</title>
<path fill="none" stroke="black" d="M2435,-297.26C2509.76,-297.26 2504.41,-208.78 2571.97,-200.83"/>
<polygon fill="black" stroke="black" points="2572.21,-204.32 2582,-200.26 2571.82,-197.33 2572.21,-204.32"/>
</g>
<!-- MethodDefinition&#45;&gt;NameString -->
<g id="0" class="edge">
<title>MethodDefinition:f1&#45;&gt;NameString:f0</title>
<path fill="none" stroke="red" d="M3832,-401.26C3874.28,-401.26 3862.72,-462.26 3905,-462.26 3905,-462.26 3905,-462.26 4401,-462.26 4488.58,-462.26 4403.1,-832.54 4477.16,-861.47"/>
<polygon fill="red" stroke="red" points="4476.54,-864.91 4487,-863.26 4477.79,-858.03 4476.54,-864.91"/>
</g>
<!-- MethodDefinition&#45;&gt;CustomAttributesTable -->
<g id="0" class="edge">
<title>MethodDefinition:f2&#45;&gt;CustomAttributesTable:f0</title>
<path fill="none" stroke="black" d="M3522,-375.26C3256.5,-375.26 3582.13,-788.17 3375,-954.26 3074.66,-1195.1 2893.98,-935.26 2509,-935.26 1195,-935.26 1195,-935.26 1195,-935.26 1162.14,-935.26 1158.92,-904.58 1132.08,-898.35"/>
<polygon fill="black" stroke="black" points="1132.32,-894.86 1122,-897.26 1131.56,-901.82 1132.32,-894.86"/>
</g>
<!-- MethodDefinition&#45;&gt;TypeDefinition -->
<g id="0" class="edge">
<title>MethodDefinition:f6&#45;&gt;TypeDefinition:f0</title>
<path fill="none" stroke="blue" d="M3522,-271.26C3437.38,-271.26 3454.65,-178.82 3375,-150.26 3306.18,-125.58 3108.24,-111.91 3046,-150.26 2984.15,-188.37 2959.52,-402.07 2899,-442.26 2768,-529.24 2703.25,-466.26 2546,-466.26 2508,-466.26 2508,-466.26 2508,-466.26 2487.38,-466.26 2482.69,-477.27 2471,-494.26 2440.63,-538.39 2485.61,-608.2 2445.02,-617.27"/>
<polygon fill="blue" stroke="blue" points="2444.61,-613.8 2435,-618.26 2445.29,-620.76 2444.61,-613.8"/>
</g>
<!-- ProtectedRegionTable -->
<g id="node14" class="node">
<title>ProtectedRegionTable</title>
<polygon fill="none" stroke="black" points="3979,-173.26 3979,-303.26 4327,-303.26 4327,-173.26 3979,-173.26"/>
<text text-anchor="middle" x="4153" y="-286.46" font-family="Times,serif" font-size="16.00">Protected Region Table</text>
<polyline fill="none" stroke="black" points="3979,-277.26 4327,-277.26 "/>
<text text-anchor="middle" x="4153" y="-260.46" font-family="Times,serif" font-size="16.00">Number of Regions</text>
<polyline fill="none" stroke="black" points="3979,-251.26 4327,-251.26 "/>
<text text-anchor="middle" x="4153" y="-234.46" font-family="Times,serif" font-size="16.00">Pointer to Protected Region Definition 1</text>
<polyline fill="none" stroke="black" points="3979,-225.26 4327,-225.26 "/>
<text text-anchor="middle" x="4153" y="-208.46" font-family="Times,serif" font-size="16.00">...</text>
<polyline fill="none" stroke="black" points="3979,-199.26 4327,-199.26 "/>
<text text-anchor="middle" x="4153" y="-182.46" font-family="Times,serif" font-size="16.00">Protected Region Definition N</text>
</g>
<!-- MethodDefinition&#45;&gt;ProtectedRegionTable -->
<g id="0" class="edge">
<title>MethodDefinition:f7&#45;&gt;ProtectedRegionTable:f0</title>
<path fill="none" stroke="black" d="M3832,-245.26C3896.72,-245.26 3909.42,-285.64 3968.66,-289.9"/>
<polygon fill="black" stroke="black" points="3968.88,-293.41 3979,-290.26 3969.13,-286.41 3968.88,-293.41"/>
</g>
<!-- GCTrackingInformation -->
<g id="node17" class="node">
<title>GCTrackingInformation</title>
<polygon fill="none" stroke="black" points="4042.5,-102.26 4042.5,-154.26 4263.5,-154.26 4263.5,-102.26 4042.5,-102.26"/>
<text text-anchor="middle" x="4153" y="-137.46" font-family="Times,serif" font-size="16.00">GC Tracking Information</text>
<polyline fill="none" stroke="black" points="4042.5,-128.26 4263.5,-128.26 "/>
<text text-anchor="middle" x="4153" y="-111.46" font-family="Times,serif" font-size="16.00">TODO</text>
</g>
<!-- MethodDefinition&#45;&gt;GCTrackingInformation -->
<g id="0" class="edge">
<title>MethodDefinition:f8&#45;&gt;GCTrackingInformation:f0</title>
<path fill="none" stroke="black" d="M3832,-219.26C3927.66,-219.26 3940.99,-146.65 4030.86,-141.54"/>
<polygon fill="black" stroke="black" points="4031.1,-145.04 4041,-141.26 4030.91,-138.04 4031.1,-145.04"/>
</g>
<!-- ParameterDefinition -->
<g id="node18" class="node">
<title>ParameterDefinition</title>
<polygon fill="none" stroke="black" points="4019.5,-891.26 4019.5,-1021.26 4286.5,-1021.26 4286.5,-891.26 4019.5,-891.26"/>
<text text-anchor="middle" x="4153" y="-1004.46" font-family="Times,serif" font-size="16.00">Parameter Definition</text>
<polyline fill="none" stroke="black" points="4019.5,-995.26 4286.5,-995.26 "/>
<text text-anchor="middle" x="4153" y="-978.46" font-family="Times,serif" font-size="16.00">Pointer to Parameter Name</text>
<polyline fill="none" stroke="black" points="4019.5,-969.26 4286.5,-969.26 "/>
<text text-anchor="middle" x="4153" y="-952.46" font-family="Times,serif" font-size="16.00">~Pointer to Custom Attributes</text>
<polyline fill="none" stroke="black" points="4019.5,-943.26 4286.5,-943.26 "/>
<text text-anchor="middle" x="4153" y="-926.46" font-family="Times,serif" font-size="16.00">Parameter Attributes</text>
<polyline fill="none" stroke="black" points="4019.5,-917.26 4286.5,-917.26 "/>
<text text-anchor="middle" x="4153" y="-900.46" font-family="Times,serif" font-size="16.00">Pointer to Parameter Type</text>
</g>
<!-- MethodDefinition&#45;&gt;ParameterDefinition -->
<g id="0" class="edge">
<title>MethodDefinition:f10&#45;&gt;ParameterDefinition:f0</title>
<path fill="none" stroke="black" d="M3832,-167.26C3866.57,-167.26 3861.29,-442.35 3868,-476.26 3891.17,-593.34 3894.96,-985.18 4007.85,-1007.28"/>
<polygon fill="black" stroke="black" points="4007.71,-1010.79 4018,-1008.26 4008.38,-1003.82 4007.71,-1010.79"/>
</g>
<!-- PropertyDefinition -->
<g id="node12" class="node">
<title>PropertyDefinition</title>
<polygon fill="none" stroke="black" points="3046,-374.26 3046,-556.26 3375,-556.26 3375,-374.26 3046,-374.26"/>
<text text-anchor="middle" x="3210.5" y="-539.46" font-family="Times,serif" font-size="16.00">Property Definition</text>
<polyline fill="none" stroke="black" points="3046,-530.26 3375,-530.26 "/>
<text text-anchor="middle" x="3210.5" y="-513.46" font-family="Times,serif" font-size="16.00">Pointer to Property Name</text>
<polyline fill="none" stroke="black" points="3046,-504.26 3375,-504.26 "/>
<text text-anchor="middle" x="3210.5" y="-487.46" font-family="Times,serif" font-size="16.00">~Pointer to Custom Attributes</text>
<polyline fill="none" stroke="black" points="3046,-478.26 3375,-478.26 "/>
<text text-anchor="middle" x="3210.5" y="-461.46" font-family="Times,serif" font-size="16.00">Property Attributes</text>
<polyline fill="none" stroke="black" points="3046,-452.26 3375,-452.26 "/>
<text text-anchor="middle" x="3210.5" y="-435.46" font-family="Times,serif" font-size="16.00">Pointer to Property Type</text>
<polyline fill="none" stroke="black" points="3046,-426.26 3375,-426.26 "/>
<text text-anchor="middle" x="3210.5" y="-409.46" font-family="Times,serif" font-size="16.00">~Pointer to Getter Method Definition</text>
<polyline fill="none" stroke="black" points="3046,-400.26 3375,-400.26 "/>
<text text-anchor="middle" x="3210.5" y="-383.46" font-family="Times,serif" font-size="16.00">~Pointer to Setter Method Defiinition</text>
</g>
<!-- PropertiesTable&#45;&gt;PropertyDefinition -->
<g id="0" class="edge">
<title>PropertiesTable:f2&#45;&gt;PropertyDefinition:f0</title>
<path fill="none" stroke="black" d="M2880.82,-310.44C2987.3,-372.22 2923,-533.76 3035.69,-542.86"/>
<polygon fill="black" stroke="black" points="3035.87,-546.37 3046,-543.26 3036.14,-539.37 3035.87,-546.37"/>
</g>
<!-- FieldDefinition -->
<g id="node11" class="node">
<title>FieldDefinition</title>
<polygon fill="none" stroke="black" points="3077,-762.26 3077,-944.26 3344,-944.26 3344,-762.26 3077,-762.26"/>
<text text-anchor="middle" x="3210.5" y="-927.46" font-family="Times,serif" font-size="16.00">Field Definition</text>
<polyline fill="none" stroke="black" points="3077,-918.26 3344,-918.26 "/>
<text text-anchor="middle" x="3210.5" y="-901.46" font-family="Times,serif" font-size="16.00">Pointer to Field Name</text>
<polyline fill="none" stroke="black" points="3077,-892.26 3344,-892.26 "/>
<text text-anchor="middle" x="3210.5" y="-875.46" font-family="Times,serif" font-size="16.00">~Pointer to Custom Attributes</text>
<polyline fill="none" stroke="black" points="3077,-866.26 3344,-866.26 "/>
<text text-anchor="middle" x="3210.5" y="-849.46" font-family="Times,serif" font-size="16.00">Field Attributes</text>
<polyline fill="none" stroke="black" points="3077,-840.26 3344,-840.26 "/>
<text text-anchor="middle" x="3210.5" y="-823.46" font-family="Times,serif" font-size="16.00">Pointer to Field Type</text>
<polyline fill="none" stroke="black" points="3077,-814.26 3344,-814.26 "/>
<text text-anchor="middle" x="3210.5" y="-797.46" font-family="Times,serif" font-size="16.00">~Address</text>
<polyline fill="none" stroke="black" points="3077,-788.26 3344,-788.26 "/>
<text text-anchor="middle" x="3210.5" y="-771.46" font-family="Times,serif" font-size="16.00">Offset / Size</text>
</g>
<!-- FieldsTable&#45;&gt;FieldDefinition -->
<g id="0" class="edge">
<title>FieldsTable:f2&#45;&gt;FieldDefinition:f0</title>
<path fill="none" stroke="black" d="M2866.44,-652.43C2941.31,-682.56 2961.56,-699.44 3010,-764.26 3055.49,-825.13 3001.34,-921.68 3065.2,-930.59"/>
<polygon fill="black" stroke="black" points="3065.3,-934.11 3075.5,-931.26 3065.75,-927.12 3065.3,-934.11"/>
</g>
<!-- InterfaceMethodTable -->
<g id="node16" class="node">
<title>InterfaceMethodTable</title>
<polygon fill="none" stroke="black" points="3074.5,-160.26 3074.5,-316.26 3346.5,-316.26 3346.5,-160.26 3074.5,-160.26"/>
<text text-anchor="middle" x="3210.5" y="-299.46" font-family="Times,serif" font-size="16.00">Interface Method Table</text>
<polyline fill="none" stroke="black" points="3074.5,-290.26 3346.5,-290.26 "/>
<text text-anchor="middle" x="3210.5" y="-273.46" font-family="Times,serif" font-size="16.00">Pointer to Interface Type</text>
<polyline fill="none" stroke="black" points="3074.5,-264.26 3346.5,-264.26 "/>
<text text-anchor="middle" x="3210.5" y="-247.46" font-family="Times,serif" font-size="16.00">Number of Methods</text>
<polyline fill="none" stroke="black" points="3074.5,-238.26 3346.5,-238.26 "/>
<text text-anchor="middle" x="3210.5" y="-221.46" font-family="Times,serif" font-size="16.00">Pointer to Method Definition 1</text>
<polyline fill="none" stroke="black" points="3074.5,-212.26 3346.5,-212.26 "/>
<text text-anchor="middle" x="3210.5" y="-195.46" font-family="Times,serif" font-size="16.00">..</text>
<polyline fill="none" stroke="black" points="3074.5,-186.26 3346.5,-186.26 "/>
<text text-anchor="middle" x="3210.5" y="-169.46" font-family="Times,serif" font-size="16.00">Pointer to Method Definition N</text>
</g>
<!-- InterfaceSlotTable&#45;&gt;InterfaceMethodTable -->
<g id="0" class="edge">
<title>InterfaceSlotTable:f2&#45;&gt;InterfaceMethodTable:f0</title>
<path fill="none" stroke="black" d="M2899,-148.26C2999.19,-148.26 2971.86,-292.84 3063.33,-302.73"/>
<polygon fill="black" stroke="black" points="3063.33,-306.23 3073.5,-303.26 3063.7,-299.24 3063.33,-306.23"/>
</g>
<!-- FieldDefinition&#45;&gt;NameString -->
<g id="0" class="edge">
<title>FieldDefinition:f1&#45;&gt;NameString:f0</title>
<path fill="none" stroke="red" d="M3345.5,-905.26C3394.73,-905.26 3398.77,-863.26 3448,-863.26 3448,-863.26 3448,-863.26 4401,-863.26 4435.64,-863.26 4446.73,-863.26 4476.96,-863.26"/>
<polygon fill="red" stroke="red" points="4477,-866.76 4487,-863.26 4477,-859.76 4477,-866.76"/>
</g>
<!-- FieldDefinition&#45;&gt;CustomAttributesTable -->
<g id="0" class="edge">
<title>FieldDefinition:f2&#45;&gt;CustomAttributesTable:f0</title>
<path fill="none" stroke="black" d="M3075.5,-879.26C3023.59,-879.26 3024.91,-935.26 2973,-935.26 2935,-935.26 2935,-935.26 2935,-935.26 2744.91,-935.26 2699.09,-973.26 2509,-973.26 1195,-973.26 1195,-973.26 1195,-973.26 1175.4,-973.26 1172.07,-962.91 1158,-949.26 1140.82,-932.59 1147.18,-906.6 1132.09,-899.25"/>
<polygon fill="black" stroke="black" points="1132.49,-895.77 1122,-897.26 1131.13,-902.63 1132.49,-895.77"/>
</g>
<!-- FieldDefinition&#45;&gt;TypeDefinition -->
<g id="0" class="edge">
<title>FieldDefinition:f4&#45;&gt;TypeDefinition:f0</title>
<path fill="none" stroke="blue" d="M3075.5,-827.26C3025.01,-827.26 3023.49,-778.26 2973,-778.26 2508,-778.26 2508,-778.26 2508,-778.26 2472.43,-778.26 2473.51,-645.72 2444.53,-621.9"/>
<polygon fill="blue" stroke="blue" points="2445.59,-618.56 2435,-618.26 2443.09,-625.1 2445.59,-618.56"/>
</g>
<!-- PropertyDefinition&#45;&gt;NameString -->
<g id="0" class="edge">
<title>PropertyDefinition:f1&#45;&gt;NameString:f0</title>
<path fill="none" stroke="red" d="M3375,-517.26C3426.72,-517.26 3433.28,-555.26 3485,-555.26 3485,-555.26 3485,-555.26 4401,-555.26 4468.45,-555.26 4421.31,-832.77 4477.12,-860.96"/>
<polygon fill="red" stroke="red" points="4476.47,-864.4 4487,-863.26 4478.06,-857.58 4476.47,-864.4"/>
</g>
<!-- PropertyDefinition&#45;&gt;CustomAttributesTable -->
<g id="0" class="edge">
<title>PropertyDefinition:f2&#45;&gt;CustomAttributesTable:f0</title>
<path fill="none" stroke="black" d="M3046,-491.26C3038.63,-491.26 2976.39,-739.72 2973,-746.26 2960.93,-769.55 2957.97,-777.92 2936,-792.26 2785.67,-890.36 2725.51,-897.26 2546,-897.26 1195,-897.26 1195,-897.26 1195,-897.26 1166.23,-897.26 1156.59,-897.26 1132.16,-897.26"/>
<polygon fill="black" stroke="black" points="1132,-893.76 1122,-897.26 1132,-900.76 1132,-893.76"/>
</g>
<!-- PropertyDefinition&#45;&gt;TypeDefinition -->
<g id="0" class="edge">
<title>PropertyDefinition:f4&#45;&gt;TypeDefinition:f0</title>
<path fill="none" stroke="blue" d="M3046,-439.26C2978.9,-439.26 3040.1,-732.26 2973,-732.26 2508,-732.26 2508,-732.26 2508,-732.26 2451.6,-732.26 2489.67,-632.06 2445.07,-619.54"/>
<polygon fill="blue" stroke="blue" points="2445.36,-616.05 2435,-618.26 2444.48,-622.99 2445.36,-616.05"/>
</g>
<!-- PropertyDefinition&#45;&gt;MethodDefinition -->
<g id="0" class="edge">
<title>PropertyDefinition:f5&#45;&gt;MethodDefinition:f0</title>
<path fill="none" stroke="green" d="M3375,-413.26C3437.04,-413.26 3454.5,-425.77 3511.66,-427.14"/>
<polygon fill="green" stroke="green" points="3511.96,-430.64 3522,-427.26 3512.04,-423.64 3511.96,-430.64"/>
</g>
<!-- PropertyDefinition&#45;&gt;MethodDefinition -->
<g id="0" class="edge">
<title>PropertyDefinition:f6&#45;&gt;MethodDefinition:f0</title>
<path fill="none" stroke="green" d="M3375,-387.26C3405.81,-387.26 3474.26,-420.39 3511.84,-426.35"/>
<polygon fill="green" stroke="green" points="3511.73,-429.85 3522,-427.26 3512.35,-422.88 3511.73,-429.85"/>
</g>
<!-- MethodLookupTable -->
<g id="node13" class="node">
<title>MethodLookupTable</title>
<polygon fill="none" stroke="black" points="3049,-575.26 3049,-705.26 3372,-705.26 3372,-575.26 3049,-575.26"/>
<text text-anchor="middle" x="3210.5" y="-688.46" font-family="Times,serif" font-size="16.00">Method Lookup Table</text>
<polyline fill="none" stroke="black" points="3049,-679.26 3372,-679.26 "/>
<text text-anchor="middle" x="3210.5" y="-662.46" font-family="Times,serif" font-size="16.00">Number of Methods</text>
<polyline fill="none" stroke="black" points="3049,-653.26 3372,-653.26 "/>
<text text-anchor="middle" x="3210.5" y="-636.46" font-family="Times,serif" font-size="16.00">Pointer to Method (Starting Address)</text>
<polyline fill="none" stroke="black" points="3049,-627.26 3372,-627.26 "/>
<text text-anchor="middle" x="3210.5" y="-610.46" font-family="Times,serif" font-size="16.00">Method Size</text>
<polyline fill="none" stroke="black" points="3049,-601.26 3372,-601.26 "/>
<text text-anchor="middle" x="3210.5" y="-584.46" font-family="Times,serif" font-size="16.00">Pointer to Method Definition</text>
</g>
<!-- MethodLookupTable&#45;&gt;MethodDefinition -->
<g id="0" class="edge">
<title>MethodLookupTable:f3&#45;&gt;MethodDefinition:f0</title>
<path fill="none" stroke="green" d="M3373.5,-588.26C3418.85,-588.26 3466.34,-448.52 3511.99,-429.41"/>
<polygon fill="green" stroke="green" points="3512.96,-432.78 3522,-427.26 3511.49,-425.94 3512.96,-432.78"/>
</g>
<!-- ProtectedRegionDefinition -->
<g id="node15" class="node">
<title>ProtectedRegionDefinition</title>
<polygon fill="none" stroke="black" points="4474,-69.26 4474,-225.26 4720,-225.26 4720,-69.26 4474,-69.26"/>
<text text-anchor="middle" x="4597" y="-208.46" font-family="Times,serif" font-size="16.00">Protected Region Definition</text>
<polyline fill="none" stroke="black" points="4474,-199.26 4720,-199.26 "/>
<text text-anchor="middle" x="4597" y="-182.46" font-family="Times,serif" font-size="16.00">Region Start</text>
<polyline fill="none" stroke="black" points="4474,-173.26 4720,-173.26 "/>
<text text-anchor="middle" x="4597" y="-156.46" font-family="Times,serif" font-size="16.00">Region End</text>
<polyline fill="none" stroke="black" points="4474,-147.26 4720,-147.26 "/>
<text text-anchor="middle" x="4597" y="-130.46" font-family="Times,serif" font-size="16.00">Region Handler</text>
<polyline fill="none" stroke="black" points="4474,-121.26 4720,-121.26 "/>
<text text-anchor="middle" x="4597" y="-104.46" font-family="Times,serif" font-size="16.00">Exception Handler Type</text>
<polyline fill="none" stroke="black" points="4474,-95.26 4720,-95.26 "/>
<text text-anchor="middle" x="4597" y="-78.46" font-family="Times,serif" font-size="16.00">Pointer to Exception Type</text>
</g>
<!-- ProtectedRegionTable&#45;&gt;ProtectedRegionDefinition -->
<g id="0" class="edge">
<title>ProtectedRegionTable:f2&#45;&gt;ProtectedRegionDefinition:f0</title>
<path fill="none" stroke="black" d="M4327,-238.26C4389.85,-238.26 4406,-214.93 4463.92,-212.47"/>
<polygon fill="black" stroke="black" points="4464.07,-215.96 4474,-212.26 4463.93,-208.97 4464.07,-215.96"/>
</g>
<!-- ProtectedRegionDefinition&#45;&gt;TypeDefinition -->
<g id="0" class="edge">
<title>ProtectedRegionDefinition:f5&#45;&gt;TypeDefinition:f0</title>
<path fill="none" stroke="blue" d="M4474,-82.26C4441.31,-82.26 4433.69,-73.26 4401,-73.26 3485,-73.26 3485,-73.26 3485,-73.26 3288.63,-73.26 3210.84,-16.53 3046,-123.26 2938.44,-192.89 3004.9,-299.13 2899,-371.26 2767.65,-460.72 2704.92,-428.26 2546,-428.26 2508,-428.26 2508,-428.26 2508,-428.26 2476.29,-428.26 2483.6,-460.16 2471,-489.26 2448.87,-540.36 2488.74,-608.75 2445.23,-617.36"/>
<polygon fill="blue" stroke="blue" points="2444.65,-613.89 2435,-618.26 2445.27,-620.87 2444.65,-613.89"/>
</g>
<!-- InterfaceMethodTable&#45;&gt;TypeDefinition -->
<g id="0" class="edge">
<title>InterfaceMethodTable:f1&#45;&gt;TypeDefinition:f0</title>
<path fill="none" stroke="blue" d="M3073.5,-277.26C2996.18,-277.26 3020.96,-358.61 2973,-419.26 2957.57,-438.77 2955.63,-445.98 2936,-461.26 2861.56,-519.21 2835.84,-546.26 2741.5,-546.26 2508,-546.26 2508,-546.26 2508,-546.26 2490.42,-546.26 2484.58,-549.09 2471,-560.26 2450.87,-576.82 2461.16,-607.75 2445.19,-616.12"/>
<polygon fill="blue" stroke="blue" points="2444.07,-612.78 2435,-618.26 2445.51,-619.63 2444.07,-612.78"/>
</g>
<!-- InterfaceMethodTable&#45;&gt;MethodDefinition -->
<g id="0" class="edge">
<title>InterfaceMethodTable:f3&#45;&gt;MethodDefinition:f0</title>
<path fill="none" stroke="green" d="M3347.5,-225.26C3428.95,-225.26 3437.67,-279.7 3486,-345.26 3507.22,-374.04 3487.24,-417.29 3511.83,-425.78"/>
<polygon fill="green" stroke="green" points="3511.6,-429.29 3522,-427.26 3512.61,-422.36 3511.6,-429.29"/>
</g>
<!-- ParameterDefinition&#45;&gt;NameString -->
<g id="0" class="edge">
<title>ParameterDefinition:f1&#45;&gt;NameString:f0</title>
<path fill="none" stroke="red" d="M4288,-982.26C4336.31,-982.26 4423.65,-877.67 4476.84,-864.59"/>
<polygon fill="red" stroke="red" points="4477.54,-868.03 4487,-863.26 4476.63,-861.09 4477.54,-868.03"/>
</g>
<!-- ParameterDefinition&#45;&gt;CustomAttributesTable -->
<g id="0" class="edge">
<title>ParameterDefinition:f2&#45;&gt;CustomAttributesTable:f0</title>
<path fill="none" stroke="black" d="M4018,-956.26C3929.82,-956.26 3957.18,-1087.26 3869,-1087.26 1195,-1087.26 1195,-1087.26 1195,-1087.26 1153.3,-1087.26 1164.89,-925.79 1131.51,-900.56"/>
<polygon fill="black" stroke="black" points="1132.59,-897.23 1122,-897.26 1130.3,-903.84 1132.59,-897.23"/>
</g>
<!-- ParameterDefinition&#45;&gt;TypeDefinition -->
<g id="0" class="edge">
<title>ParameterDefinition:f4&#45;&gt;TypeDefinition:f0</title>
<path fill="none" stroke="blue" d="M4018,-904.26C3959.53,-904.26 3964.47,-973.26 3906,-973.26 3411,-973.26 3411,-973.26 3411,-973.26 3248.56,-973.26 3198.87,-1009.2 3046,-954.26 2969.46,-926.75 2974.08,-876.53 2899,-845.26 2833.63,-818.03 2812.31,-821.26 2741.5,-821.26 2508,-821.26 2508,-821.26 2508,-821.26 2463.62,-821.26 2479.93,-647.27 2444.56,-621.45"/>
<polygon fill="blue" stroke="blue" points="2445.59,-618.1 2435,-618.26 2443.38,-624.74 2445.59,-618.1"/>
</g>
<!-- CustomAttribute&#45;&gt;TypeDefinition -->
<g id="0" class="edge">
<title>CustomAttribute:f1&#45;&gt;TypeDefinition:f0</title>
<path fill="none" stroke="blue" d="M1539,-634.26C1571.64,-634.26 1579.36,-626.26 1612,-626.26 1612,-626.26 1612,-626.26 2012,-626.26 2040.94,-626.26 2050.29,-619.97 2074.79,-618.54"/>
<polygon fill="blue" stroke="blue" points="2075.1,-622.04 2085,-618.26 2074.91,-615.04 2075.1,-622.04"/>
</g>
<!-- CustomAttribute&#45;&gt;MethodDefinition -->
<g id="0" class="edge">
<title>CustomAttribute:f2&#45;&gt;MethodDefinition:f0</title>
<path fill="none" stroke="green" d="M1539,-608.26C1624.48,-608.26 2007.97,-103.33 2085,-66.26 2255.54,15.81 2318.74,-17.26 2508,-17.26 2508,-17.26 2508,-17.26 3010,-17.26 3172.97,-17.26 3239.77,38.68 3375,-52.26 3463.26,-111.61 3449.55,-164.34 3486,-264.26 3497.47,-295.7 3487.35,-403.12 3512.52,-423.8"/>
<polygon fill="green" stroke="green" points="3511.41,-427.12 3522,-427.26 3513.81,-420.54 3511.41,-427.12"/>
</g>
<!-- CustomAttributeArgument -->
<g id="node20" class="node">
<title>CustomAttributeArgument</title>
<polygon fill="none" stroke="black" points="1686,-655.26 1686,-811.26 1938,-811.26 1938,-655.26 1686,-655.26"/>
<text text-anchor="middle" x="1812" y="-794.46" font-family="Times,serif" font-size="16.00">Custom Attribute Argument</text>
<polyline fill="none" stroke="black" points="1686,-785.26 1938,-785.26 "/>
<text text-anchor="middle" x="1812" y="-768.46" font-family="Times,serif" font-size="16.00">~Pointer to Argument Name</text>
<polyline fill="none" stroke="black" points="1686,-759.26 1938,-759.26 "/>
<text text-anchor="middle" x="1812" y="-742.46" font-family="Times,serif" font-size="16.00">Is Argument a Field</text>
<polyline fill="none" stroke="black" points="1686,-733.26 1938,-733.26 "/>
<text text-anchor="middle" x="1812" y="-716.46" font-family="Times,serif" font-size="16.00">Pointer to Argument Type</text>
<polyline fill="none" stroke="black" points="1686,-707.26 1938,-707.26 "/>
<text text-anchor="middle" x="1812" y="-690.46" font-family="Times,serif" font-size="16.00">Argument Size</text>
<polyline fill="none" stroke="black" points="1686,-681.26 1938,-681.26 "/>
<text text-anchor="middle" x="1812" y="-664.46" font-family="Times,serif" font-size="16.00">Argument</text>
</g>
<!-- CustomAttribute&#45;&gt;CustomAttributeArgument -->
<g id="0" class="edge">
<title>CustomAttribute:f4&#45;&gt;CustomAttributeArgument:f0</title>
<path fill="none" stroke="black" d="M1539,-556.26C1661.28,-556.26 1565.9,-784.75 1675.85,-797.69"/>
<polygon fill="black" stroke="black" points="1675.82,-801.19 1686,-798.26 1676.21,-794.2 1675.82,-801.19"/>
</g>
<!-- CustomAttributeArgument&#45;&gt;NameString -->
<g id="0" class="edge">
<title>CustomAttributeArgument:f1&#45;&gt;NameString:f0</title>
<path fill="none" stroke="red" d="M1938,-772.26C1988.48,-772.26 1960.52,-859.26 2011,-859.26 2011,-859.26 2011,-859.26 2546,-859.26 2774.95,-859.26 2822.12,-935.31 3046,-983.26 3207.2,-1017.78 3246.15,-1049.26 3411,-1049.26 3411,-1049.26 3411,-1049.26 4401,-1049.26 4488.34,-1049.26 4403.5,-878.2 4476.71,-864.17"/>
<polygon fill="red" stroke="red" points="4477.35,-867.63 4487,-863.26 4476.73,-860.66 4477.35,-867.63"/>
</g>
<!-- CustomAttributeArgument&#45;&gt;TypeDefinition -->
<g id="0" class="edge">
<title>CustomAttributeArgument:f3&#45;&gt;TypeDefinition:f0</title>
<path fill="none" stroke="blue" d="M1938,-720.26C1946.66,-720.26 2044.23,-642.86 2075.82,-622.91"/>
<polygon fill="blue" stroke="blue" points="2077.66,-625.9 2085,-618.26 2074.5,-619.65 2077.66,-625.9"/>
</g>
</g>
</svg>
