<?xml version="1.0" encoding="UTF-8" standalone="no"?>
<!DOCTYPE svg PUBLIC "-//W3C//DTD SVG 1.1//EN"
 "http://www.w3.org/Graphics/SVG/1.1/DTD/svg11.dtd">
<!-- Generated by graphviz version 2.43.0 (0)
 -->
<!-- Title: MOSA Runtime Tables Pages: 1 -->
<svg width="4752pt" height="1189pt"
 viewBox="0.00 0.00 4752.00 1189.40" xmlns="http://www.w3.org/2000/svg" xmlns:xlink="http://www.w3.org/1999/xlink">
<g id="graph0" class="graph" transform="scale(1 1) rotate(0) translate(4 1185.4)">
<title>MOSA Runtime Tables</title>
<polygon fill="white" stroke="transparent" points="-4,4 -4,-1185.4 4748,-1185.4 4748,4 -4,4"/>
<!-- Key -->
<g id="node1" class="node">
<title>Key</title>
<polygon fill="none" stroke="black" points="0,-748.4 0,-818.4 296,-818.4 296,-748.4 0,-748.4"/>
<text text-anchor="middle" x="148" y="-801.6" font-family="Times,serif" font-size="16.00">Key</text>
<polyline fill="none" stroke="black" points="0,-792.4 296,-792.4 "/>
<text text-anchor="middle" x="148" y="-775.6" font-family="Times,serif" font-size="16.00">~ Denotes field may be zero filled</text>
<text text-anchor="middle" x="148" y="-757.6" font-family="Times,serif" font-size="16.00">due to no value being available.</text>
</g>
<!-- NameString -->
<g id="node2" class="node">
<title>NameString</title>
<polygon fill="none" stroke="red" points="4502.5,-802.4 4502.5,-932.4 4719.5,-932.4 4719.5,-802.4 4502.5,-802.4"/>
<text text-anchor="middle" x="4611" y="-915.6" font-family="Times,serif" font-size="16.00">String Object</text>
<polyline fill="none" stroke="red" points="4502.5,-906.4 4719.5,-906.4 "/>
<text text-anchor="middle" x="4611" y="-889.6" font-family="Times,serif" font-size="16.00">Object Header</text>
<polyline fill="none" stroke="red" points="4502.5,-880.4 4719.5,-880.4 "/>
<text text-anchor="middle" x="4611" y="-863.6" font-family="Times,serif" font-size="16.00">Pointer to Method Table</text>
<polyline fill="none" stroke="red" points="4502.5,-854.4 4719.5,-854.4 "/>
<text text-anchor="middle" x="4611" y="-837.6" font-family="Times,serif" font-size="16.00">String Length</text>
<polyline fill="none" stroke="red" points="4502.5,-828.4 4719.5,-828.4 "/>
<text text-anchor="middle" x="4611" y="-811.6" font-family="Times,serif" font-size="16.00">Unicode String</text>
</g>
<!-- AssemblyListTable -->
<g id="node3" class="node">
<title>AssemblyListTable</title>
<polygon fill="none" stroke="black" points="47,-837.4 47,-967.4 249,-967.4 249,-837.4 47,-837.4"/>
<text text-anchor="middle" x="148" y="-950.6" font-family="Times,serif" font-size="16.00">Assembly Table</text>
<polyline fill="none" stroke="black" points="47,-941.4 249,-941.4 "/>
<text text-anchor="middle" x="148" y="-924.6" font-family="Times,serif" font-size="16.00">Number of Assemblies</text>
<polyline fill="none" stroke="black" points="47,-915.4 249,-915.4 "/>
<text text-anchor="middle" x="148" y="-898.6" font-family="Times,serif" font-size="16.00">Pointer to Assembly 1</text>
<polyline fill="none" stroke="black" points="47,-889.4 249,-889.4 "/>
<text text-anchor="middle" x="148" y="-872.6" font-family="Times,serif" font-size="16.00">..</text>
<polyline fill="none" stroke="black" points="47,-863.4 249,-863.4 "/>
<text text-anchor="middle" x="148" y="-846.6" font-family="Times,serif" font-size="16.00">Pointer to Assembly N</text>
</g>
<!-- AssemblyDefinition -->
<g id="node4" class="node">
<title>AssemblyDefinition</title>
<polygon fill="none" stroke="black" points="443,-707.4 443,-915.4 710,-915.4 710,-707.4 443,-707.4"/>
<text text-anchor="middle" x="576.5" y="-898.6" font-family="Times,serif" font-size="16.00">Assembly</text>
<polyline fill="none" stroke="black" points="443,-889.4 710,-889.4 "/>
<text text-anchor="middle" x="576.5" y="-872.6" font-family="Times,serif" font-size="16.00">Pointer to Assembly Name</text>
<polyline fill="none" stroke="black" points="443,-863.4 710,-863.4 "/>
<text text-anchor="middle" x="576.5" y="-846.6" font-family="Times,serif" font-size="16.00">~Pointer to Custom Attributes</text>
<polyline fill="none" stroke="black" points="443,-837.4 710,-837.4 "/>
<text text-anchor="middle" x="576.5" y="-820.6" font-family="Times,serif" font-size="16.00">Flags: IsReflectionOnly</text>
<polyline fill="none" stroke="black" points="443,-811.4 710,-811.4 "/>
<text text-anchor="middle" x="576.5" y="-794.6" font-family="Times,serif" font-size="16.00">Number of Types</text>
<polyline fill="none" stroke="black" points="443,-785.4 710,-785.4 "/>
<text text-anchor="middle" x="576.5" y="-768.6" font-family="Times,serif" font-size="16.00">Pointer to Type Definition 1</text>
<polyline fill="none" stroke="black" points="443,-759.4 710,-759.4 "/>
<text text-anchor="middle" x="576.5" y="-742.6" font-family="Times,serif" font-size="16.00">...</text>
<polyline fill="none" stroke="black" points="443,-733.4 710,-733.4 "/>
<text text-anchor="middle" x="576.5" y="-716.6" font-family="Times,serif" font-size="16.00">Pointer to Type Definition N</text>
</g>
<!-- AssemblyListTable&#45;&gt;AssemblyDefinition -->
<g id="0" class="edge">
<title>AssemblyListTable:f2&#45;&gt;AssemblyDefinition:f0</title>
<path fill="none" stroke="black" d="M250,-902.4C332.26,-902.4 355.35,-902.4 432.76,-902.4"/>
<polygon fill="black" stroke="black" points="433,-905.9 443,-902.4 433,-898.9 433,-905.9"/>
</g>
<!-- AssemblyDefinition&#45;&gt;NameString -->
<g id="0" class="edge">
<title>AssemblyDefinition:f1&#45;&gt;NameString:f0</title>
<path fill="none" stroke="red" d="M710,-876.4C849.38,-876.4 643.62,-1181.4 783,-1181.4 783,-1181.4 783,-1181.4 4405,-1181.4 4525.38,-1181.4 4385.66,-934.52 4490.8,-920.06"/>
<polygon fill="red" stroke="red" points="4491.25,-923.54 4501,-919.4 4490.79,-916.55 4491.25,-923.54"/>
</g>
<!-- CustomAttributesTable -->
<g id="node5" class="node">
<title>CustomAttributesTable</title>
<polygon fill="none" stroke="black" points="857,-892.4 857,-1022.4 1122,-1022.4 1122,-892.4 857,-892.4"/>
<text text-anchor="middle" x="989.5" y="-1005.6" font-family="Times,serif" font-size="16.00">Custom Attributes Table</text>
<polyline fill="none" stroke="black" points="857,-996.4 1122,-996.4 "/>
<text text-anchor="middle" x="989.5" y="-979.6" font-family="Times,serif" font-size="16.00">Number of Attributes</text>
<polyline fill="none" stroke="black" points="857,-970.4 1122,-970.4 "/>
<text text-anchor="middle" x="989.5" y="-953.6" font-family="Times,serif" font-size="16.00">Pointer to Custom Attribute 1</text>
<polyline fill="none" stroke="black" points="857,-944.4 1122,-944.4 "/>
<text text-anchor="middle" x="989.5" y="-927.6" font-family="Times,serif" font-size="16.00">...</text>
<polyline fill="none" stroke="black" points="857,-918.4 1122,-918.4 "/>
<text text-anchor="middle" x="989.5" y="-901.6" font-family="Times,serif" font-size="16.00">Pointer to Custom Attribute N</text>
</g>
<!-- AssemblyDefinition&#45;&gt;CustomAttributesTable -->
<g id="0" class="edge">
<title>AssemblyDefinition:f2&#45;&gt;CustomAttributesTable:f0</title>
<path fill="none" stroke="black" d="M710,-850.4C802.67,-850.4 763.94,-997.82 846.86,-1008.76"/>
<polygon fill="black" stroke="black" points="846.8,-1012.26 857,-1009.4 847.24,-1005.27 846.8,-1012.26"/>
</g>
<!-- TypeDefinition -->
<g id="node6" class="node">
<title>TypeDefinition</title>
<polygon fill="none" stroke="blue" points="2085,-205.4 2085,-769.4 2435,-769.4 2435,-205.4 2085,-205.4"/>
<text text-anchor="middle" x="2260" y="-752.6" font-family="Times,serif" font-size="16.00">Type Definition</text>
<text text-anchor="middle" x="2260" y="-734.6" font-family="Times,serif" font-size="16.00">(contains Method Table)</text>
<polyline fill="none" stroke="blue" points="2085,-725.4 2435,-725.4 "/>
<text text-anchor="middle" x="2260" y="-708.6" font-family="Times,serif" font-size="16.00">Pointer to Type Name</text>
<polyline fill="none" stroke="blue" points="2085,-699.4 2435,-699.4 "/>
<text text-anchor="middle" x="2260" y="-682.6" font-family="Times,serif" font-size="16.00">~Pointer to Custom Attributes</text>
<polyline fill="none" stroke="blue" points="2085,-673.4 2435,-673.4 "/>
<text text-anchor="middle" x="2260" y="-656.6" font-family="Times,serif" font-size="16.00">Type Code &amp; Attributes</text>
<polyline fill="none" stroke="blue" points="2085,-647.4 2435,-647.4 "/>
<text text-anchor="middle" x="2260" y="-630.6" font-family="Times,serif" font-size="16.00">Type Size</text>
<polyline fill="none" stroke="blue" points="2085,-621.4 2435,-621.4 "/>
<text text-anchor="middle" x="2260" y="-604.6" font-family="Times,serif" font-size="16.00">Pointer to Assembly</text>
<polyline fill="none" stroke="blue" points="2085,-595.4 2435,-595.4 "/>
<text text-anchor="middle" x="2260" y="-578.6" font-family="Times,serif" font-size="16.00">~Pointer to Parent Type</text>
<polyline fill="none" stroke="blue" points="2085,-569.4 2435,-569.4 "/>
<text text-anchor="middle" x="2260" y="-552.6" font-family="Times,serif" font-size="16.00">~Pointer to Declaring Type</text>
<polyline fill="none" stroke="blue" points="2085,-543.4 2435,-543.4 "/>
<text text-anchor="middle" x="2260" y="-526.6" font-family="Times,serif" font-size="16.00">~Pointer to Element Type</text>
<polyline fill="none" stroke="blue" points="2085,-517.4 2435,-517.4 "/>
<text text-anchor="middle" x="2260" y="-500.6" font-family="Times,serif" font-size="16.00">~Pointer to Default Constructor Method</text>
<polyline fill="none" stroke="blue" points="2085,-491.4 2435,-491.4 "/>
<text text-anchor="middle" x="2260" y="-474.6" font-family="Times,serif" font-size="16.00">~Pointer to Properties Table</text>
<polyline fill="none" stroke="blue" points="2085,-465.4 2435,-465.4 "/>
<text text-anchor="middle" x="2260" y="-448.6" font-family="Times,serif" font-size="16.00">~Pointer to Fields Table</text>
<polyline fill="none" stroke="blue" points="2085,-439.4 2435,-439.4 "/>
<text text-anchor="middle" x="2260" y="-422.6" font-family="Times,serif" font-size="16.00">~Pointer to Interface Slot Table</text>
<polyline fill="none" stroke="blue" points="2085,-413.4 2435,-413.4 "/>
<text text-anchor="middle" x="2260" y="-396.6" font-family="Times,serif" font-size="16.00">~Pointer to Interface Bitmap</text>
<polyline fill="none" stroke="blue" points="2085,-387.4 2435,-387.4 "/>
<text text-anchor="middle" x="2260" y="-370.6" font-family="Times,serif" font-size="16.00">Number of Methods</text>
<polyline fill="none" stroke="blue" points="2085,-361.4 2435,-361.4 "/>
<text text-anchor="middle" x="2260" y="-344.6" font-family="Times,serif" font-size="16.00">Pointer to Method 1</text>
<polyline fill="none" stroke="blue" points="2085,-335.4 2435,-335.4 "/>
<text text-anchor="middle" x="2260" y="-318.6" font-family="Times,serif" font-size="16.00">...</text>
<polyline fill="none" stroke="blue" points="2085,-309.4 2435,-309.4 "/>
<text text-anchor="middle" x="2260" y="-292.6" font-family="Times,serif" font-size="16.00">Pointer to Method N</text>
<polyline fill="none" stroke="blue" points="2085,-283.4 2435,-283.4 "/>
<text text-anchor="middle" x="2260" y="-266.6" font-family="Times,serif" font-size="16.00">Pointer to Method Definition 1</text>
<polyline fill="none" stroke="blue" points="2085,-257.4 2435,-257.4 "/>
<text text-anchor="middle" x="2260" y="-240.6" font-family="Times,serif" font-size="16.00">...</text>
<polyline fill="none" stroke="blue" points="2085,-231.4 2435,-231.4 "/>
<text text-anchor="middle" x="2260" y="-214.6" font-family="Times,serif" font-size="16.00">Pointer to Method Definition N</text>
</g>
<!-- AssemblyDefinition&#45;&gt;TypeDefinition -->
<g id="0" class="edge">
<title>AssemblyDefinition:f5&#45;&gt;TypeDefinition:f0</title>
<path fill="none" stroke="blue" d="M710,-772.4C802.54,-772.4 690.46,-577.4 783,-577.4 783,-577.4 783,-577.4 1233,-577.4 1369.26,-577.4 1404.61,-573.89 1539,-596.4 1598.41,-606.35 1986.54,-735.56 2074.96,-746.64"/>
<polygon fill="blue" stroke="blue" points="2074.77,-750.14 2085,-747.4 2075.29,-743.16 2074.77,-750.14"/>
</g>
<!-- CustomAttribute -->
<g id="node20" class="node">
<title>CustomAttribute</title>
<polygon fill="none" stroke="black" points="1269,-606.4 1269,-788.4 1539,-788.4 1539,-606.4 1269,-606.4"/>
<text text-anchor="middle" x="1404" y="-771.6" font-family="Times,serif" font-size="16.00">Custom Attribute</text>
<polyline fill="none" stroke="black" points="1269,-762.4 1539,-762.4 "/>
<text text-anchor="middle" x="1404" y="-745.6" font-family="Times,serif" font-size="16.00">Pointer to Attribute Type</text>
<polyline fill="none" stroke="black" points="1269,-736.4 1539,-736.4 "/>
<text text-anchor="middle" x="1404" y="-719.6" font-family="Times,serif" font-size="16.00">Pointer to Constructor Method</text>
<polyline fill="none" stroke="black" points="1269,-710.4 1539,-710.4 "/>
<text text-anchor="middle" x="1404" y="-693.6" font-family="Times,serif" font-size="16.00">Number of Arguments</text>
<polyline fill="none" stroke="black" points="1269,-684.4 1539,-684.4 "/>
<text text-anchor="middle" x="1404" y="-667.6" font-family="Times,serif" font-size="16.00">Pointer to Argument 1</text>
<polyline fill="none" stroke="black" points="1269,-658.4 1539,-658.4 "/>
<text text-anchor="middle" x="1404" y="-641.6" font-family="Times,serif" font-size="16.00">...</text>
<polyline fill="none" stroke="black" points="1269,-632.4 1539,-632.4 "/>
<text text-anchor="middle" x="1404" y="-615.6" font-family="Times,serif" font-size="16.00">Pointer to Argument N</text>
</g>
<!-- CustomAttributesTable&#45;&gt;CustomAttribute -->
<g id="0" class="edge">
<title>CustomAttributesTable:f2&#45;&gt;CustomAttribute:f0</title>
<path fill="none" stroke="black" d="M1122,-957.4C1175.98,-957.4 1124.58,-883.79 1158,-841.4 1191.38,-799.06 1209.35,-778.02 1258.99,-775.63"/>
<polygon fill="black" stroke="black" points="1259.08,-779.13 1269,-775.4 1258.92,-772.13 1259.08,-779.13"/>
</g>
<!-- TypeDefinition&#45;&gt;NameString -->
<g id="0" class="edge">
<title>TypeDefinition:f1&#45;&gt;NameString:f0</title>
<path fill="none" stroke="red" d="M2435,-712.4C2482.81,-712.4 2460.19,-633.4 2508,-633.4 2508,-633.4 2508,-633.4 2546,-633.4 2704.92,-633.4 2763.33,-607.64 2899,-690.4 2945.67,-718.87 2917.33,-789.4 2972,-789.4 2972,-789.4 2972,-789.4 4405,-789.4 4473.18,-789.4 4433.71,-906.53 4490.95,-918.43"/>
<polygon fill="red" stroke="red" points="4490.71,-921.92 4501,-919.4 4491.38,-914.95 4490.71,-921.92"/>
</g>
<!-- TypeDefinition&#45;&gt;AssemblyDefinition -->
<g id="0" class="edge">
<title>TypeDefinition:f5&#45;&gt;AssemblyDefinition:f0</title>
<path fill="none" stroke="black" d="M2085,-608.4C1904.56,-608.4 1841.26,-591.46 1686,-683.4 1619.7,-722.66 1653.05,-817.4 1576,-817.4 783,-817.4 783,-817.4 783,-817.4 758.78,-817.4 761.8,-839.04 746,-857.4 731.9,-873.78 734.2,-894.55 719.88,-900.65"/>
<polygon fill="black" stroke="black" points="719.23,-897.2 710,-902.4 720.46,-904.1 719.23,-897.2"/>
</g>
<!-- TypeDefinition&#45;&gt;CustomAttributesTable -->
<g id="0" class="edge">
<title>TypeDefinition:f2&#45;&gt;CustomAttributesTable:f0</title>
<path fill="none" stroke="black" d="M2085,-686.4C1904.64,-686.4 1846.19,-677.52 1686,-760.4 1675.95,-765.6 1621.84,-824.34 1613,-831.4 1597.68,-843.62 1595.6,-855.4 1576,-855.4 1195,-855.4 1195,-855.4 1195,-855.4 1122.95,-855.4 1190.45,-994.73 1132.03,-1008.33"/>
<polygon fill="black" stroke="black" points="1131.57,-1004.86 1122,-1009.4 1132.31,-1011.82 1131.57,-1004.86"/>
</g>
<!-- TypeDefinition&#45;&gt;TypeDefinition -->
<g id="0" class="edge">
<title>TypeDefinition:f6&#45;&gt;TypeDefinition:f0</title>
<path fill="none" stroke="blue" d="M2085,-585.96C2026.67,-596.27 1980,-619.15 1980,-664.9 1980,-707.97 2021.36,-730.76 2074.87,-741.89"/>
<polygon fill="blue" stroke="blue" points="2074.52,-745.39 2085,-743.84 2075.84,-738.51 2074.52,-745.39"/>
</g>
<!-- MethodDefinition -->
<g id="node7" class="node">
<title>MethodDefinition</title>
<polygon fill="none" stroke="purple" points="3522,-186.4 3522,-524.4 3832,-524.4 3832,-186.4 3522,-186.4"/>
<text text-anchor="middle" x="3677" y="-507.6" font-family="Times,serif" font-size="16.00">Method Definition</text>
<polyline fill="none" stroke="purple" points="3522,-498.4 3832,-498.4 "/>
<text text-anchor="middle" x="3677" y="-481.6" font-family="Times,serif" font-size="16.00">Pointer to Method Name</text>
<polyline fill="none" stroke="purple" points="3522,-472.4 3832,-472.4 "/>
<text text-anchor="middle" x="3677" y="-455.6" font-family="Times,serif" font-size="16.00">~Pointer to Custom Attributes</text>
<polyline fill="none" stroke="purple" points="3522,-446.4 3832,-446.4 "/>
<text text-anchor="middle" x="3677" y="-429.6" font-family="Times,serif" font-size="16.00">Method Attributes</text>
<polyline fill="none" stroke="purple" points="3522,-420.4 3832,-420.4 "/>
<text text-anchor="middle" x="3677" y="-403.6" font-family="Times,serif" font-size="16.00">Local &amp; Parameter Stack Size</text>
<polyline fill="none" stroke="purple" points="3522,-394.4 3832,-394.4 "/>
<text text-anchor="middle" x="3677" y="-377.6" font-family="Times,serif" font-size="16.00">Pointer to Method</text>
<polyline fill="none" stroke="purple" points="3522,-368.4 3832,-368.4 "/>
<text text-anchor="middle" x="3677" y="-351.6" font-family="Times,serif" font-size="16.00">Pointer to Return Type Definition</text>
<polyline fill="none" stroke="purple" points="3522,-342.4 3832,-342.4 "/>
<text text-anchor="middle" x="3677" y="-325.6" font-family="Times,serif" font-size="16.00">~Pointer to Protected Region Table</text>
<polyline fill="none" stroke="purple" points="3522,-316.4 3832,-316.4 "/>
<text text-anchor="middle" x="3677" y="-299.6" font-family="Times,serif" font-size="16.00">Pointer to SafePoint Table</text>
<polyline fill="none" stroke="purple" points="3522,-290.4 3832,-290.4 "/>
<text text-anchor="middle" x="3677" y="-273.6" font-family="Times,serif" font-size="16.00">Number of Parameters</text>
<polyline fill="none" stroke="purple" points="3522,-264.4 3832,-264.4 "/>
<text text-anchor="middle" x="3677" y="-247.6" font-family="Times,serif" font-size="16.00">Pointer to Parameter Definition 1</text>
<polyline fill="none" stroke="purple" points="3522,-238.4 3832,-238.4 "/>
<text text-anchor="middle" x="3677" y="-221.6" font-family="Times,serif" font-size="16.00">...</text>
<polyline fill="none" stroke="purple" points="3522,-212.4 3832,-212.4 "/>
<text text-anchor="middle" x="3677" y="-195.6" font-family="Times,serif" font-size="16.00">Pointer to Parameter Definition N</text>
</g>
<!-- TypeDefinition&#45;&gt;MethodDefinition -->
<g id="0" class="edge">
<title>TypeDefinition:f9&#45;&gt;MethodDefinition:f0</title>
<path fill="none" stroke="purple" d="M2435,-504.4C2468.12,-504.4 2474.88,-519.4 2508,-519.4 2508,-519.4 2508,-519.4 2546,-519.4 2752.21,-519.4 2802.79,-549.4 3009,-549.4 3009,-549.4 3009,-549.4 3449,-549.4 3481.86,-549.4 3485.08,-518.72 3511.92,-512.49"/>
<polygon fill="purple" stroke="purple" points="3512.44,-515.96 3522,-511.4 3511.68,-509 3512.44,-515.96"/>
</g>
<!-- TypeDefinition&#45;&gt;MethodDefinition -->
<g id="0" class="edge">
<title>TypeDefinition:f16&#45;&gt;MethodDefinition:f0</title>
<path fill="none" stroke="black" d="M2435,-270.4C2485.14,-270.4 2457.86,-184.4 2508,-184.4 2508,-184.4 2508,-184.4 2546,-184.4 2703.09,-184.4 2751.72,-147.75 2899,-202.4 2976.51,-231.16 2969.45,-285.17 3046,-316.4 3182.29,-371.99 3243.54,-288.18 3375,-354.4 3414.77,-374.43 3466.54,-493.41 3512.08,-509.58"/>
<polygon fill="black" stroke="black" points="3511.53,-513.04 3522,-511.4 3512.8,-506.15 3511.53,-513.04"/>
</g>
<!-- PropertiesTable -->
<g id="node8" class="node">
<title>PropertiesTable</title>
<polygon fill="none" stroke="black" points="2600.5,-361.4 2600.5,-491.4 2880.5,-491.4 2880.5,-361.4 2600.5,-361.4"/>
<text text-anchor="middle" x="2740.5" y="-474.6" font-family="Times,serif" font-size="16.00">Properties Table</text>
<polyline fill="none" stroke="black" points="2600.5,-465.4 2880.5,-465.4 "/>
<text text-anchor="middle" x="2740.5" y="-448.6" font-family="Times,serif" font-size="16.00">Number of Properties</text>
<polyline fill="none" stroke="black" points="2600.5,-439.4 2880.5,-439.4 "/>
<text text-anchor="middle" x="2740.5" y="-422.6" font-family="Times,serif" font-size="16.00">Pointer to Property Definition 1</text>
<polyline fill="none" stroke="black" points="2600.5,-413.4 2880.5,-413.4 "/>
<text text-anchor="middle" x="2740.5" y="-396.6" font-family="Times,serif" font-size="16.00">...</text>
<polyline fill="none" stroke="black" points="2600.5,-387.4 2880.5,-387.4 "/>
<text text-anchor="middle" x="2740.5" y="-370.6" font-family="Times,serif" font-size="16.00">Pointer to Property Definition N</text>
</g>
<!-- TypeDefinition&#45;&gt;PropertiesTable -->
<g id="0" class="edge">
<title>TypeDefinition:f10&#45;&gt;PropertiesTable:f0</title>
<path fill="none" stroke="black" d="M2435,-478.4C2504.54,-478.4 2524.47,-478.4 2589.17,-478.4"/>
<polygon fill="black" stroke="black" points="2589.5,-481.9 2599.5,-478.4 2589.5,-474.9 2589.5,-481.9"/>
</g>
<!-- FieldsTable -->
<g id="node9" class="node">
<title>FieldsTable</title>
<polygon fill="none" stroke="black" points="2615,-699.4 2615,-829.4 2866,-829.4 2866,-699.4 2615,-699.4"/>
<text text-anchor="middle" x="2740.5" y="-812.6" font-family="Times,serif" font-size="16.00">Fields Table</text>
<polyline fill="none" stroke="black" points="2615,-803.4 2866,-803.4 "/>
<text text-anchor="middle" x="2740.5" y="-786.6" font-family="Times,serif" font-size="16.00">Number of Fields</text>
<polyline fill="none" stroke="black" points="2615,-777.4 2866,-777.4 "/>
<text text-anchor="middle" x="2740.5" y="-760.6" font-family="Times,serif" font-size="16.00">Pointer to Field Definition 1</text>
<polyline fill="none" stroke="black" points="2615,-751.4 2866,-751.4 "/>
<text text-anchor="middle" x="2740.5" y="-734.6" font-family="Times,serif" font-size="16.00">...</text>
<polyline fill="none" stroke="black" points="2615,-725.4 2866,-725.4 "/>
<text text-anchor="middle" x="2740.5" y="-708.6" font-family="Times,serif" font-size="16.00">Pointer to Field Definition N</text>
</g>
<!-- TypeDefinition&#45;&gt;FieldsTable -->
<g id="0" class="edge">
<title>TypeDefinition:f11&#45;&gt;FieldsTable:f0</title>
<path fill="none" stroke="black" d="M2435,-452.4C2487.39,-452.4 2446.33,-639.18 2471,-685.4 2509.85,-758.18 2526.12,-811.84 2603.26,-816.12"/>
<polygon fill="black" stroke="black" points="2603.41,-819.63 2613.5,-816.4 2603.6,-812.63 2603.41,-819.63"/>
</g>
<!-- InterfaceSlotTable -->
<g id="node10" class="node">
<title>InterfaceSlotTable</title>
<polygon fill="none" stroke="black" points="2582,-212.4 2582,-342.4 2899,-342.4 2899,-212.4 2582,-212.4"/>
<text text-anchor="middle" x="2740.5" y="-325.6" font-family="Times,serif" font-size="16.00">Interface Slot Table</text>
<polyline fill="none" stroke="black" points="2582,-316.4 2899,-316.4 "/>
<text text-anchor="middle" x="2740.5" y="-299.6" font-family="Times,serif" font-size="16.00">Number of Interface Method Tables</text>
<polyline fill="none" stroke="black" points="2582,-290.4 2899,-290.4 "/>
<text text-anchor="middle" x="2740.5" y="-273.6" font-family="Times,serif" font-size="16.00">Pointer to Interface Method Table 1</text>
<polyline fill="none" stroke="black" points="2582,-264.4 2899,-264.4 "/>
<text text-anchor="middle" x="2740.5" y="-247.6" font-family="Times,serif" font-size="16.00">...</text>
<polyline fill="none" stroke="black" points="2582,-238.4 2899,-238.4 "/>
<text text-anchor="middle" x="2740.5" y="-221.6" font-family="Times,serif" font-size="16.00">Pointer to Interface Method Table N</text>
</g>
<!-- TypeDefinition&#45;&gt;InterfaceSlotTable -->
<g id="0" class="edge">
<title>TypeDefinition:f12&#45;&gt;InterfaceSlotTable:f0</title>
<path fill="none" stroke="black" d="M2435,-426.4C2509.76,-426.4 2504.41,-337.92 2571.97,-329.97"/>
<polygon fill="black" stroke="black" points="2572.21,-333.46 2582,-329.4 2571.82,-326.47 2572.21,-333.46"/>
</g>
<!-- MethodDefinition&#45;&gt;NameString -->
<g id="0" class="edge">
<title>MethodDefinition:f1&#45;&gt;NameString:f0</title>
<path fill="none" stroke="red" d="M3832,-485.4C3885.25,-485.4 3851.75,-580.4 3905,-580.4 3905,-580.4 3905,-580.4 4405,-580.4 4479.63,-580.4 4428.08,-888.36 4490.88,-917.23"/>
<polygon fill="red" stroke="red" points="4490.49,-920.73 4501,-919.4 4491.95,-913.88 4490.49,-920.73"/>
</g>
<!-- MethodDefinition&#45;&gt;CustomAttributesTable -->
<g id="0" class="edge">
<title>MethodDefinition:f2&#45;&gt;CustomAttributesTable:f0</title>
<path fill="none" stroke="black" d="M3522,-459.4C3268.55,-459.4 3560.92,-838.14 3375,-1010.4 3241.68,-1133.92 3154.75,-1085.4 2973,-1085.4 2935,-1085.4 2935,-1085.4 2935,-1085.4 2744.91,-1085.4 2699.09,-1047.4 2509,-1047.4 1195,-1047.4 1195,-1047.4 1195,-1047.4 1162.14,-1047.4 1158.92,-1016.72 1132.08,-1010.49"/>
<polygon fill="black" stroke="black" points="1132.32,-1007 1122,-1009.4 1131.56,-1013.96 1132.32,-1007"/>
</g>
<!-- MethodDefinition&#45;&gt;TypeDefinition -->
<g id="0" class="edge">
<title>MethodDefinition:f6&#45;&gt;TypeDefinition:f0</title>
<path fill="none" stroke="blue" d="M3522,-355.4C3439.54,-355.4 3532.24,-241.67 3486,-173.4 3475.01,-157.17 3468.6,-149.4 3449,-149.4 3411,-149.4 3411,-149.4 3411,-149.4 3329.79,-149.4 3110.56,-118.13 3046,-167.4 2894.1,-283.31 3059.85,-468.26 2899,-571.4 2766.63,-656.28 2703.25,-595.4 2546,-595.4 2508,-595.4 2508,-595.4 2508,-595.4 2488.4,-595.4 2482.62,-603.62 2471,-619.4 2438.22,-663.92 2486.99,-737.17 2445.02,-746.43"/>
<polygon fill="blue" stroke="blue" points="2444.62,-742.95 2435,-747.4 2445.29,-749.92 2444.62,-742.95"/>
</g>
<!-- ProtectedRegionTable -->
<g id="node14" class="node">
<title>ProtectedRegionTable</title>
<polygon fill="none" stroke="black" points="3979,-176.4 3979,-306.4 4331,-306.4 4331,-176.4 3979,-176.4"/>
<text text-anchor="middle" x="4155" y="-289.6" font-family="Times,serif" font-size="16.00">Protected Region Table</text>
<polyline fill="none" stroke="black" points="3979,-280.4 4331,-280.4 "/>
<text text-anchor="middle" x="4155" y="-263.6" font-family="Times,serif" font-size="16.00">Number of Regions</text>
<polyline fill="none" stroke="black" points="3979,-254.4 4331,-254.4 "/>
<text text-anchor="middle" x="4155" y="-237.6" font-family="Times,serif" font-size="16.00">Pointer to Protected Region Definition 1</text>
<polyline fill="none" stroke="black" points="3979,-228.4 4331,-228.4 "/>
<text text-anchor="middle" x="4155" y="-211.6" font-family="Times,serif" font-size="16.00">...</text>
<polyline fill="none" stroke="black" points="3979,-202.4 4331,-202.4 "/>
<text text-anchor="middle" x="4155" y="-185.6" font-family="Times,serif" font-size="16.00">Pointer to Protected Region Definition N</text>
</g>
<!-- MethodDefinition&#45;&gt;ProtectedRegionTable -->
<g id="0" class="edge">
<title>MethodDefinition:f7&#45;&gt;ProtectedRegionTable:f0</title>
<path fill="none" stroke="black" d="M3832,-329.4C3895.72,-329.4 3910.27,-297.09 3968.8,-293.69"/>
<polygon fill="black" stroke="black" points="3969.1,-297.18 3979,-293.4 3968.9,-290.18 3969.1,-297.18"/>
</g>
<!-- SafePointTable -->
<g id="node17" class="node">
<title>SafePointTable</title>
<polygon fill="none" stroke="black" points="4056.5,-325.4 4056.5,-455.4 4253.5,-455.4 4253.5,-325.4 4056.5,-325.4"/>
<text text-anchor="middle" x="4155" y="-438.6" font-family="Times,serif" font-size="16.00">SafePoint Table</text>
<polyline fill="none" stroke="black" points="4056.5,-429.4 4253.5,-429.4 "/>
<text text-anchor="middle" x="4155" y="-412.6" font-family="Times,serif" font-size="16.00">Number of SafePoints</text>
<polyline fill="none" stroke="black" points="4056.5,-403.4 4253.5,-403.4 "/>
<text text-anchor="middle" x="4155" y="-386.6" font-family="Times,serif" font-size="16.00">SafePoint 1</text>
<polyline fill="none" stroke="black" points="4056.5,-377.4 4253.5,-377.4 "/>
<text text-anchor="middle" x="4155" y="-360.6" font-family="Times,serif" font-size="16.00">..</text>
<polyline fill="none" stroke="black" points="4056.5,-351.4 4253.5,-351.4 "/>
<text text-anchor="middle" x="4155" y="-334.6" font-family="Times,serif" font-size="16.00">SafePoint N</text>
</g>
<!-- MethodDefinition&#45;&gt;SafePointTable -->
<g id="0" class="edge">
<title>MethodDefinition:f8&#45;&gt;SafePointTable:f0</title>
<path fill="none" stroke="black" d="M3832,-303.4C3945.25,-303.4 3938.74,-434.11 4044.74,-442.02"/>
<polygon fill="black" stroke="black" points="4044.88,-445.53 4055,-442.4 4045.13,-438.54 4044.88,-445.53"/>
</g>
<!-- ParameterDefinition -->
<g id="node18" class="node">
<title>ParameterDefinition</title>
<polygon fill="none" stroke="black" points="4021.5,-947.4 4021.5,-1077.4 4288.5,-1077.4 4288.5,-947.4 4021.5,-947.4"/>
<text text-anchor="middle" x="4155" y="-1060.6" font-family="Times,serif" font-size="16.00">Parameter Definition</text>
<polyline fill="none" stroke="black" points="4021.5,-1051.4 4288.5,-1051.4 "/>
<text text-anchor="middle" x="4155" y="-1034.6" font-family="Times,serif" font-size="16.00">Pointer to Parameter Name</text>
<polyline fill="none" stroke="black" points="4021.5,-1025.4 4288.5,-1025.4 "/>
<text text-anchor="middle" x="4155" y="-1008.6" font-family="Times,serif" font-size="16.00">~Pointer to Custom Attributes</text>
<polyline fill="none" stroke="black" points="4021.5,-999.4 4288.5,-999.4 "/>
<text text-anchor="middle" x="4155" y="-982.6" font-family="Times,serif" font-size="16.00">Parameter Attributes</text>
<polyline fill="none" stroke="black" points="4021.5,-973.4 4288.5,-973.4 "/>
<text text-anchor="middle" x="4155" y="-956.6" font-family="Times,serif" font-size="16.00">Pointer to Parameter Type</text>
</g>
<!-- MethodDefinition&#45;&gt;ParameterDefinition -->
<g id="0" class="edge">
<title>MethodDefinition:f10&#45;&gt;ParameterDefinition:f0</title>
<path fill="none" stroke="black" d="M3832,-251.4C3870.32,-251.4 3860.06,-556.91 3868,-594.4 3890.03,-698.43 3909.01,-1041.98 4009.97,-1063.35"/>
<polygon fill="black" stroke="black" points="4009.69,-1066.84 4020,-1064.4 4010.42,-1059.88 4009.69,-1066.84"/>
</g>
<!-- PropertyDefinition -->
<g id="node12" class="node">
<title>PropertyDefinition</title>
<polygon fill="none" stroke="black" points="3046,-578.4 3046,-760.4 3375,-760.4 3375,-578.4 3046,-578.4"/>
<text text-anchor="middle" x="3210.5" y="-743.6" font-family="Times,serif" font-size="16.00">Property Definition</text>
<polyline fill="none" stroke="black" points="3046,-734.4 3375,-734.4 "/>
<text text-anchor="middle" x="3210.5" y="-717.6" font-family="Times,serif" font-size="16.00">Pointer to Property Name</text>
<polyline fill="none" stroke="black" points="3046,-708.4 3375,-708.4 "/>
<text text-anchor="middle" x="3210.5" y="-691.6" font-family="Times,serif" font-size="16.00">~Pointer to Custom Attributes</text>
<polyline fill="none" stroke="black" points="3046,-682.4 3375,-682.4 "/>
<text text-anchor="middle" x="3210.5" y="-665.6" font-family="Times,serif" font-size="16.00">Property Attributes</text>
<polyline fill="none" stroke="black" points="3046,-656.4 3375,-656.4 "/>
<text text-anchor="middle" x="3210.5" y="-639.6" font-family="Times,serif" font-size="16.00">Pointer to Property Type</text>
<polyline fill="none" stroke="black" points="3046,-630.4 3375,-630.4 "/>
<text text-anchor="middle" x="3210.5" y="-613.6" font-family="Times,serif" font-size="16.00">~Pointer to Getter Method Definition</text>
<polyline fill="none" stroke="black" points="3046,-604.4 3375,-604.4 "/>
<text text-anchor="middle" x="3210.5" y="-587.6" font-family="Times,serif" font-size="16.00">~Pointer to Setter Method Defiinition</text>
</g>
<!-- PropertiesTable&#45;&gt;PropertyDefinition -->
<g id="0" class="edge">
<title>PropertiesTable:f2&#45;&gt;PropertyDefinition:f0</title>
<path fill="none" stroke="black" d="M2880.88,-439.65C2942.47,-481.39 2966.29,-724.12 3035.87,-745.84"/>
<polygon fill="black" stroke="black" points="3035.58,-749.34 3046,-747.4 3036.65,-742.42 3035.58,-749.34"/>
</g>
<!-- FieldDefinition -->
<g id="node11" class="node">
<title>FieldDefinition</title>
<polygon fill="none" stroke="black" points="3077,-818.4 3077,-1000.4 3344,-1000.4 3344,-818.4 3077,-818.4"/>
<text text-anchor="middle" x="3210.5" y="-983.6" font-family="Times,serif" font-size="16.00">Field Definition</text>
<polyline fill="none" stroke="black" points="3077,-974.4 3344,-974.4 "/>
<text text-anchor="middle" x="3210.5" y="-957.6" font-family="Times,serif" font-size="16.00">Pointer to Field Name</text>
<polyline fill="none" stroke="black" points="3077,-948.4 3344,-948.4 "/>
<text text-anchor="middle" x="3210.5" y="-931.6" font-family="Times,serif" font-size="16.00">~Pointer to Custom Attributes</text>
<polyline fill="none" stroke="black" points="3077,-922.4 3344,-922.4 "/>
<text text-anchor="middle" x="3210.5" y="-905.6" font-family="Times,serif" font-size="16.00">Field Attributes</text>
<polyline fill="none" stroke="black" points="3077,-896.4 3344,-896.4 "/>
<text text-anchor="middle" x="3210.5" y="-879.6" font-family="Times,serif" font-size="16.00">Pointer to Field Type</text>
<polyline fill="none" stroke="black" points="3077,-870.4 3344,-870.4 "/>
<text text-anchor="middle" x="3210.5" y="-853.6" font-family="Times,serif" font-size="16.00">~Address</text>
<polyline fill="none" stroke="black" points="3077,-844.4 3344,-844.4 "/>
<text text-anchor="middle" x="3210.5" y="-827.6" font-family="Times,serif" font-size="16.00">Offset / Size</text>
</g>
<!-- FieldsTable&#45;&gt;FieldDefinition -->
<g id="0" class="edge">
<title>FieldsTable:f2&#45;&gt;FieldDefinition:f0</title>
<path fill="none" stroke="black" d="M2866.35,-777.56C2981.8,-832.94 2945.85,-979.4 3065.44,-987.08"/>
<polygon fill="black" stroke="black" points="3065.4,-990.58 3075.5,-987.4 3065.61,-983.59 3065.4,-990.58"/>
</g>
<!-- InterfaceMethodTable -->
<g id="node16" class="node">
<title>InterfaceMethodTable</title>
<polygon fill="none" stroke="black" points="3074.5,-364.4 3074.5,-520.4 3346.5,-520.4 3346.5,-364.4 3074.5,-364.4"/>
<text text-anchor="middle" x="3210.5" y="-503.6" font-family="Times,serif" font-size="16.00">Interface Method Table</text>
<polyline fill="none" stroke="black" points="3074.5,-494.4 3346.5,-494.4 "/>
<text text-anchor="middle" x="3210.5" y="-477.6" font-family="Times,serif" font-size="16.00">Pointer to Interface Type</text>
<polyline fill="none" stroke="black" points="3074.5,-468.4 3346.5,-468.4 "/>
<text text-anchor="middle" x="3210.5" y="-451.6" font-family="Times,serif" font-size="16.00">Number of Methods</text>
<polyline fill="none" stroke="black" points="3074.5,-442.4 3346.5,-442.4 "/>
<text text-anchor="middle" x="3210.5" y="-425.6" font-family="Times,serif" font-size="16.00">Pointer to Method Definition 1</text>
<polyline fill="none" stroke="black" points="3074.5,-416.4 3346.5,-416.4 "/>
<text text-anchor="middle" x="3210.5" y="-399.6" font-family="Times,serif" font-size="16.00">..</text>
<polyline fill="none" stroke="black" points="3074.5,-390.4 3346.5,-390.4 "/>
<text text-anchor="middle" x="3210.5" y="-373.6" font-family="Times,serif" font-size="16.00">Pointer to Method Definition N</text>
</g>
<!-- InterfaceSlotTable&#45;&gt;InterfaceMethodTable -->
<g id="0" class="edge">
<title>InterfaceSlotTable:f2&#45;&gt;InterfaceMethodTable:f0</title>
<path fill="none" stroke="black" d="M2899,-277.4C3023.8,-277.4 2949.52,-494.99 3063.44,-506.89"/>
<polygon fill="black" stroke="black" points="3063.34,-510.39 3073.5,-507.4 3063.69,-503.4 3063.34,-510.39"/>
</g>
<!-- FieldDefinition&#45;&gt;NameString -->
<g id="0" class="edge">
<title>FieldDefinition:f1&#45;&gt;NameString:f0</title>
<path fill="none" stroke="red" d="M3345.5,-961.4C3394.73,-961.4 3398.77,-919.4 3448,-919.4 3448,-919.4 3448,-919.4 4405,-919.4 4444,-919.4 4456.26,-919.4 4490.67,-919.4"/>
<polygon fill="red" stroke="red" points="4491,-922.9 4501,-919.4 4491,-915.9 4491,-922.9"/>
</g>
<!-- FieldDefinition&#45;&gt;CustomAttributesTable -->
<g id="0" class="edge">
<title>FieldDefinition:f2&#45;&gt;CustomAttributesTable:f0</title>
<path fill="none" stroke="black" d="M3075.5,-935.4C2987.85,-935.4 2982.47,-996.65 2899,-1023.4 2731.86,-1076.95 2684.51,-1085.4 2509,-1085.4 1195,-1085.4 1195,-1085.4 1195,-1085.4 1175.4,-1085.4 1172.07,-1075.05 1158,-1061.4 1140.82,-1044.73 1147.18,-1018.74 1132.09,-1011.39"/>
<polygon fill="black" stroke="black" points="1132.49,-1007.91 1122,-1009.4 1131.13,-1014.77 1132.49,-1007.91"/>
</g>
<!-- FieldDefinition&#45;&gt;TypeDefinition -->
<g id="0" class="edge">
<title>FieldDefinition:f4&#45;&gt;TypeDefinition:f0</title>
<path fill="none" stroke="blue" d="M3075.5,-883.4C3029.63,-883.4 3018.87,-895.4 2973,-895.4 2508,-895.4 2508,-895.4 2508,-895.4 2474.77,-895.4 2471.93,-773.85 2444.4,-751.06"/>
<polygon fill="blue" stroke="blue" points="2445.59,-747.76 2435,-747.4 2443.05,-754.29 2445.59,-747.76"/>
</g>
<!-- PropertyDefinition&#45;&gt;NameString -->
<g id="0" class="edge">
<title>PropertyDefinition:f1&#45;&gt;NameString:f0</title>
<path fill="none" stroke="red" d="M3375,-721.4C3407.64,-721.4 3415.36,-713.4 3448,-713.4 3448,-713.4 3448,-713.4 4405,-713.4 4502.36,-713.4 4407.38,-904.78 4490.84,-918.61"/>
<polygon fill="red" stroke="red" points="4490.76,-922.11 4501,-919.4 4491.3,-915.14 4490.76,-922.11"/>
</g>
<!-- PropertyDefinition&#45;&gt;CustomAttributesTable -->
<g id="0" class="edge">
<title>PropertyDefinition:f2&#45;&gt;CustomAttributesTable:f0</title>
<path fill="none" stroke="black" d="M3046,-695.4C3016.41,-695.4 3026.51,-726.84 3010,-751.4 2962.12,-822.62 2968.99,-859.73 2899,-909.4 2766.02,-1003.77 2709.06,-1009.4 2546,-1009.4 1195,-1009.4 1195,-1009.4 1195,-1009.4 1166.23,-1009.4 1156.59,-1009.4 1132.16,-1009.4"/>
<polygon fill="black" stroke="black" points="1132,-1005.9 1122,-1009.4 1132,-1012.9 1132,-1005.9"/>
</g>
<!-- PropertyDefinition&#45;&gt;TypeDefinition -->
<g id="0" class="edge">
<title>PropertyDefinition:f4&#45;&gt;TypeDefinition:f0</title>
<path fill="none" stroke="blue" d="M3046,-643.4C3001.26,-643.4 3035.23,-700.45 3010,-737.4 2972.39,-792.48 2960.54,-812.67 2899,-838.4 2754.04,-899.01 2703.12,-857.4 2546,-857.4 2508,-857.4 2508,-857.4 2508,-857.4 2453.11,-857.4 2488.39,-761.12 2445.12,-748.71"/>
<polygon fill="blue" stroke="blue" points="2445.37,-745.21 2435,-747.4 2444.47,-752.16 2445.37,-745.21"/>
</g>
<!-- PropertyDefinition&#45;&gt;MethodDefinition -->
<g id="0" class="edge">
<title>PropertyDefinition:f5&#45;&gt;MethodDefinition:f0</title>
<path fill="none" stroke="purple" d="M3375,-617.4C3424.84,-617.4 3446.83,-632.22 3486,-601.4 3516.68,-577.25 3485.94,-522.95 3511.97,-512.99"/>
<polygon fill="purple" stroke="purple" points="3512.67,-516.42 3522,-511.4 3511.58,-509.5 3512.67,-516.42"/>
</g>
<!-- PropertyDefinition&#45;&gt;MethodDefinition -->
<g id="0" class="edge">
<title>PropertyDefinition:f6&#45;&gt;MethodDefinition:f0</title>
<path fill="none" stroke="purple" d="M3375,-591.4C3425.88,-591.4 3444.19,-592.39 3486,-563.4 3505.67,-549.76 3497.56,-521.64 3512.08,-513.59"/>
<polygon fill="purple" stroke="purple" points="3512.99,-516.98 3522,-511.4 3511.48,-510.14 3512.99,-516.98"/>
</g>
<!-- MethodLookupTable -->
<g id="node13" class="node">
<title>MethodLookupTable</title>
<polygon fill="none" stroke="black" points="3049,-177.4 3049,-307.4 3372,-307.4 3372,-177.4 3049,-177.4"/>
<text text-anchor="middle" x="3210.5" y="-290.6" font-family="Times,serif" font-size="16.00">Method Lookup Table</text>
<polyline fill="none" stroke="black" points="3049,-281.4 3372,-281.4 "/>
<text text-anchor="middle" x="3210.5" y="-264.6" font-family="Times,serif" font-size="16.00">Number of Methods</text>
<polyline fill="none" stroke="black" points="3049,-255.4 3372,-255.4 "/>
<text text-anchor="middle" x="3210.5" y="-238.6" font-family="Times,serif" font-size="16.00">Pointer to Method (Starting Address)</text>
<polyline fill="none" stroke="black" points="3049,-229.4 3372,-229.4 "/>
<text text-anchor="middle" x="3210.5" y="-212.6" font-family="Times,serif" font-size="16.00">Method Size</text>
<polyline fill="none" stroke="black" points="3049,-203.4 3372,-203.4 "/>
<text text-anchor="middle" x="3210.5" y="-186.6" font-family="Times,serif" font-size="16.00">Pointer to Method Definition</text>
</g>
<!-- MethodLookupTable&#45;&gt;MethodDefinition -->
<g id="0" class="edge">
<title>MethodLookupTable:f3&#45;&gt;MethodDefinition:f0</title>
<path fill="none" stroke="purple" d="M3373.5,-190.4C3430.6,-190.4 3462.88,-369.19 3486,-421.4 3501.88,-457.25 3482.99,-502.39 3511.95,-510.22"/>
<polygon fill="purple" stroke="purple" points="3511.66,-513.71 3522,-511.4 3512.48,-506.76 3511.66,-513.71"/>
</g>
<!-- ProtectedRegionDefinition -->
<g id="node15" class="node">
<title>ProtectedRegionDefinition</title>
<polygon fill="none" stroke="black" points="4488,-98.4 4488,-254.4 4734,-254.4 4734,-98.4 4488,-98.4"/>
<text text-anchor="middle" x="4611" y="-237.6" font-family="Times,serif" font-size="16.00">Protected Region Definition</text>
<polyline fill="none" stroke="black" points="4488,-228.4 4734,-228.4 "/>
<text text-anchor="middle" x="4611" y="-211.6" font-family="Times,serif" font-size="16.00">Region Start</text>
<polyline fill="none" stroke="black" points="4488,-202.4 4734,-202.4 "/>
<text text-anchor="middle" x="4611" y="-185.6" font-family="Times,serif" font-size="16.00">Region End</text>
<polyline fill="none" stroke="black" points="4488,-176.4 4734,-176.4 "/>
<text text-anchor="middle" x="4611" y="-159.6" font-family="Times,serif" font-size="16.00">Region Handler</text>
<polyline fill="none" stroke="black" points="4488,-150.4 4734,-150.4 "/>
<text text-anchor="middle" x="4611" y="-133.6" font-family="Times,serif" font-size="16.00">Exception Handler Type</text>
<polyline fill="none" stroke="black" points="4488,-124.4 4734,-124.4 "/>
<text text-anchor="middle" x="4611" y="-107.6" font-family="Times,serif" font-size="16.00">Pointer to Exception Type</text>
</g>
<!-- ProtectedRegionTable&#45;&gt;ProtectedRegionDefinition -->
<g id="0" class="edge">
<title>ProtectedRegionTable:f2&#45;&gt;ProtectedRegionDefinition:f0</title>
<path fill="none" stroke="black" d="M4331,-241.4C4396.81,-241.4 4415.77,-241.4 4476.83,-241.4"/>
<polygon fill="black" stroke="black" points="4477,-244.9 4487,-241.4 4477,-237.9 4477,-244.9"/>
</g>
<!-- ProtectedRegionDefinition&#45;&gt;TypeDefinition -->
<g id="0" class="edge">
<title>ProtectedRegionDefinition:f5&#45;&gt;TypeDefinition:f0</title>
<path fill="none" stroke="blue" d="M4487,-111.4C4450.56,-111.4 4441.44,-111.4 4405,-111.4 3411,-111.4 3411,-111.4 3411,-111.4 3248.4,-111.4 3183.98,-50.37 3046,-136.4 2897.95,-228.71 3033.59,-389.38 2899,-500.4 2776.4,-601.52 2704.92,-557.4 2546,-557.4 2508,-557.4 2508,-557.4 2508,-557.4 2477.42,-557.4 2483.39,-587.44 2471,-615.4 2447.91,-667.52 2489.92,-737.93 2445.15,-746.53"/>
<polygon fill="blue" stroke="blue" points="2444.66,-743.06 2435,-747.4 2445.26,-750.03 2444.66,-743.06"/>
</g>
<!-- InterfaceMethodTable&#45;&gt;TypeDefinition -->
<g id="0" class="edge">
<title>InterfaceMethodTable:f1&#45;&gt;TypeDefinition:f0</title>
<path fill="none" stroke="blue" d="M3073.5,-481.4C2994.96,-481.4 3002.75,-551.02 2936,-592.4 2785.69,-685.58 2722.85,-671.4 2546,-671.4 2508,-671.4 2508,-671.4 2508,-671.4 2490.42,-671.4 2484.41,-674.03 2471,-685.4 2449.92,-703.27 2462.29,-736.77 2445.17,-745.35"/>
<polygon fill="blue" stroke="blue" points="2444.11,-742 2435,-747.4 2445.49,-748.86 2444.11,-742"/>
</g>
<!-- InterfaceMethodTable&#45;&gt;MethodDefinition -->
<g id="0" class="edge">
<title>InterfaceMethodTable:f3&#45;&gt;MethodDefinition:f0</title>
<path fill="none" stroke="purple" d="M3347.5,-429.4C3429.68,-429.4 3435.91,-504.81 3511.86,-511"/>
<polygon fill="purple" stroke="purple" points="3511.87,-514.5 3522,-511.4 3512.15,-507.5 3511.87,-514.5"/>
</g>
<!-- SafePoint -->
<g id="node19" class="node">
<title>SafePoint</title>
<polygon fill="none" stroke="black" points="4478,-273.4 4478,-403.4 4744,-403.4 4744,-273.4 4478,-273.4"/>
<text text-anchor="middle" x="4611" y="-386.6" font-family="Times,serif" font-size="16.00">SafePoint</text>
<polyline fill="none" stroke="black" points="4478,-377.4 4744,-377.4 "/>
<text text-anchor="middle" x="4611" y="-360.6" font-family="Times,serif" font-size="16.00">Address Offset</text>
<polyline fill="none" stroke="black" points="4478,-351.4 4744,-351.4 "/>
<text text-anchor="middle" x="4611" y="-334.6" font-family="Times,serif" font-size="16.00">Address Range (signed)</text>
<polyline fill="none" stroke="black" points="4478,-325.4 4744,-325.4 "/>
<text text-anchor="middle" x="4611" y="-308.6" font-family="Times,serif" font-size="16.00">Breakpoint Indicator</text>
<polyline fill="none" stroke="black" points="4478,-299.4 4744,-299.4 "/>
<text text-anchor="middle" x="4611" y="-282.6" font-family="Times,serif" font-size="16.00">CPU Registers Bitmap (64 bit)</text>
</g>
<!-- SafePointTable&#45;&gt;SafePoint -->
<g id="0" class="edge">
<title>SafePointTable:f2&#45;&gt;SafePoint:f0</title>
<path fill="none" stroke="black" stroke-dasharray="1,5" d="M4255,-390.4C4350.63,-390.4 4377.05,-390.4 4467.82,-390.4"/>
<polygon fill="black" stroke="black" points="4468,-393.9 4478,-390.4 4468,-386.9 4468,-393.9"/>
</g>
<!-- ParameterDefinition&#45;&gt;NameString -->
<g id="0" class="edge">
<title>ParameterDefinition:f1&#45;&gt;NameString:f0</title>
<path fill="none" stroke="red" d="M4290,-1038.4C4394.19,-1038.4 4393.5,-926.94 4490.93,-919.76"/>
<polygon fill="red" stroke="red" points="4491.13,-923.26 4501,-919.4 4490.88,-916.26 4491.13,-923.26"/>
</g>
<!-- ParameterDefinition&#45;&gt;CustomAttributesTable -->
<g id="0" class="edge">
<title>ParameterDefinition:f2&#45;&gt;CustomAttributesTable:f0</title>
<path fill="none" stroke="black" d="M4020,-1012.4C3931.15,-1012.4 3957.85,-1143.4 3869,-1143.4 1195,-1143.4 1195,-1143.4 1195,-1143.4 1191.41,-1143.4 1144.5,-1047.12 1127.71,-1017.78"/>
<polygon fill="black" stroke="black" points="1130.52,-1015.69 1122,-1009.4 1124.74,-1019.63 1130.52,-1015.69"/>
</g>
<!-- ParameterDefinition&#45;&gt;TypeDefinition -->
<g id="0" class="edge">
<title>ParameterDefinition:f4&#45;&gt;TypeDefinition:f0</title>
<path fill="none" stroke="blue" d="M4020,-960.4C3960.78,-960.4 3965.22,-1029.4 3906,-1029.4 3411,-1029.4 3411,-1029.4 3411,-1029.4 3248.56,-1029.4 3205.24,-1042.51 3046,-1010.4 2977.92,-996.67 2966.31,-974.49 2899,-957.4 2830.37,-939.97 2812.31,-933.4 2741.5,-933.4 2508,-933.4 2508,-933.4 2508,-933.4 2467.24,-933.4 2477.21,-776.66 2444.78,-750.95"/>
<polygon fill="blue" stroke="blue" points="2445.59,-747.52 2435,-747.4 2443.21,-754.1 2445.59,-747.52"/>
</g>
<!-- CustomAttribute&#45;&gt;TypeDefinition -->
<g id="0" class="edge">
<title>CustomAttribute:f1&#45;&gt;TypeDefinition:f0</title>
<path fill="none" stroke="blue" d="M1539,-749.4C1571.64,-749.4 1579.36,-741.4 1612,-741.4 1612,-741.4 1612,-741.4 1650,-741.4 1839.95,-741.4 1889.91,-747.19 2074.94,-747.39"/>
<polygon fill="blue" stroke="blue" points="2075,-750.89 2085,-747.4 2075,-743.89 2075,-750.89"/>
</g>
<!-- CustomAttribute&#45;&gt;MethodDefinition -->
<g id="0" class="edge">
<title>CustomAttribute:f2&#45;&gt;MethodDefinition:f0</title>
<path fill="none" stroke="purple" d="M1539,-723.4C1581.2,-723.4 2046.33,-212.27 2085,-195.4 2610.6,33.96 2859.11,83.04 3375,-167.4 3398.92,-179.01 3398.41,-191.55 3412,-214.4 3433.27,-250.16 3433.97,-261.6 3449,-300.4 3450.96,-305.46 3500.63,-463.21 3517.17,-502.57"/>
<polygon fill="purple" stroke="purple" points="3514.13,-504.3 3522,-511.4 3520.28,-500.94 3514.13,-504.3"/>
</g>
<!-- CustomAttributeArgument -->
<g id="node21" class="node">
<title>CustomAttributeArgument</title>
<polygon fill="none" stroke="black" points="1686,-770.4 1686,-926.4 1938,-926.4 1938,-770.4 1686,-770.4"/>
<text text-anchor="middle" x="1812" y="-909.6" font-family="Times,serif" font-size="16.00">Custom Attribute Argument</text>
<polyline fill="none" stroke="black" points="1686,-900.4 1938,-900.4 "/>
<text text-anchor="middle" x="1812" y="-883.6" font-family="Times,serif" font-size="16.00">~Pointer to Argument Name</text>
<polyline fill="none" stroke="black" points="1686,-874.4 1938,-874.4 "/>
<text text-anchor="middle" x="1812" y="-857.6" font-family="Times,serif" font-size="16.00">Is Argument a Field</text>
<polyline fill="none" stroke="black" points="1686,-848.4 1938,-848.4 "/>
<text text-anchor="middle" x="1812" y="-831.6" font-family="Times,serif" font-size="16.00">Pointer to Argument Type</text>
<polyline fill="none" stroke="black" points="1686,-822.4 1938,-822.4 "/>
<text text-anchor="middle" x="1812" y="-805.6" font-family="Times,serif" font-size="16.00">Argument Size</text>
<polyline fill="none" stroke="black" points="1686,-796.4 1938,-796.4 "/>
<text text-anchor="middle" x="1812" y="-779.6" font-family="Times,serif" font-size="16.00">Argument</text>
</g>
<!-- CustomAttribute&#45;&gt;CustomAttributeArgument -->
<g id="0" class="edge">
<title>CustomAttribute:f4&#45;&gt;CustomAttributeArgument:f0</title>
<path fill="none" stroke="black" d="M1539,-671.4C1661.28,-671.4 1565.9,-899.89 1675.85,-912.83"/>
<polygon fill="black" stroke="black" points="1675.82,-916.33 1686,-913.4 1676.21,-909.34 1675.82,-916.33"/>
</g>
<!-- CustomAttributeArgument&#45;&gt;NameString -->
<g id="0" class="edge">
<title>CustomAttributeArgument:f1&#45;&gt;NameString:f0</title>
<path fill="none" stroke="red" d="M1938,-887.4C1987.46,-887.4 1961.54,-971.4 2011,-971.4 2011,-971.4 2011,-971.4 2546,-971.4 2935.03,-971.4 3021.97,-1105.4 3411,-1105.4 3411,-1105.4 3411,-1105.4 4405,-1105.4 4494.39,-1105.4 4414.73,-933.65 4490.91,-920.23"/>
<polygon fill="red" stroke="red" points="4491.32,-923.71 4501,-919.4 4490.75,-916.73 4491.32,-923.71"/>
</g>
<!-- CustomAttributeArgument&#45;&gt;TypeDefinition -->
<g id="0" class="edge">
<title>CustomAttributeArgument:f3&#45;&gt;TypeDefinition:f0</title>
<path fill="none" stroke="blue" d="M1938,-835.4C1995.4,-835.4 1999.85,-799.03 2049,-769.4 2061.55,-761.83 2065.02,-752.66 2074.88,-749.01"/>
<polygon fill="blue" stroke="blue" points="2075.67,-752.43 2085,-747.4 2074.57,-745.51 2075.67,-752.43"/>
</g>
</g>
</svg>
