<?xml version="1.0" encoding="UTF-8" standalone="no"?>
<!DOCTYPE svg PUBLIC "-//W3C//DTD SVG 1.1//EN"
 "http://www.w3.org/Graphics/SVG/1.1/DTD/svg11.dtd">
<!-- Generated by graphviz version 2.49.0 (20210828.1703)
 -->
<!-- Title: MOSA Runtime Tables Pages: 1 -->
<svg width="3988pt" height="1127pt"
 viewBox="0.00 0.00 3988.00 1127.48" xmlns="http://www.w3.org/2000/svg" xmlns:xlink="http://www.w3.org/1999/xlink">
<g id="graph0" class="graph" transform="scale(1 1) rotate(0) translate(4 1123.48)">
<title>MOSA Runtime Tables</title>
<polygon fill="white" stroke="transparent" points="-4,4 -4,-1123.48 3984,-1123.48 3984,4 -4,4"/>
<!-- Key -->
<g id="node1" class="node">
<title>Key</title>
<polygon fill="none" stroke="black" points="0,-621.48 0,-691.48 227,-691.48 227,-621.48 0,-621.48"/>
<text text-anchor="middle" x="113.5" y="-674.68" font-family="Times New Roman,serif" font-size="16.00">Key</text>
<polyline fill="none" stroke="black" points="0,-665.48 227,-665.48 "/>
<text text-anchor="middle" x="113.5" y="-648.68" font-family="Times New Roman,serif" font-size="16.00">~ Denotes field may be zero filled</text>
<text text-anchor="middle" x="113.5" y="-630.68" font-family="Times New Roman,serif" font-size="16.00">due to no value being available.</text>
</g>
<!-- NameString -->
<g id="node2" class="node">
<title>NameString</title>
<polygon fill="none" stroke="red" points="3799,-738.48 3799,-868.48 3968,-868.48 3968,-738.48 3799,-738.48"/>
<text text-anchor="middle" x="3883.5" y="-851.68" font-family="Times New Roman,serif" font-size="16.00">String Object</text>
<polyline fill="none" stroke="red" points="3799,-842.48 3968,-842.48 "/>
<text text-anchor="middle" x="3883.5" y="-825.68" font-family="Times New Roman,serif" font-size="16.00">Object Header</text>
<polyline fill="none" stroke="red" points="3799,-816.48 3968,-816.48 "/>
<text text-anchor="middle" x="3883.5" y="-799.68" font-family="Times New Roman,serif" font-size="16.00">Pointer to Method Table</text>
<polyline fill="none" stroke="red" points="3799,-790.48 3968,-790.48 "/>
<text text-anchor="middle" x="3883.5" y="-773.68" font-family="Times New Roman,serif" font-size="16.00">String Length</text>
<polyline fill="none" stroke="red" points="3799,-764.48 3968,-764.48 "/>
<text text-anchor="middle" x="3883.5" y="-747.68" font-family="Times New Roman,serif" font-size="16.00">Unicode String</text>
</g>
<!-- AssemblyListTable -->
<g id="node3" class="node">
<title>AssemblyListTable</title>
<polygon fill="none" stroke="black" points="34,-710.48 34,-840.48 193,-840.48 193,-710.48 34,-710.48"/>
<text text-anchor="middle" x="113.5" y="-823.68" font-family="Times New Roman,serif" font-size="16.00">Assembly Table</text>
<polyline fill="none" stroke="black" points="34,-814.48 193,-814.48 "/>
<text text-anchor="middle" x="113.5" y="-797.68" font-family="Times New Roman,serif" font-size="16.00">Number of Assemblies</text>
<polyline fill="none" stroke="black" points="34,-788.48 193,-788.48 "/>
<text text-anchor="middle" x="113.5" y="-771.68" font-family="Times New Roman,serif" font-size="16.00">Pointer to Assembly 1</text>
<polyline fill="none" stroke="black" points="34,-762.48 193,-762.48 "/>
<text text-anchor="middle" x="113.5" y="-745.68" font-family="Times New Roman,serif" font-size="16.00">..</text>
<polyline fill="none" stroke="black" points="34,-736.48 193,-736.48 "/>
<text text-anchor="middle" x="113.5" y="-719.68" font-family="Times New Roman,serif" font-size="16.00">Pointer to Assembly N</text>
</g>
<!-- AssemblyDefinition -->
<g id="node4" class="node">
<title>AssemblyDefinition</title>
<polygon fill="none" stroke="black" points="374,-580.48 374,-788.48 580,-788.48 580,-580.48 374,-580.48"/>
<text text-anchor="middle" x="477" y="-771.68" font-family="Times New Roman,serif" font-size="16.00">Assembly</text>
<polyline fill="none" stroke="black" points="374,-762.48 580,-762.48 "/>
<text text-anchor="middle" x="477" y="-745.68" font-family="Times New Roman,serif" font-size="16.00">Pointer to Assembly Name</text>
<polyline fill="none" stroke="black" points="374,-736.48 580,-736.48 "/>
<text text-anchor="middle" x="477" y="-719.68" font-family="Times New Roman,serif" font-size="16.00">~Pointer to Custom Attributes</text>
<polyline fill="none" stroke="black" points="374,-710.48 580,-710.48 "/>
<text text-anchor="middle" x="477" y="-693.68" font-family="Times New Roman,serif" font-size="16.00">Flags: IsReflectionOnly</text>
<polyline fill="none" stroke="black" points="374,-684.48 580,-684.48 "/>
<text text-anchor="middle" x="477" y="-667.68" font-family="Times New Roman,serif" font-size="16.00">Number of Types</text>
<polyline fill="none" stroke="black" points="374,-658.48 580,-658.48 "/>
<text text-anchor="middle" x="477" y="-641.68" font-family="Times New Roman,serif" font-size="16.00">Pointer to Type Definition 1</text>
<polyline fill="none" stroke="black" points="374,-632.48 580,-632.48 "/>
<text text-anchor="middle" x="477" y="-615.68" font-family="Times New Roman,serif" font-size="16.00">...</text>
<polyline fill="none" stroke="black" points="374,-606.48 580,-606.48 "/>
<text text-anchor="middle" x="477" y="-589.68" font-family="Times New Roman,serif" font-size="16.00">Pointer to Type Definition N</text>
</g>
<!-- AssemblyListTable&#45;&gt;AssemblyDefinition -->
<g id="0" class="edge">
<title>AssemblyListTable:f2&#45;&gt;AssemblyDefinition:f0</title>
<path fill="none" stroke="black" d="M194.5,-775.48C270.69,-775.48 292.31,-775.48 363.6,-775.48"/>
<polygon fill="black" stroke="black" points="364,-778.98 374,-775.48 364,-771.98 364,-778.98"/>
</g>
<!-- AssemblyDefinition&#45;&gt;NameString -->
<g id="0" class="edge">
<title>AssemblyDefinition:f1&#45;&gt;NameString:f0</title>
<path fill="none" stroke="red" d="M580,-749.48C747.61,-749.48 485.39,-1119.48 653,-1119.48 653,-1119.48 653,-1119.48 3714,-1119.48 3771.93,-1119.48 3740.26,-885.51 3787.68,-858.09"/>
<polygon fill="red" stroke="red" points="3788.74,-861.43 3797.5,-855.48 3786.94,-854.67 3788.74,-861.43"/>
</g>
<!-- CustomAttributesTable -->
<g id="node5" class="node">
<title>CustomAttributesTable</title>
<polygon fill="none" stroke="black" points="727,-770.48 727,-900.48 934,-900.48 934,-770.48 727,-770.48"/>
<text text-anchor="middle" x="830.5" y="-883.68" font-family="Times New Roman,serif" font-size="16.00">Custom Attributes Table</text>
<polyline fill="none" stroke="black" points="727,-874.48 934,-874.48 "/>
<text text-anchor="middle" x="830.5" y="-857.68" font-family="Times New Roman,serif" font-size="16.00">Number of Attributes</text>
<polyline fill="none" stroke="black" points="727,-848.48 934,-848.48 "/>
<text text-anchor="middle" x="830.5" y="-831.68" font-family="Times New Roman,serif" font-size="16.00">Pointer to Custom Attribute 1</text>
<polyline fill="none" stroke="black" points="727,-822.48 934,-822.48 "/>
<text text-anchor="middle" x="830.5" y="-805.68" font-family="Times New Roman,serif" font-size="16.00">...</text>
<polyline fill="none" stroke="black" points="727,-796.48 934,-796.48 "/>
<text text-anchor="middle" x="830.5" y="-779.68" font-family="Times New Roman,serif" font-size="16.00">Pointer to Custom Attribute N</text>
</g>
<!-- AssemblyDefinition&#45;&gt;CustomAttributesTable -->
<g id="0" class="edge">
<title>AssemblyDefinition:f2&#45;&gt;CustomAttributesTable:f0</title>
<path fill="none" stroke="black" d="M580,-723.48C674.35,-723.48 632.45,-875.84 716.95,-886.85"/>
<polygon fill="black" stroke="black" points="716.8,-890.35 727,-887.48 717.24,-883.36 716.8,-890.35"/>
</g>
<!-- TypeDefinition -->
<g id="node6" class="node">
<title>TypeDefinition</title>
<polygon fill="none" stroke="blue" points="1778,-70.48 1778,-634.48 2047,-634.48 2047,-70.48 1778,-70.48"/>
<text text-anchor="middle" x="1912.5" y="-617.68" font-family="Times New Roman,serif" font-size="16.00">Type Definition</text>
<text text-anchor="middle" x="1912.5" y="-599.68" font-family="Times New Roman,serif" font-size="16.00">(contains Method Table)</text>
<polyline fill="none" stroke="blue" points="1778,-590.48 2047,-590.48 "/>
<text text-anchor="middle" x="1912.5" y="-573.68" font-family="Times New Roman,serif" font-size="16.00">Pointer to Type Name</text>
<polyline fill="none" stroke="blue" points="1778,-564.48 2047,-564.48 "/>
<text text-anchor="middle" x="1912.5" y="-547.68" font-family="Times New Roman,serif" font-size="16.00">~Pointer to Custom Attributes</text>
<polyline fill="none" stroke="blue" points="1778,-538.48 2047,-538.48 "/>
<text text-anchor="middle" x="1912.5" y="-521.68" font-family="Times New Roman,serif" font-size="16.00">Type Code &amp; Attributes</text>
<polyline fill="none" stroke="blue" points="1778,-512.48 2047,-512.48 "/>
<text text-anchor="middle" x="1912.5" y="-495.68" font-family="Times New Roman,serif" font-size="16.00">Type Size</text>
<polyline fill="none" stroke="blue" points="1778,-486.48 2047,-486.48 "/>
<text text-anchor="middle" x="1912.5" y="-469.68" font-family="Times New Roman,serif" font-size="16.00">Pointer to Assembly</text>
<polyline fill="none" stroke="blue" points="1778,-460.48 2047,-460.48 "/>
<text text-anchor="middle" x="1912.5" y="-443.68" font-family="Times New Roman,serif" font-size="16.00">~Pointer to Parent Type</text>
<polyline fill="none" stroke="blue" points="1778,-434.48 2047,-434.48 "/>
<text text-anchor="middle" x="1912.5" y="-417.68" font-family="Times New Roman,serif" font-size="16.00">~Pointer to Declaring Type</text>
<polyline fill="none" stroke="blue" points="1778,-408.48 2047,-408.48 "/>
<text text-anchor="middle" x="1912.5" y="-391.68" font-family="Times New Roman,serif" font-size="16.00">~Pointer to Element Type</text>
<polyline fill="none" stroke="blue" points="1778,-382.48 2047,-382.48 "/>
<text text-anchor="middle" x="1912.5" y="-365.68" font-family="Times New Roman,serif" font-size="16.00">~Pointer to Default Constructor Method</text>
<polyline fill="none" stroke="blue" points="1778,-356.48 2047,-356.48 "/>
<text text-anchor="middle" x="1912.5" y="-339.68" font-family="Times New Roman,serif" font-size="16.00">~Pointer to Properties Table</text>
<polyline fill="none" stroke="blue" points="1778,-330.48 2047,-330.48 "/>
<text text-anchor="middle" x="1912.5" y="-313.68" font-family="Times New Roman,serif" font-size="16.00">~Pointer to Fields Table</text>
<polyline fill="none" stroke="blue" points="1778,-304.48 2047,-304.48 "/>
<text text-anchor="middle" x="1912.5" y="-287.68" font-family="Times New Roman,serif" font-size="16.00">~Pointer to Interface Slot Table</text>
<polyline fill="none" stroke="blue" points="1778,-278.48 2047,-278.48 "/>
<text text-anchor="middle" x="1912.5" y="-261.68" font-family="Times New Roman,serif" font-size="16.00">~Pointer to Interface Bitmap</text>
<polyline fill="none" stroke="blue" points="1778,-252.48 2047,-252.48 "/>
<text text-anchor="middle" x="1912.5" y="-235.68" font-family="Times New Roman,serif" font-size="16.00">Number of Methods</text>
<polyline fill="none" stroke="blue" points="1778,-226.48 2047,-226.48 "/>
<text text-anchor="middle" x="1912.5" y="-209.68" font-family="Times New Roman,serif" font-size="16.00">Pointer to Method 1</text>
<polyline fill="none" stroke="blue" points="1778,-200.48 2047,-200.48 "/>
<text text-anchor="middle" x="1912.5" y="-183.68" font-family="Times New Roman,serif" font-size="16.00">...</text>
<polyline fill="none" stroke="blue" points="1778,-174.48 2047,-174.48 "/>
<text text-anchor="middle" x="1912.5" y="-157.68" font-family="Times New Roman,serif" font-size="16.00">Pointer to Method N</text>
<polyline fill="none" stroke="blue" points="1778,-148.48 2047,-148.48 "/>
<text text-anchor="middle" x="1912.5" y="-131.68" font-family="Times New Roman,serif" font-size="16.00">Pointer to Method Definition 1</text>
<polyline fill="none" stroke="blue" points="1778,-122.48 2047,-122.48 "/>
<text text-anchor="middle" x="1912.5" y="-105.68" font-family="Times New Roman,serif" font-size="16.00">...</text>
<polyline fill="none" stroke="blue" points="1778,-96.48 2047,-96.48 "/>
<text text-anchor="middle" x="1912.5" y="-79.68" font-family="Times New Roman,serif" font-size="16.00">Pointer to Method Definition N</text>
</g>
<!-- AssemblyDefinition&#45;&gt;TypeDefinition -->
<g id="0" class="edge">
<title>AssemblyDefinition:f5&#45;&gt;TypeDefinition:f0</title>
<path fill="none" stroke="blue" d="M580,-645.48C671.29,-645.48 561.71,-453.48 653,-453.48 653,-453.48 653,-453.48 1045,-453.48 1154.22,-453.48 1182.52,-453.1 1290,-472.48 1397.78,-491.91 1649.83,-605.53 1767.7,-612.17"/>
<polygon fill="blue" stroke="blue" points="1767.9,-615.68 1778,-612.48 1768.11,-608.68 1767.9,-615.68"/>
</g>
<!-- CustomAttribute -->
<g id="node19" class="node">
<title>CustomAttribute</title>
<polygon fill="none" stroke="black" points="1081,-482.48 1081,-664.48 1290,-664.48 1290,-482.48 1081,-482.48"/>
<text text-anchor="middle" x="1185.5" y="-647.68" font-family="Times New Roman,serif" font-size="16.00">Custom Attribute</text>
<polyline fill="none" stroke="black" points="1081,-638.48 1290,-638.48 "/>
<text text-anchor="middle" x="1185.5" y="-621.68" font-family="Times New Roman,serif" font-size="16.00">Pointer to Attribute Type</text>
<polyline fill="none" stroke="black" points="1081,-612.48 1290,-612.48 "/>
<text text-anchor="middle" x="1185.5" y="-595.68" font-family="Times New Roman,serif" font-size="16.00">Pointer to Constructor Method</text>
<polyline fill="none" stroke="black" points="1081,-586.48 1290,-586.48 "/>
<text text-anchor="middle" x="1185.5" y="-569.68" font-family="Times New Roman,serif" font-size="16.00">Number of Arguments</text>
<polyline fill="none" stroke="black" points="1081,-560.48 1290,-560.48 "/>
<text text-anchor="middle" x="1185.5" y="-543.68" font-family="Times New Roman,serif" font-size="16.00">Pointer to Argument 1</text>
<polyline fill="none" stroke="black" points="1081,-534.48 1290,-534.48 "/>
<text text-anchor="middle" x="1185.5" y="-517.68" font-family="Times New Roman,serif" font-size="16.00">...</text>
<polyline fill="none" stroke="black" points="1081,-508.48 1290,-508.48 "/>
<text text-anchor="middle" x="1185.5" y="-491.68" font-family="Times New Roman,serif" font-size="16.00">Pointer to Argument N</text>
</g>
<!-- CustomAttributesTable&#45;&gt;CustomAttribute -->
<g id="0" class="edge">
<title>CustomAttributesTable:f2&#45;&gt;CustomAttribute:f0</title>
<path fill="none" stroke="black" d="M934,-835.48C988.83,-835.48 936.16,-760.62 970,-717.48 1003.28,-675.05 1021.34,-654.09 1070.99,-651.71"/>
<polygon fill="black" stroke="black" points="1071.08,-655.2 1081,-651.48 1070.92,-648.21 1071.08,-655.2"/>
</g>
<!-- TypeDefinition&#45;&gt;NameString -->
<g id="0" class="edge">
<title>TypeDefinition:f1&#45;&gt;NameString:f0</title>
<path fill="none" stroke="red" d="M2047,-577.48C2093.52,-577.48 2073.48,-502.48 2120,-502.48 2120,-502.48 2120,-502.48 2316,-502.48 2465.88,-502.48 2446.71,-646.11 2583,-708.48 2699.24,-761.67 2742.17,-727.48 2870,-727.48 2870,-727.48 2870,-727.48 3714,-727.48 3778.21,-727.48 3734.94,-841.86 3787.4,-854.37"/>
<polygon fill="red" stroke="red" points="3787.18,-857.87 3797.5,-855.48 3787.94,-850.91 3787.18,-857.87"/>
</g>
<!-- TypeDefinition&#45;&gt;AssemblyDefinition -->
<g id="0" class="edge">
<title>TypeDefinition:f5&#45;&gt;AssemblyDefinition:f0</title>
<path fill="none" stroke="black" d="M1778,-473.48C1622.12,-473.48 1568.49,-471.77 1437,-555.48 1370.84,-597.6 1405.43,-693.48 1327,-693.48 653,-693.48 653,-693.48 653,-693.48 630.06,-693.48 631.33,-712.4 616,-729.48 601.37,-745.78 604.28,-767.32 589.95,-773.65"/>
<polygon fill="black" stroke="black" points="589.21,-770.23 580,-775.48 590.47,-777.12 589.21,-770.23"/>
</g>
<!-- TypeDefinition&#45;&gt;CustomAttributesTable -->
<g id="0" class="edge">
<title>TypeDefinition:f2&#45;&gt;CustomAttributesTable:f0</title>
<path fill="none" stroke="black" d="M1778,-551.48C1621.81,-551.48 1573.48,-560.51 1437,-636.48 1427.11,-641.98 1372.84,-700.42 1364,-707.48 1348.68,-719.7 1346.6,-731.48 1327,-731.48 1007,-731.48 1007,-731.48 1007,-731.48 934.19,-731.48 1003.1,-872.61 944.13,-886.4"/>
<polygon fill="black" stroke="black" points="943.57,-882.94 934,-887.48 944.31,-889.9 943.57,-882.94"/>
</g>
<!-- TypeDefinition&#45;&gt;TypeDefinition -->
<g id="0" class="edge">
<title>TypeDefinition:f6&#45;&gt;TypeDefinition:f0</title>
<path fill="none" stroke="blue" d="M1777.73,-450.51C1730.88,-460.55 1693,-483.42 1693,-529.98 1693,-573.26 1725.74,-596.07 1767.99,-607.13"/>
<polygon fill="blue" stroke="blue" points="1767.19,-610.54 1777.73,-609.45 1768.81,-603.73 1767.19,-610.54"/>
</g>
<!-- MethodDefinition -->
<g id="node7" class="node">
<title>MethodDefinition</title>
<polygon fill="none" stroke="green" points="2981,-96.48 2981,-434.48 3222,-434.48 3222,-96.48 2981,-96.48"/>
<text text-anchor="middle" x="3101.5" y="-417.68" font-family="Times New Roman,serif" font-size="16.00">Method Definition</text>
<polyline fill="none" stroke="green" points="2981,-408.48 3222,-408.48 "/>
<text text-anchor="middle" x="3101.5" y="-391.68" font-family="Times New Roman,serif" font-size="16.00">Pointer to Method Name</text>
<polyline fill="none" stroke="green" points="2981,-382.48 3222,-382.48 "/>
<text text-anchor="middle" x="3101.5" y="-365.68" font-family="Times New Roman,serif" font-size="16.00">~Pointer to Custom Attributes</text>
<polyline fill="none" stroke="green" points="2981,-356.48 3222,-356.48 "/>
<text text-anchor="middle" x="3101.5" y="-339.68" font-family="Times New Roman,serif" font-size="16.00">Method Attributes</text>
<polyline fill="none" stroke="green" points="2981,-330.48 3222,-330.48 "/>
<text text-anchor="middle" x="3101.5" y="-313.68" font-family="Times New Roman,serif" font-size="16.00">Local &amp; Parameter Stack Size</text>
<polyline fill="none" stroke="green" points="2981,-304.48 3222,-304.48 "/>
<text text-anchor="middle" x="3101.5" y="-287.68" font-family="Times New Roman,serif" font-size="16.00">Pointer to Method</text>
<polyline fill="none" stroke="green" points="2981,-278.48 3222,-278.48 "/>
<text text-anchor="middle" x="3101.5" y="-261.68" font-family="Times New Roman,serif" font-size="16.00">Pointer to Return Type Definition</text>
<polyline fill="none" stroke="green" points="2981,-252.48 3222,-252.48 "/>
<text text-anchor="middle" x="3101.5" y="-235.68" font-family="Times New Roman,serif" font-size="16.00">~Pointer to Protected Region Table</text>
<polyline fill="none" stroke="green" points="2981,-226.48 3222,-226.48 "/>
<text text-anchor="middle" x="3101.5" y="-209.68" font-family="Times New Roman,serif" font-size="16.00">Pointer to GC Tracking Information</text>
<polyline fill="none" stroke="green" points="2981,-200.48 3222,-200.48 "/>
<text text-anchor="middle" x="3101.5" y="-183.68" font-family="Times New Roman,serif" font-size="16.00">Number of Parameters</text>
<polyline fill="none" stroke="green" points="2981,-174.48 3222,-174.48 "/>
<text text-anchor="middle" x="3101.5" y="-157.68" font-family="Times New Roman,serif" font-size="16.00">Pointer to Parameter Definition 1</text>
<polyline fill="none" stroke="green" points="2981,-148.48 3222,-148.48 "/>
<text text-anchor="middle" x="3101.5" y="-131.68" font-family="Times New Roman,serif" font-size="16.00">...</text>
<polyline fill="none" stroke="green" points="2981,-122.48 3222,-122.48 "/>
<text text-anchor="middle" x="3101.5" y="-105.68" font-family="Times New Roman,serif" font-size="16.00">Pointer to Parameter Definition N</text>
</g>
<!-- TypeDefinition&#45;&gt;MethodDefinition -->
<g id="0" class="edge">
<title>TypeDefinition:f9&#45;&gt;MethodDefinition:f0</title>
<path fill="none" stroke="green" d="M2047,-369.48C2080.21,-369.48 2086.79,-385.48 2120,-385.48 2120,-385.48 2120,-385.48 2316,-385.48 2546.56,-385.48 2608.28,-310.47 2834,-357.48 2865.88,-364.12 2932.53,-412.09 2970.96,-420.29"/>
<polygon fill="green" stroke="green" points="2970.66,-423.77 2981,-421.48 2971.48,-416.82 2970.66,-423.77"/>
</g>
<!-- TypeDefinition&#45;&gt;MethodDefinition -->
<g id="0" class="edge">
<title>TypeDefinition:f16&#45;&gt;MethodDefinition:f0</title>
<path fill="none" stroke="black" d="M2047,-135.48C2097.48,-135.48 2069.52,-48.48 2120,-48.48 2120,-48.48 2120,-48.48 2547,-48.48 2681.36,-48.48 2722.63,-68.3 2834,-143.48 2897.25,-186.17 2910.33,-206.49 2945,-274.48 2973.83,-331 2920.44,-411.7 2970.77,-420.66"/>
<polygon fill="black" stroke="black" points="2970.75,-424.17 2981,-421.48 2971.31,-417.19 2970.75,-424.17"/>
</g>
<!-- PropertiesTable -->
<g id="node8" class="node">
<title>PropertiesTable</title>
<polygon fill="none" stroke="black" points="2205.5,-226.48 2205.5,-356.48 2424.5,-356.48 2424.5,-226.48 2205.5,-226.48"/>
<text text-anchor="middle" x="2315" y="-339.68" font-family="Times New Roman,serif" font-size="16.00">Properties Table</text>
<polyline fill="none" stroke="black" points="2205.5,-330.48 2424.5,-330.48 "/>
<text text-anchor="middle" x="2315" y="-313.68" font-family="Times New Roman,serif" font-size="16.00">Number of Properties</text>
<polyline fill="none" stroke="black" points="2205.5,-304.48 2424.5,-304.48 "/>
<text text-anchor="middle" x="2315" y="-287.68" font-family="Times New Roman,serif" font-size="16.00">Pointer to Property Definition 1</text>
<polyline fill="none" stroke="black" points="2205.5,-278.48 2424.5,-278.48 "/>
<text text-anchor="middle" x="2315" y="-261.68" font-family="Times New Roman,serif" font-size="16.00">...</text>
<polyline fill="none" stroke="black" points="2205.5,-252.48 2424.5,-252.48 "/>
<text text-anchor="middle" x="2315" y="-235.68" font-family="Times New Roman,serif" font-size="16.00">Pointer to Property Definition N</text>
</g>
<!-- TypeDefinition&#45;&gt;PropertiesTable -->
<g id="0" class="edge">
<title>TypeDefinition:f10&#45;&gt;PropertiesTable:f0</title>
<path fill="none" stroke="black" d="M2047,-343.48C2113.23,-343.48 2132.32,-343.48 2193.76,-343.48"/>
<polygon fill="black" stroke="black" points="2194,-346.98 2204,-343.48 2194,-339.98 2194,-346.98"/>
</g>
<!-- FieldsTable -->
<g id="node9" class="node">
<title>FieldsTable</title>
<polygon fill="none" stroke="black" points="2216,-569.48 2216,-699.48 2414,-699.48 2414,-569.48 2216,-569.48"/>
<text text-anchor="middle" x="2315" y="-682.68" font-family="Times New Roman,serif" font-size="16.00">Fields Table</text>
<polyline fill="none" stroke="black" points="2216,-673.48 2414,-673.48 "/>
<text text-anchor="middle" x="2315" y="-656.68" font-family="Times New Roman,serif" font-size="16.00">Number of Fields</text>
<polyline fill="none" stroke="black" points="2216,-647.48 2414,-647.48 "/>
<text text-anchor="middle" x="2315" y="-630.68" font-family="Times New Roman,serif" font-size="16.00">Pointer to Field Definition 1</text>
<polyline fill="none" stroke="black" points="2216,-621.48 2414,-621.48 "/>
<text text-anchor="middle" x="2315" y="-604.68" font-family="Times New Roman,serif" font-size="16.00">...</text>
<polyline fill="none" stroke="black" points="2216,-595.48 2414,-595.48 "/>
<text text-anchor="middle" x="2315" y="-578.68" font-family="Times New Roman,serif" font-size="16.00">Pointer to Field Definition N</text>
</g>
<!-- TypeDefinition&#45;&gt;FieldsTable -->
<g id="0" class="edge">
<title>TypeDefinition:f11&#45;&gt;FieldsTable:f0</title>
<path fill="none" stroke="black" d="M2047,-317.48C2100.27,-317.48 2058.97,-506.93 2083,-554.48 2118.82,-625.34 2130.99,-681.47 2204.69,-686.16"/>
<polygon fill="black" stroke="black" points="2204.9,-689.67 2215,-686.48 2205.11,-682.67 2204.9,-689.67"/>
</g>
<!-- InterfaceSlotTable -->
<g id="node10" class="node">
<title>InterfaceSlotTable</title>
<polygon fill="none" stroke="black" points="2194,-77.48 2194,-207.48 2436,-207.48 2436,-77.48 2194,-77.48"/>
<text text-anchor="middle" x="2315" y="-190.68" font-family="Times New Roman,serif" font-size="16.00">Interface Slot Table</text>
<polyline fill="none" stroke="black" points="2194,-181.48 2436,-181.48 "/>
<text text-anchor="middle" x="2315" y="-164.68" font-family="Times New Roman,serif" font-size="16.00">Number of Interface Method Tables</text>
<polyline fill="none" stroke="black" points="2194,-155.48 2436,-155.48 "/>
<text text-anchor="middle" x="2315" y="-138.68" font-family="Times New Roman,serif" font-size="16.00">Pointer to Interface Method Table 1</text>
<polyline fill="none" stroke="black" points="2194,-129.48 2436,-129.48 "/>
<text text-anchor="middle" x="2315" y="-112.68" font-family="Times New Roman,serif" font-size="16.00">...</text>
<polyline fill="none" stroke="black" points="2194,-103.48 2436,-103.48 "/>
<text text-anchor="middle" x="2315" y="-86.68" font-family="Times New Roman,serif" font-size="16.00">Pointer to Interface Method Table N</text>
</g>
<!-- TypeDefinition&#45;&gt;InterfaceSlotTable -->
<g id="0" class="edge">
<title>TypeDefinition:f12&#45;&gt;InterfaceSlotTable:f0</title>
<path fill="none" stroke="black" d="M2047,-291.48C2121.76,-291.48 2116.41,-203 2183.97,-195.05"/>
<polygon fill="black" stroke="black" points="2184.21,-198.54 2194,-194.48 2183.82,-191.55 2184.21,-198.54"/>
</g>
<!-- MethodDefinition&#45;&gt;NameString -->
<g id="0" class="edge">
<title>MethodDefinition:f1&#45;&gt;NameString:f0</title>
<path fill="none" stroke="red" d="M3222,-395.48C3271.46,-395.48 3245.54,-479.48 3295,-479.48 3295,-479.48 3295,-479.48 3714,-479.48 3795.91,-479.48 3719.12,-823.86 3787.4,-853.45"/>
<polygon fill="red" stroke="red" points="3787.01,-856.94 3797.5,-855.48 3788.38,-850.08 3787.01,-856.94"/>
</g>
<!-- MethodDefinition&#45;&gt;CustomAttributesTable -->
<g id="0" class="edge">
<title>MethodDefinition:f2&#45;&gt;CustomAttributesTable:f0</title>
<path fill="none" stroke="black" d="M2981,-369.48C2715.5,-369.48 3043.56,-785.47 2834,-948.48 2583.74,-1143.14 2438.05,-925.48 2121,-925.48 1007,-925.48 1007,-925.48 1007,-925.48 974.14,-925.48 970.92,-894.8 944.08,-888.57"/>
<polygon fill="black" stroke="black" points="944.32,-885.08 934,-887.48 943.56,-892.04 944.32,-885.08"/>
</g>
<!-- MethodDefinition&#45;&gt;TypeDefinition -->
<g id="0" class="edge">
<title>MethodDefinition:f6&#45;&gt;TypeDefinition:f0</title>
<path fill="none" stroke="blue" d="M2981,-265.48C2896.1,-265.48 2913.86,-172.3 2834,-143.48 2729.07,-105.61 2674.67,-79.91 2583,-143.48 2506.95,-196.21 2554.37,-257.27 2510,-338.48 2483.66,-386.68 2484.01,-410.78 2436,-437.48 2327.62,-497.75 2282.02,-461.48 2158,-461.48 2120,-461.48 2120,-461.48 2120,-461.48 2099.64,-461.48 2094.69,-471.81 2083,-488.48 2052.24,-532.34 2097.56,-602.38 2057.01,-611.49"/>
<polygon fill="blue" stroke="blue" points="2056.61,-608.01 2047,-612.48 2057.3,-614.98 2056.61,-608.01"/>
</g>
<!-- ProtectedRegionTable -->
<g id="node14" class="node">
<title>ProtectedRegionTable</title>
<polygon fill="none" stroke="black" points="3369,-167.48 3369,-297.48 3640,-297.48 3640,-167.48 3369,-167.48"/>
<text text-anchor="middle" x="3504.5" y="-280.68" font-family="Times New Roman,serif" font-size="16.00">Protected Region Table</text>
<polyline fill="none" stroke="black" points="3369,-271.48 3640,-271.48 "/>
<text text-anchor="middle" x="3504.5" y="-254.68" font-family="Times New Roman,serif" font-size="16.00">Number of Regions</text>
<polyline fill="none" stroke="black" points="3369,-245.48 3640,-245.48 "/>
<text text-anchor="middle" x="3504.5" y="-228.68" font-family="Times New Roman,serif" font-size="16.00">Pointer to Protected Region Definition 1</text>
<polyline fill="none" stroke="black" points="3369,-219.48 3640,-219.48 "/>
<text text-anchor="middle" x="3504.5" y="-202.68" font-family="Times New Roman,serif" font-size="16.00">...</text>
<polyline fill="none" stroke="black" points="3369,-193.48 3640,-193.48 "/>
<text text-anchor="middle" x="3504.5" y="-176.68" font-family="Times New Roman,serif" font-size="16.00">Protected Region Definition N</text>
</g>
<!-- MethodDefinition&#45;&gt;ProtectedRegionTable -->
<g id="0" class="edge">
<title>MethodDefinition:f7&#45;&gt;ProtectedRegionTable:f0</title>
<path fill="none" stroke="black" d="M3222,-239.48C3286.72,-239.48 3299.42,-279.86 3358.66,-284.11"/>
<polygon fill="black" stroke="black" points="3358.88,-287.62 3369,-284.48 3359.13,-280.63 3358.88,-287.62"/>
</g>
<!-- GCTrackingInformation -->
<g id="node17" class="node">
<title>GCTrackingInformation</title>
<polygon fill="none" stroke="black" points="3417,-96.48 3417,-148.48 3592,-148.48 3592,-96.48 3417,-96.48"/>
<text text-anchor="middle" x="3504.5" y="-131.68" font-family="Times New Roman,serif" font-size="16.00">GC Tracking Information</text>
<polyline fill="none" stroke="black" points="3417,-122.48 3592,-122.48 "/>
<text text-anchor="middle" x="3504.5" y="-105.68" font-family="Times New Roman,serif" font-size="16.00">TODO</text>
</g>
<!-- MethodDefinition&#45;&gt;GCTrackingInformation -->
<g id="0" class="edge">
<title>MethodDefinition:f8&#45;&gt;GCTrackingInformation:f0</title>
<path fill="none" stroke="black" d="M3222,-213.48C3311.19,-213.48 3322.04,-141.3 3405.26,-135.81"/>
<polygon fill="black" stroke="black" points="3405.62,-139.3 3415.5,-135.48 3405.39,-132.3 3405.62,-139.3"/>
</g>
<!-- ParameterDefinition -->
<g id="node18" class="node">
<title>ParameterDefinition</title>
<polygon fill="none" stroke="black" points="3401.5,-884.48 3401.5,-1014.48 3607.5,-1014.48 3607.5,-884.48 3401.5,-884.48"/>
<text text-anchor="middle" x="3504.5" y="-997.68" font-family="Times New Roman,serif" font-size="16.00">Parameter Definition</text>
<polyline fill="none" stroke="black" points="3401.5,-988.48 3607.5,-988.48 "/>
<text text-anchor="middle" x="3504.5" y="-971.68" font-family="Times New Roman,serif" font-size="16.00">Pointer to Parameter Name</text>
<polyline fill="none" stroke="black" points="3401.5,-962.48 3607.5,-962.48 "/>
<text text-anchor="middle" x="3504.5" y="-945.68" font-family="Times New Roman,serif" font-size="16.00">~Pointer to Custom Attributes</text>
<polyline fill="none" stroke="black" points="3401.5,-936.48 3607.5,-936.48 "/>
<text text-anchor="middle" x="3504.5" y="-919.68" font-family="Times New Roman,serif" font-size="16.00">Parameter Attributes</text>
<polyline fill="none" stroke="black" points="3401.5,-910.48 3607.5,-910.48 "/>
<text text-anchor="middle" x="3504.5" y="-893.68" font-family="Times New Roman,serif" font-size="16.00">Pointer to Parameter Type</text>
</g>
<!-- MethodDefinition&#45;&gt;ParameterDefinition -->
<g id="0" class="edge">
<title>MethodDefinition:f10&#45;&gt;ParameterDefinition:f0</title>
<path fill="none" stroke="black" d="M3222,-161.48C3259.11,-161.48 3250.97,-457.04 3258,-493.48 3279.58,-605.22 3283.06,-978.69 3390.49,-1000.48"/>
<polygon fill="black" stroke="black" points="3390.2,-1003.97 3400.5,-1001.48 3390.89,-997 3390.2,-1003.97"/>
</g>
<!-- PropertyDefinition -->
<g id="node12" class="node">
<title>PropertyDefinition</title>
<polygon fill="none" stroke="black" points="2583,-367.48 2583,-549.48 2834,-549.48 2834,-367.48 2583,-367.48"/>
<text text-anchor="middle" x="2708.5" y="-532.68" font-family="Times New Roman,serif" font-size="16.00">Property Definition</text>
<polyline fill="none" stroke="black" points="2583,-523.48 2834,-523.48 "/>
<text text-anchor="middle" x="2708.5" y="-506.68" font-family="Times New Roman,serif" font-size="16.00">Pointer to Property Name</text>
<polyline fill="none" stroke="black" points="2583,-497.48 2834,-497.48 "/>
<text text-anchor="middle" x="2708.5" y="-480.68" font-family="Times New Roman,serif" font-size="16.00">~Pointer to Custom Attributes</text>
<polyline fill="none" stroke="black" points="2583,-471.48 2834,-471.48 "/>
<text text-anchor="middle" x="2708.5" y="-454.68" font-family="Times New Roman,serif" font-size="16.00">Property Attributes</text>
<polyline fill="none" stroke="black" points="2583,-445.48 2834,-445.48 "/>
<text text-anchor="middle" x="2708.5" y="-428.68" font-family="Times New Roman,serif" font-size="16.00">Pointer to Property Type</text>
<polyline fill="none" stroke="black" points="2583,-419.48 2834,-419.48 "/>
<text text-anchor="middle" x="2708.5" y="-402.68" font-family="Times New Roman,serif" font-size="16.00">~Pointer to Getter Method Definition</text>
<polyline fill="none" stroke="black" points="2583,-393.48 2834,-393.48 "/>
<text text-anchor="middle" x="2708.5" y="-376.68" font-family="Times New Roman,serif" font-size="16.00">~Pointer to Setter Method Defiinition</text>
</g>
<!-- PropertiesTable&#45;&gt;PropertyDefinition -->
<g id="0" class="edge">
<title>PropertiesTable:f2&#45;&gt;PropertyDefinition:f0</title>
<path fill="none" stroke="black" d="M2424.81,-304.67C2528.14,-367.68 2462.23,-527.1 2572.87,-536.08"/>
<polygon fill="black" stroke="black" points="2572.87,-539.58 2583,-536.48 2573.14,-532.59 2572.87,-539.58"/>
</g>
<!-- FieldDefinition -->
<g id="node11" class="node">
<title>FieldDefinition</title>
<polygon fill="none" stroke="black" points="2605.5,-756.48 2605.5,-938.48 2811.5,-938.48 2811.5,-756.48 2605.5,-756.48"/>
<text text-anchor="middle" x="2708.5" y="-921.68" font-family="Times New Roman,serif" font-size="16.00">Field Definition</text>
<polyline fill="none" stroke="black" points="2605.5,-912.48 2811.5,-912.48 "/>
<text text-anchor="middle" x="2708.5" y="-895.68" font-family="Times New Roman,serif" font-size="16.00">Pointer to Field Name</text>
<polyline fill="none" stroke="black" points="2605.5,-886.48 2811.5,-886.48 "/>
<text text-anchor="middle" x="2708.5" y="-869.68" font-family="Times New Roman,serif" font-size="16.00">~Pointer to Custom Attributes</text>
<polyline fill="none" stroke="black" points="2605.5,-860.48 2811.5,-860.48 "/>
<text text-anchor="middle" x="2708.5" y="-843.68" font-family="Times New Roman,serif" font-size="16.00">Field Attributes</text>
<polyline fill="none" stroke="black" points="2605.5,-834.48 2811.5,-834.48 "/>
<text text-anchor="middle" x="2708.5" y="-817.68" font-family="Times New Roman,serif" font-size="16.00">Pointer to Field Type</text>
<polyline fill="none" stroke="black" points="2605.5,-808.48 2811.5,-808.48 "/>
<text text-anchor="middle" x="2708.5" y="-791.68" font-family="Times New Roman,serif" font-size="16.00">~Address</text>
<polyline fill="none" stroke="black" points="2605.5,-782.48 2811.5,-782.48 "/>
<text text-anchor="middle" x="2708.5" y="-765.68" font-family="Times New Roman,serif" font-size="16.00">Offset / Size</text>
</g>
<!-- FieldsTable&#45;&gt;FieldDefinition -->
<g id="0" class="edge">
<title>FieldsTable:f2&#45;&gt;FieldDefinition:f0</title>
<path fill="none" stroke="black" d="M2414.41,-647.66C2484.4,-678.17 2503.47,-694.5 2547,-757.48 2589.77,-819.35 2531.55,-915.9 2594.33,-924.81"/>
<polygon fill="black" stroke="black" points="2594.29,-928.32 2604.5,-925.48 2594.75,-921.33 2594.29,-928.32"/>
</g>
<!-- InterfaceMethodTable -->
<g id="node16" class="node">
<title>InterfaceMethodTable</title>
<polygon fill="none" stroke="black" points="2601.5,-153.48 2601.5,-309.48 2815.5,-309.48 2815.5,-153.48 2601.5,-153.48"/>
<text text-anchor="middle" x="2708.5" y="-292.68" font-family="Times New Roman,serif" font-size="16.00">Interface Method Table</text>
<polyline fill="none" stroke="black" points="2601.5,-283.48 2815.5,-283.48 "/>
<text text-anchor="middle" x="2708.5" y="-266.68" font-family="Times New Roman,serif" font-size="16.00">Pointer to Interface Type</text>
<polyline fill="none" stroke="black" points="2601.5,-257.48 2815.5,-257.48 "/>
<text text-anchor="middle" x="2708.5" y="-240.68" font-family="Times New Roman,serif" font-size="16.00">Number of Methods</text>
<polyline fill="none" stroke="black" points="2601.5,-231.48 2815.5,-231.48 "/>
<text text-anchor="middle" x="2708.5" y="-214.68" font-family="Times New Roman,serif" font-size="16.00">Pointer to Method Definition 1</text>
<polyline fill="none" stroke="black" points="2601.5,-205.48 2815.5,-205.48 "/>
<text text-anchor="middle" x="2708.5" y="-188.68" font-family="Times New Roman,serif" font-size="16.00">..</text>
<polyline fill="none" stroke="black" points="2601.5,-179.48 2815.5,-179.48 "/>
<text text-anchor="middle" x="2708.5" y="-162.68" font-family="Times New Roman,serif" font-size="16.00">Pointer to Method Definition N</text>
</g>
<!-- InterfaceSlotTable&#45;&gt;InterfaceMethodTable -->
<g id="0" class="edge">
<title>InterfaceSlotTable:f2&#45;&gt;InterfaceMethodTable:f0</title>
<path fill="none" stroke="black" d="M2436,-142.48C2532.63,-142.48 2502.7,-285.84 2590.43,-295.92"/>
<polygon fill="black" stroke="black" points="2590.32,-299.42 2600.5,-296.48 2590.71,-292.43 2590.32,-299.42"/>
</g>
<!-- FieldDefinition&#45;&gt;NameString -->
<g id="0" class="edge">
<title>FieldDefinition:f1&#45;&gt;NameString:f0</title>
<path fill="none" stroke="red" d="M2812.5,-899.48C2858.83,-899.48 2860.67,-855.48 2907,-855.48 2907,-855.48 2907,-855.48 3714,-855.48 3747.49,-855.48 3758.31,-855.48 3787.37,-855.48"/>
<polygon fill="red" stroke="red" points="3787.5,-858.98 3797.5,-855.48 3787.5,-851.98 3787.5,-858.98"/>
</g>
<!-- FieldDefinition&#45;&gt;CustomAttributesTable -->
<g id="0" class="edge">
<title>FieldDefinition:f2&#45;&gt;CustomAttributesTable:f0</title>
<path fill="none" stroke="black" d="M2604.5,-873.48C2549.85,-873.48 2175.65,-963.48 2121,-963.48 1007,-963.48 1007,-963.48 1007,-963.48 987.4,-963.48 984.07,-953.13 970,-939.48 952.82,-922.81 959.18,-896.82 944.09,-889.47"/>
<polygon fill="black" stroke="black" points="944.49,-885.98 934,-887.48 943.13,-892.85 944.49,-885.98"/>
</g>
<!-- FieldDefinition&#45;&gt;TypeDefinition -->
<g id="0" class="edge">
<title>FieldDefinition:f4&#45;&gt;TypeDefinition:f0</title>
<path fill="none" stroke="blue" d="M2604.5,-821.48C2556.98,-821.48 2557.52,-771.48 2510,-771.48 2120,-771.48 2120,-771.48 2120,-771.48 2084.61,-771.48 2085.38,-639.76 2056.49,-616.1"/>
<polygon fill="blue" stroke="blue" points="2057.59,-612.77 2047,-612.48 2055.1,-619.31 2057.59,-612.77"/>
</g>
<!-- PropertyDefinition&#45;&gt;NameString -->
<g id="0" class="edge">
<title>PropertyDefinition:f1&#45;&gt;NameString:f0</title>
<path fill="none" stroke="red" d="M2834,-510.48C2897.73,-510.48 2880.27,-602.48 2944,-602.48 2944,-602.48 2944,-602.48 3714,-602.48 3769.62,-602.48 3742.18,-825.77 3787.74,-852.81"/>
<polygon fill="red" stroke="red" points="3786.93,-856.21 3797.5,-855.48 3788.78,-849.46 3786.93,-856.21"/>
</g>
<!-- PropertyDefinition&#45;&gt;CustomAttributesTable -->
<g id="0" class="edge">
<title>PropertyDefinition:f2&#45;&gt;CustomAttributesTable:f0</title>
<path fill="none" stroke="black" d="M2583,-484.48C2568.1,-484.48 2517.05,-729.35 2510,-742.48 2429.9,-891.51 2327.2,-887.48 2158,-887.48 1007,-887.48 1007,-887.48 1007,-887.48 978.23,-887.48 968.59,-887.48 944.16,-887.48"/>
<polygon fill="black" stroke="black" points="944,-883.98 934,-887.48 944,-890.98 944,-883.98"/>
</g>
<!-- PropertyDefinition&#45;&gt;TypeDefinition -->
<g id="0" class="edge">
<title>PropertyDefinition:f4&#45;&gt;TypeDefinition:f0</title>
<path fill="none" stroke="blue" d="M2583,-432.48C2515.25,-432.48 2577.75,-728.48 2510,-728.48 2120,-728.48 2120,-728.48 2120,-728.48 2062.89,-728.48 2102.24,-626.52 2057.19,-613.78"/>
<polygon fill="blue" stroke="blue" points="2057.36,-610.27 2047,-612.48 2056.48,-617.22 2057.36,-610.27"/>
</g>
<!-- PropertyDefinition&#45;&gt;MethodDefinition -->
<g id="0" class="edge">
<title>PropertyDefinition:f5&#45;&gt;MethodDefinition:f0</title>
<path fill="none" stroke="green" d="M2834,-406.48C2850.61,-406.48 2853.6,-413.86 2870,-416.48 2915.24,-423.68 2929.57,-421.82 2970.84,-421.51"/>
<polygon fill="green" stroke="green" points="2971.01,-425.01 2981,-421.48 2970.99,-418.01 2971.01,-425.01"/>
</g>
<!-- PropertyDefinition&#45;&gt;MethodDefinition -->
<g id="0" class="edge">
<title>PropertyDefinition:f6&#45;&gt;MethodDefinition:f0</title>
<path fill="none" stroke="green" d="M2834,-380.48C2898.25,-380.48 2911.82,-417.27 2970.72,-421.15"/>
<polygon fill="green" stroke="green" points="2970.89,-424.65 2981,-421.48 2971.12,-417.66 2970.89,-424.65"/>
</g>
<!-- MethodLookupTable -->
<g id="node13" class="node">
<title>MethodLookupTable</title>
<polygon fill="none" stroke="black" points="2585,-568.48 2585,-698.48 2832,-698.48 2832,-568.48 2585,-568.48"/>
<text text-anchor="middle" x="2708.5" y="-681.68" font-family="Times New Roman,serif" font-size="16.00">Method Lookup Table</text>
<polyline fill="none" stroke="black" points="2585,-672.48 2832,-672.48 "/>
<text text-anchor="middle" x="2708.5" y="-655.68" font-family="Times New Roman,serif" font-size="16.00">Number of Methods</text>
<polyline fill="none" stroke="black" points="2585,-646.48 2832,-646.48 "/>
<text text-anchor="middle" x="2708.5" y="-629.68" font-family="Times New Roman,serif" font-size="16.00">Pointer to Method (Starting Address)</text>
<polyline fill="none" stroke="black" points="2585,-620.48 2832,-620.48 "/>
<text text-anchor="middle" x="2708.5" y="-603.68" font-family="Times New Roman,serif" font-size="16.00">Method Size</text>
<polyline fill="none" stroke="black" points="2585,-594.48 2832,-594.48 "/>
<text text-anchor="middle" x="2708.5" y="-577.68" font-family="Times New Roman,serif" font-size="16.00">Pointer to Method Definition</text>
</g>
<!-- MethodLookupTable&#45;&gt;MethodDefinition -->
<g id="0" class="edge">
<title>MethodLookupTable:f3&#45;&gt;MethodDefinition:f0</title>
<path fill="none" stroke="green" d="M2833.5,-581.48C2878.55,-581.48 2925.71,-442.6 2971.05,-423.62"/>
<polygon fill="green" stroke="green" points="2971.96,-427 2981,-421.48 2970.49,-420.16 2971.96,-427"/>
</g>
<!-- ProtectedRegionDefinition -->
<g id="node15" class="node">
<title>ProtectedRegionDefinition</title>
<polygon fill="none" stroke="black" points="3787,-63.48 3787,-219.48 3980,-219.48 3980,-63.48 3787,-63.48"/>
<text text-anchor="middle" x="3883.5" y="-202.68" font-family="Times New Roman,serif" font-size="16.00">Protected Region Definition</text>
<polyline fill="none" stroke="black" points="3787,-193.48 3980,-193.48 "/>
<text text-anchor="middle" x="3883.5" y="-176.68" font-family="Times New Roman,serif" font-size="16.00">Region Start</text>
<polyline fill="none" stroke="black" points="3787,-167.48 3980,-167.48 "/>
<text text-anchor="middle" x="3883.5" y="-150.68" font-family="Times New Roman,serif" font-size="16.00">Region End</text>
<polyline fill="none" stroke="black" points="3787,-141.48 3980,-141.48 "/>
<text text-anchor="middle" x="3883.5" y="-124.68" font-family="Times New Roman,serif" font-size="16.00">Region Handler</text>
<polyline fill="none" stroke="black" points="3787,-115.48 3980,-115.48 "/>
<text text-anchor="middle" x="3883.5" y="-98.68" font-family="Times New Roman,serif" font-size="16.00">Exception Handler Type</text>
<polyline fill="none" stroke="black" points="3787,-89.48 3980,-89.48 "/>
<text text-anchor="middle" x="3883.5" y="-72.68" font-family="Times New Roman,serif" font-size="16.00">Pointer to Exception Type</text>
</g>
<!-- ProtectedRegionTable&#45;&gt;ProtectedRegionDefinition -->
<g id="0" class="edge">
<title>ProtectedRegionTable:f2&#45;&gt;ProtectedRegionDefinition:f0</title>
<path fill="none" stroke="black" d="M3640,-232.48C3702.85,-232.48 3719,-209.15 3776.92,-206.69"/>
<polygon fill="black" stroke="black" points="3777.07,-210.18 3787,-206.48 3776.93,-203.18 3777.07,-210.18"/>
</g>
<!-- ProtectedRegionDefinition&#45;&gt;TypeDefinition -->
<g id="0" class="edge">
<title>ProtectedRegionDefinition:f5&#45;&gt;TypeDefinition:f0</title>
<path fill="none" stroke="blue" d="M3787,-76.48C3754.31,-76.48 3746.69,-67.48 3714,-67.48 2944,-67.48 2944,-67.48 2944,-67.48 2782.85,-67.48 2717.95,-13.39 2583,-101.48 2470.54,-174.88 2544.18,-285.9 2436,-365.48 2334.33,-440.26 2284.22,-423.48 2158,-423.48 2120,-423.48 2120,-423.48 2120,-423.48 2088.29,-423.48 2095.63,-455.39 2083,-484.48 2060.98,-535.19 2100.38,-603.04 2057.16,-611.58"/>
<polygon fill="blue" stroke="blue" points="2056.65,-608.11 2047,-612.48 2057.27,-615.08 2056.65,-608.11"/>
</g>
<!-- InterfaceMethodTable&#45;&gt;TypeDefinition -->
<g id="0" class="edge">
<title>InterfaceMethodTable:f1&#45;&gt;TypeDefinition:f0</title>
<path fill="none" stroke="blue" d="M2600.5,-270.48C2493.96,-270.48 2554.03,-404.3 2473,-473.48 2415.3,-522.74 2391.87,-540.48 2316,-540.48 2120,-540.48 2120,-540.48 2120,-540.48 2102.42,-540.48 2096.58,-543.3 2083,-554.48 2062.87,-571.04 2073.16,-601.97 2057.19,-610.34"/>
<polygon fill="blue" stroke="blue" points="2056.07,-607 2047,-612.48 2057.51,-613.85 2056.07,-607"/>
</g>
<!-- InterfaceMethodTable&#45;&gt;MethodDefinition -->
<g id="0" class="edge">
<title>InterfaceMethodTable:f3&#45;&gt;MethodDefinition:f0</title>
<path fill="none" stroke="green" d="M2816.5,-218.48C2898.37,-218.48 2897.39,-283.87 2945,-350.48 2963.24,-376 2949.62,-412.08 2970.97,-419.93"/>
<polygon fill="green" stroke="green" points="2970.58,-423.41 2981,-421.48 2971.65,-416.5 2970.58,-423.41"/>
</g>
<!-- ParameterDefinition&#45;&gt;NameString -->
<g id="0" class="edge">
<title>ParameterDefinition:f1&#45;&gt;NameString:f0</title>
<path fill="none" stroke="red" d="M3608.5,-975.48C3655.04,-975.48 3736.38,-870.45 3787.41,-856.91"/>
<polygon fill="red" stroke="red" points="3788.09,-860.35 3797.5,-855.48 3787.11,-853.41 3788.09,-860.35"/>
</g>
<!-- ParameterDefinition&#45;&gt;CustomAttributesTable -->
<g id="0" class="edge">
<title>ParameterDefinition:f2&#45;&gt;CustomAttributesTable:f0</title>
<path fill="none" stroke="black" d="M3400.5,-949.48C3314.5,-949.48 3345,-1081.48 3259,-1081.48 1007,-1081.48 1007,-1081.48 1007,-1081.48 964.54,-1081.48 977.47,-916.6 943.66,-890.84"/>
<polygon fill="black" stroke="black" points="944.59,-887.46 934,-887.48 942.29,-894.07 944.59,-887.46"/>
</g>
<!-- ParameterDefinition&#45;&gt;TypeDefinition -->
<g id="0" class="edge">
<title>ParameterDefinition:f4&#45;&gt;TypeDefinition:f0</title>
<path fill="none" stroke="blue" d="M3400.5,-897.48C3344.6,-897.48 3351.9,-967.48 3296,-967.48 2870,-967.48 2870,-967.48 2870,-967.48 2742.17,-967.48 2702.61,-993.6 2583,-948.48 2505.9,-919.39 2512.81,-865.33 2436,-835.48 2320.41,-790.54 2282.02,-811.48 2158,-811.48 2120,-811.48 2120,-811.48 2120,-811.48 2076.58,-811.48 2091.21,-642.36 2056.85,-615.93"/>
<polygon fill="blue" stroke="blue" points="2057.59,-612.48 2047,-612.48 2055.28,-619.09 2057.59,-612.48"/>
</g>
<!-- CustomAttribute&#45;&gt;TypeDefinition -->
<g id="0" class="edge">
<title>CustomAttribute:f1&#45;&gt;TypeDefinition:f0</title>
<path fill="none" stroke="blue" d="M1290,-625.48C1322.64,-625.48 1330.36,-617.48 1363,-617.48 1363,-617.48 1363,-617.48 1401,-617.48 1565.13,-617.48 1608.66,-612.68 1767.85,-612.48"/>
<polygon fill="blue" stroke="blue" points="1768,-615.98 1778,-612.48 1768,-608.98 1768,-615.98"/>
</g>
<!-- CustomAttribute&#45;&gt;MethodDefinition -->
<g id="0" class="edge">
<title>CustomAttribute:f2&#45;&gt;MethodDefinition:f0</title>
<path fill="none" stroke="green" d="M1290,-599.48C1370.79,-599.48 1706.72,-98.5 1778,-60.48 1913.53,11.83 1966.38,-10.48 2120,-10.48 2120,-10.48 2120,-10.48 2547,-10.48 2675.5,-10.48 2729.12,28.77 2834,-45.48 2924.68,-109.68 2907.29,-164.96 2945,-269.48 2967.28,-331.21 2917.57,-412.06 2970.71,-420.72"/>
<polygon fill="green" stroke="green" points="2970.77,-424.23 2981,-421.48 2971.29,-417.25 2970.77,-424.23"/>
</g>
<!-- CustomAttributeArgument -->
<g id="node20" class="node">
<title>CustomAttributeArgument</title>
<polygon fill="none" stroke="black" points="1437,-646.48 1437,-802.48 1631,-802.48 1631,-646.48 1437,-646.48"/>
<text text-anchor="middle" x="1534" y="-785.68" font-family="Times New Roman,serif" font-size="16.00">Custom Attribute Argument</text>
<polyline fill="none" stroke="black" points="1437,-776.48 1631,-776.48 "/>
<text text-anchor="middle" x="1534" y="-759.68" font-family="Times New Roman,serif" font-size="16.00">~Pointer to Argument Name</text>
<polyline fill="none" stroke="black" points="1437,-750.48 1631,-750.48 "/>
<text text-anchor="middle" x="1534" y="-733.68" font-family="Times New Roman,serif" font-size="16.00">Is Argument a Field</text>
<polyline fill="none" stroke="black" points="1437,-724.48 1631,-724.48 "/>
<text text-anchor="middle" x="1534" y="-707.68" font-family="Times New Roman,serif" font-size="16.00">Pointer to Argument Type</text>
<polyline fill="none" stroke="black" points="1437,-698.48 1631,-698.48 "/>
<text text-anchor="middle" x="1534" y="-681.68" font-family="Times New Roman,serif" font-size="16.00">Argument Size</text>
<polyline fill="none" stroke="black" points="1437,-672.48 1631,-672.48 "/>
<text text-anchor="middle" x="1534" y="-655.68" font-family="Times New Roman,serif" font-size="16.00">Argument</text>
</g>
<!-- CustomAttribute&#45;&gt;CustomAttributeArgument -->
<g id="0" class="edge">
<title>CustomAttribute:f4&#45;&gt;CustomAttributeArgument:f0</title>
<path fill="none" stroke="black" d="M1290,-547.48C1412.28,-547.48 1316.9,-775.96 1426.85,-788.9"/>
<polygon fill="black" stroke="black" points="1426.82,-792.41 1437,-789.48 1427.21,-785.42 1426.82,-792.41"/>
</g>
<!-- CustomAttributeArgument&#45;&gt;NameString -->
<g id="0" class="edge">
<title>CustomAttributeArgument:f1&#45;&gt;NameString:f0</title>
<path fill="none" stroke="red" d="M1631,-763.48C1681.14,-763.48 1653.86,-849.48 1704,-849.48 1704,-849.48 1704,-849.48 2158,-849.48 2485.98,-849.48 2542.02,-1043.48 2870,-1043.48 2870,-1043.48 2870,-1043.48 3714,-1043.48 3801.68,-1043.48 3713.9,-870.58 3787.19,-856.4"/>
<polygon fill="red" stroke="red" points="3787.85,-859.85 3797.5,-855.48 3787.23,-852.88 3787.85,-859.85"/>
</g>
<!-- CustomAttributeArgument&#45;&gt;TypeDefinition -->
<g id="0" class="edge">
<title>CustomAttributeArgument:f3&#45;&gt;TypeDefinition:f0</title>
<path fill="none" stroke="blue" d="M1631,-711.48C1639.58,-711.48 1737.28,-636.35 1768.84,-616.99"/>
<polygon fill="blue" stroke="blue" points="1770.58,-620.03 1778,-612.48 1767.48,-613.75 1770.58,-620.03"/>
</g>
</g>
</svg>
