<?xml version="1.0" encoding="UTF-8" standalone="no"?>
<!DOCTYPE svg PUBLIC "-//W3C//DTD SVG 1.1//EN"
 "http://www.w3.org/Graphics/SVG/1.1/DTD/svg11.dtd">
<!-- Generated by graphviz version 8.0.2 (0)
 -->
<!-- Title: MOSA Runtime Tables Pages: 1 -->
<svg width="4728pt" height="1135pt"
 viewBox="0.00 0.00 4728.00 1134.87" xmlns="http://www.w3.org/2000/svg" xmlns:xlink="http://www.w3.org/1999/xlink">
<g id="graph0" class="graph" transform="scale(1 1) rotate(0) translate(4 1130.87)">
<title>MOSA Runtime Tables</title>
<polygon fill="white" stroke="none" points="-4,4 -4,-1130.87 4724,-1130.87 4724,4 -4,4"/>
<!-- Key -->
<g id="node1" class="node">
<title>Key</title>
<polygon fill="none" stroke="black" points="0,-628.87 0,-698.87 296,-698.87 296,-628.87 0,-628.87"/>
<text text-anchor="middle" x="148" y="-682.07" font-family="Times,serif" font-size="16.00">Key</text>
<polyline fill="none" stroke="black" points="0,-672.87 296,-672.87"/>
<text text-anchor="middle" x="148" y="-656.07" font-family="Times,serif" font-size="16.00">~ Denotes field may be zero filled</text>
<text text-anchor="middle" x="148" y="-638.07" font-family="Times,serif" font-size="16.00">due to no value being available.</text>
</g>
<!-- NameString -->
<g id="node2" class="node">
<title>NameString</title>
<polygon fill="none" stroke="red" points="4488.5,-745.87 4488.5,-875.87 4705.5,-875.87 4705.5,-745.87 4488.5,-745.87"/>
<text text-anchor="middle" x="4597" y="-859.07" font-family="Times,serif" font-size="16.00">String Object</text>
<polyline fill="none" stroke="red" points="4488.5,-849.87 4705.5,-849.87"/>
<text text-anchor="middle" x="4597" y="-833.07" font-family="Times,serif" font-size="16.00">Object Header</text>
<polyline fill="none" stroke="red" points="4488.5,-823.87 4705.5,-823.87"/>
<text text-anchor="middle" x="4597" y="-807.07" font-family="Times,serif" font-size="16.00">Pointer to Method Table</text>
<polyline fill="none" stroke="red" points="4488.5,-797.87 4705.5,-797.87"/>
<text text-anchor="middle" x="4597" y="-781.07" font-family="Times,serif" font-size="16.00">String Length</text>
<polyline fill="none" stroke="red" points="4488.5,-771.87 4705.5,-771.87"/>
<text text-anchor="middle" x="4597" y="-755.07" font-family="Times,serif" font-size="16.00">Unicode String</text>
</g>
<!-- AssemblyListTable -->
<g id="node3" class="node">
<title>AssemblyListTable</title>
<polygon fill="none" stroke="black" points="47,-717.87 47,-847.87 249,-847.87 249,-717.87 47,-717.87"/>
<text text-anchor="middle" x="148" y="-831.07" font-family="Times,serif" font-size="16.00">Assembly Table</text>
<polyline fill="none" stroke="black" points="47,-821.87 249,-821.87"/>
<text text-anchor="middle" x="148" y="-805.07" font-family="Times,serif" font-size="16.00">Number of Assemblies</text>
<polyline fill="none" stroke="black" points="47,-795.87 249,-795.87"/>
<text text-anchor="middle" x="148" y="-779.07" font-family="Times,serif" font-size="16.00">Pointer to Assembly 1</text>
<polyline fill="none" stroke="black" points="47,-769.87 249,-769.87"/>
<text text-anchor="middle" x="148" y="-753.07" font-family="Times,serif" font-size="16.00">..</text>
<polyline fill="none" stroke="black" points="47,-743.87 249,-743.87"/>
<text text-anchor="middle" x="148" y="-727.07" font-family="Times,serif" font-size="16.00">Pointer to Assembly N</text>
</g>
<!-- AssemblyDefinition -->
<g id="node4" class="node">
<title>AssemblyDefinition</title>
<polygon fill="none" stroke="black" points="443,-587.87 443,-795.87 710,-795.87 710,-587.87 443,-587.87"/>
<text text-anchor="middle" x="576.5" y="-779.07" font-family="Times,serif" font-size="16.00">Assembly</text>
<polyline fill="none" stroke="black" points="443,-769.87 710,-769.87"/>
<text text-anchor="middle" x="576.5" y="-753.07" font-family="Times,serif" font-size="16.00">Pointer to Assembly Name</text>
<polyline fill="none" stroke="black" points="443,-743.87 710,-743.87"/>
<text text-anchor="middle" x="576.5" y="-727.07" font-family="Times,serif" font-size="16.00">~Pointer to Custom Attributes</text>
<polyline fill="none" stroke="black" points="443,-717.87 710,-717.87"/>
<text text-anchor="middle" x="576.5" y="-701.07" font-family="Times,serif" font-size="16.00">Flags: IsReflectionOnly</text>
<polyline fill="none" stroke="black" points="443,-691.87 710,-691.87"/>
<text text-anchor="middle" x="576.5" y="-675.07" font-family="Times,serif" font-size="16.00">Number of Types</text>
<polyline fill="none" stroke="black" points="443,-665.87 710,-665.87"/>
<text text-anchor="middle" x="576.5" y="-649.07" font-family="Times,serif" font-size="16.00">Pointer to Type Definition 1</text>
<polyline fill="none" stroke="black" points="443,-639.87 710,-639.87"/>
<text text-anchor="middle" x="576.5" y="-623.07" font-family="Times,serif" font-size="16.00">...</text>
<polyline fill="none" stroke="black" points="443,-613.87 710,-613.87"/>
<text text-anchor="middle" x="576.5" y="-597.07" font-family="Times,serif" font-size="16.00">Pointer to Type Definition N</text>
</g>
<!-- AssemblyListTable&#45;&gt;AssemblyDefinition -->
<g id="0" class="edge">
<title>AssemblyListTable:f2&#45;&gt;AssemblyDefinition:f0</title>
<path fill="none" stroke="black" d="M250,-782.87C332.09,-782.87 355.26,-782.87 432.29,-782.87"/>
<polygon fill="black" stroke="black" points="432,-786.37 442,-782.87 432,-779.37 432,-786.37"/>
</g>
<!-- AssemblyDefinition&#45;&gt;NameString -->
<g id="0" class="edge">
<title>AssemblyDefinition:f1&#45;&gt;NameString:f0</title>
<path fill="none" stroke="red" d="M710,-756.87C877.61,-756.87 615.39,-1126.87 783,-1126.87 783,-1126.87 783,-1126.87 4401,-1126.87 4458.84,-1126.87 4429.59,-894.84 4476.54,-865.83"/>
<polygon fill="red" stroke="red" points="4477.33,-868.96 4486,-862.87 4475.42,-862.23 4477.33,-868.96"/>
</g>
<!-- CustomAttributesTable -->
<g id="node5" class="node">
<title>CustomAttributesTable</title>
<polygon fill="none" stroke="black" points="857,-777.87 857,-907.87 1122,-907.87 1122,-777.87 857,-777.87"/>
<text text-anchor="middle" x="989.5" y="-891.07" font-family="Times,serif" font-size="16.00">Custom Attributes Table</text>
<polyline fill="none" stroke="black" points="857,-881.87 1122,-881.87"/>
<text text-anchor="middle" x="989.5" y="-865.07" font-family="Times,serif" font-size="16.00">Number of Attributes</text>
<polyline fill="none" stroke="black" points="857,-855.87 1122,-855.87"/>
<text text-anchor="middle" x="989.5" y="-839.07" font-family="Times,serif" font-size="16.00">Pointer to Custom Attribute 1</text>
<polyline fill="none" stroke="black" points="857,-829.87 1122,-829.87"/>
<text text-anchor="middle" x="989.5" y="-813.07" font-family="Times,serif" font-size="16.00">...</text>
<polyline fill="none" stroke="black" points="857,-803.87 1122,-803.87"/>
<text text-anchor="middle" x="989.5" y="-787.07" font-family="Times,serif" font-size="16.00">Pointer to Custom Attribute N</text>
</g>
<!-- AssemblyDefinition&#45;&gt;CustomAttributesTable -->
<g id="0" class="edge">
<title>AssemblyDefinition:f2&#45;&gt;CustomAttributesTable:f0</title>
<path fill="none" stroke="black" d="M710,-730.87C804.06,-730.87 762.7,-882.31 846.18,-894.14"/>
<polygon fill="black" stroke="black" points="845.79,-897.68 856,-894.87 846.26,-890.7 845.79,-897.68"/>
</g>
<!-- TypeDefinition -->
<g id="node6" class="node">
<title>TypeDefinition</title>
<polygon fill="none" stroke="blue" points="2085,-77.87 2085,-641.87 2435,-641.87 2435,-77.87 2085,-77.87"/>
<text text-anchor="middle" x="2260" y="-625.07" font-family="Times,serif" font-size="16.00">Type Definition</text>
<text text-anchor="middle" x="2260" y="-607.07" font-family="Times,serif" font-size="16.00">(contains Method Table)</text>
<polyline fill="none" stroke="blue" points="2085,-597.87 2435,-597.87"/>
<text text-anchor="middle" x="2260" y="-581.07" font-family="Times,serif" font-size="16.00">Pointer to Type Name</text>
<polyline fill="none" stroke="blue" points="2085,-571.87 2435,-571.87"/>
<text text-anchor="middle" x="2260" y="-555.07" font-family="Times,serif" font-size="16.00">~Pointer to Custom Attributes</text>
<polyline fill="none" stroke="blue" points="2085,-545.87 2435,-545.87"/>
<text text-anchor="middle" x="2260" y="-529.07" font-family="Times,serif" font-size="16.00">Type Code &amp; Attributes</text>
<polyline fill="none" stroke="blue" points="2085,-519.87 2435,-519.87"/>
<text text-anchor="middle" x="2260" y="-503.07" font-family="Times,serif" font-size="16.00">Type Size</text>
<polyline fill="none" stroke="blue" points="2085,-493.87 2435,-493.87"/>
<text text-anchor="middle" x="2260" y="-477.07" font-family="Times,serif" font-size="16.00">Pointer to Assembly</text>
<polyline fill="none" stroke="blue" points="2085,-467.87 2435,-467.87"/>
<text text-anchor="middle" x="2260" y="-451.07" font-family="Times,serif" font-size="16.00">~Pointer to Parent Type</text>
<polyline fill="none" stroke="blue" points="2085,-441.87 2435,-441.87"/>
<text text-anchor="middle" x="2260" y="-425.07" font-family="Times,serif" font-size="16.00">~Pointer to Declaring Type</text>
<polyline fill="none" stroke="blue" points="2085,-415.87 2435,-415.87"/>
<text text-anchor="middle" x="2260" y="-399.07" font-family="Times,serif" font-size="16.00">~Pointer to Element Type</text>
<polyline fill="none" stroke="blue" points="2085,-389.87 2435,-389.87"/>
<text text-anchor="middle" x="2260" y="-373.07" font-family="Times,serif" font-size="16.00">~Pointer to Default Constructor Method</text>
<polyline fill="none" stroke="blue" points="2085,-363.87 2435,-363.87"/>
<text text-anchor="middle" x="2260" y="-347.07" font-family="Times,serif" font-size="16.00">~Pointer to Properties Table</text>
<polyline fill="none" stroke="blue" points="2085,-337.87 2435,-337.87"/>
<text text-anchor="middle" x="2260" y="-321.07" font-family="Times,serif" font-size="16.00">~Pointer to Fields Table</text>
<polyline fill="none" stroke="blue" points="2085,-311.87 2435,-311.87"/>
<text text-anchor="middle" x="2260" y="-295.07" font-family="Times,serif" font-size="16.00">~Pointer to Interface Slot Table</text>
<polyline fill="none" stroke="blue" points="2085,-285.87 2435,-285.87"/>
<text text-anchor="middle" x="2260" y="-269.07" font-family="Times,serif" font-size="16.00">~Pointer to Interface Bitmap</text>
<polyline fill="none" stroke="blue" points="2085,-259.87 2435,-259.87"/>
<text text-anchor="middle" x="2260" y="-243.07" font-family="Times,serif" font-size="16.00">Number of Methods</text>
<polyline fill="none" stroke="blue" points="2085,-233.87 2435,-233.87"/>
<text text-anchor="middle" x="2260" y="-217.07" font-family="Times,serif" font-size="16.00">Pointer to Method 1</text>
<polyline fill="none" stroke="blue" points="2085,-207.87 2435,-207.87"/>
<text text-anchor="middle" x="2260" y="-191.07" font-family="Times,serif" font-size="16.00">...</text>
<polyline fill="none" stroke="blue" points="2085,-181.87 2435,-181.87"/>
<text text-anchor="middle" x="2260" y="-165.07" font-family="Times,serif" font-size="16.00">Pointer to Method N</text>
<polyline fill="none" stroke="blue" points="2085,-155.87 2435,-155.87"/>
<text text-anchor="middle" x="2260" y="-139.07" font-family="Times,serif" font-size="16.00">Pointer to Method Definition 1</text>
<polyline fill="none" stroke="blue" points="2085,-129.87 2435,-129.87"/>
<text text-anchor="middle" x="2260" y="-113.07" font-family="Times,serif" font-size="16.00">...</text>
<polyline fill="none" stroke="blue" points="2085,-103.87 2435,-103.87"/>
<text text-anchor="middle" x="2260" y="-87.07" font-family="Times,serif" font-size="16.00">Pointer to Method Definition N</text>
</g>
<!-- AssemblyDefinition&#45;&gt;TypeDefinition -->
<g id="0" class="edge">
<title>AssemblyDefinition:f5&#45;&gt;TypeDefinition:f0</title>
<path fill="none" stroke="blue" d="M710,-652.87C801.29,-652.87 691.71,-460.87 783,-460.87 783,-460.87 783,-460.87 1233,-460.87 1369.26,-460.87 1404.4,-458.63 1539,-479.87 1598.02,-489.18 1984.44,-608.17 2074.18,-619.07"/>
<polygon fill="blue" stroke="blue" points="2073.77,-622.62 2084,-619.87 2074.28,-615.64 2073.77,-622.62"/>
</g>
<!-- CustomAttribute -->
<g id="node19" class="node">
<title>CustomAttribute</title>
<polygon fill="none" stroke="black" points="1269,-489.87 1269,-671.87 1539,-671.87 1539,-489.87 1269,-489.87"/>
<text text-anchor="middle" x="1404" y="-655.07" font-family="Times,serif" font-size="16.00">Custom Attribute</text>
<polyline fill="none" stroke="black" points="1269,-645.87 1539,-645.87"/>
<text text-anchor="middle" x="1404" y="-629.07" font-family="Times,serif" font-size="16.00">Pointer to Attribute Type</text>
<polyline fill="none" stroke="black" points="1269,-619.87 1539,-619.87"/>
<text text-anchor="middle" x="1404" y="-603.07" font-family="Times,serif" font-size="16.00">Pointer to Constructor Method</text>
<polyline fill="none" stroke="black" points="1269,-593.87 1539,-593.87"/>
<text text-anchor="middle" x="1404" y="-577.07" font-family="Times,serif" font-size="16.00">Number of Arguments</text>
<polyline fill="none" stroke="black" points="1269,-567.87 1539,-567.87"/>
<text text-anchor="middle" x="1404" y="-551.07" font-family="Times,serif" font-size="16.00">Pointer to Argument 1</text>
<polyline fill="none" stroke="black" points="1269,-541.87 1539,-541.87"/>
<text text-anchor="middle" x="1404" y="-525.07" font-family="Times,serif" font-size="16.00">...</text>
<polyline fill="none" stroke="black" points="1269,-515.87 1539,-515.87"/>
<text text-anchor="middle" x="1404" y="-499.07" font-family="Times,serif" font-size="16.00">Pointer to Argument N</text>
</g>
<!-- CustomAttributesTable&#45;&gt;CustomAttribute -->
<g id="0" class="edge">
<title>CustomAttributesTable:f2&#45;&gt;CustomAttribute:f0</title>
<path fill="none" stroke="black" d="M1122,-842.87C1176.83,-842.87 1124.16,-768.01 1158,-724.87 1191.07,-682.71 1209.11,-661.74 1258.07,-659.14"/>
<polygon fill="black" stroke="black" points="1258.09,-662.62 1268,-658.87 1257.91,-655.62 1258.09,-662.62"/>
</g>
<!-- TypeDefinition&#45;&gt;NameString -->
<g id="0" class="edge">
<title>TypeDefinition:f1&#45;&gt;NameString:f0</title>
<path fill="none" stroke="red" d="M2435,-584.87C2481.52,-584.87 2461.48,-509.87 2508,-509.87 2508,-509.87 2508,-509.87 2741.5,-509.87 2815.94,-509.87 2836.31,-526.71 2899,-566.87 2977.33,-617.04 2961.14,-677.76 3046,-715.87 3194.19,-782.41 3248.56,-734.87 3411,-734.87 3411,-734.87 3411,-734.87 4401,-734.87 4465.52,-734.87 4424.04,-848.31 4476.14,-861.6"/>
<polygon fill="red" stroke="red" points="4475.66,-865.19 4486,-862.87 4476.47,-858.23 4475.66,-865.19"/>
</g>
<!-- TypeDefinition&#45;&gt;AssemblyDefinition -->
<g id="0" class="edge">
<title>TypeDefinition:f5&#45;&gt;AssemblyDefinition:f0</title>
<path fill="none" stroke="black" d="M2085,-480.87C1904.14,-480.87 1840.06,-466.12 1686,-560.87 1618.59,-602.32 1655.13,-700.87 1576,-700.87 783,-700.87 783,-700.87 783,-700.87 760.06,-700.87 761.33,-719.79 746,-736.87 731.64,-752.87 734.18,-773.91 720.73,-780.68"/>
<polygon fill="black" stroke="black" points="720.1,-777.44 711,-782.87 721.5,-784.3 720.1,-777.44"/>
</g>
<!-- TypeDefinition&#45;&gt;CustomAttributesTable -->
<g id="0" class="edge">
<title>TypeDefinition:f2&#45;&gt;CustomAttributesTable:f0</title>
<path fill="none" stroke="black" d="M2085,-558.87C1903.69,-558.87 1845.92,-558.42 1686,-643.87 1676.02,-649.2 1621.84,-707.81 1613,-714.87 1597.68,-727.09 1595.6,-738.87 1576,-738.87 1195,-738.87 1195,-738.87 1195,-738.87 1122.49,-738.87 1190.54,-878.85 1132.85,-893.61"/>
<polygon fill="black" stroke="black" points="1132.53,-890.24 1123,-894.87 1133.34,-897.19 1132.53,-890.24"/>
</g>
<!-- TypeDefinition&#45;&gt;TypeDefinition -->
<g id="0" class="edge">
<title>TypeDefinition:f6&#45;&gt;TypeDefinition:f0</title>
<path fill="none" stroke="blue" d="M2085.22,-458.31C2026.41,-468.56 1979.25,-491.44 1979.25,-537.37 1979.25,-580.52 2020.87,-603.32 2074.67,-614.42"/>
<polygon fill="blue" stroke="blue" points="2073.74,-618 2084.22,-616.43 2075.05,-611.12 2073.74,-618"/>
</g>
<!-- MethodDefinition -->
<g id="node7" class="node">
<title>MethodDefinition</title>
<polygon fill="none" stroke="green" points="3522,-103.87 3522,-441.87 3832,-441.87 3832,-103.87 3522,-103.87"/>
<text text-anchor="middle" x="3677" y="-425.07" font-family="Times,serif" font-size="16.00">Method Definition</text>
<polyline fill="none" stroke="green" points="3522,-415.87 3832,-415.87"/>
<text text-anchor="middle" x="3677" y="-399.07" font-family="Times,serif" font-size="16.00">Pointer to Method Name</text>
<polyline fill="none" stroke="green" points="3522,-389.87 3832,-389.87"/>
<text text-anchor="middle" x="3677" y="-373.07" font-family="Times,serif" font-size="16.00">~Pointer to Custom Attributes</text>
<polyline fill="none" stroke="green" points="3522,-363.87 3832,-363.87"/>
<text text-anchor="middle" x="3677" y="-347.07" font-family="Times,serif" font-size="16.00">Method Attributes</text>
<polyline fill="none" stroke="green" points="3522,-337.87 3832,-337.87"/>
<text text-anchor="middle" x="3677" y="-321.07" font-family="Times,serif" font-size="16.00">Local &amp; Parameter Stack Size</text>
<polyline fill="none" stroke="green" points="3522,-311.87 3832,-311.87"/>
<text text-anchor="middle" x="3677" y="-295.07" font-family="Times,serif" font-size="16.00">Pointer to Method</text>
<polyline fill="none" stroke="green" points="3522,-285.87 3832,-285.87"/>
<text text-anchor="middle" x="3677" y="-269.07" font-family="Times,serif" font-size="16.00">Pointer to Return Type Definition</text>
<polyline fill="none" stroke="green" points="3522,-259.87 3832,-259.87"/>
<text text-anchor="middle" x="3677" y="-243.07" font-family="Times,serif" font-size="16.00">~Pointer to Protected Region Table</text>
<polyline fill="none" stroke="green" points="3522,-233.87 3832,-233.87"/>
<text text-anchor="middle" x="3677" y="-217.07" font-family="Times,serif" font-size="16.00">Pointer to GC Tracking Information</text>
<polyline fill="none" stroke="green" points="3522,-207.87 3832,-207.87"/>
<text text-anchor="middle" x="3677" y="-191.07" font-family="Times,serif" font-size="16.00">Number of Parameters</text>
<polyline fill="none" stroke="green" points="3522,-181.87 3832,-181.87"/>
<text text-anchor="middle" x="3677" y="-165.07" font-family="Times,serif" font-size="16.00">Pointer to Parameter Definition 1</text>
<polyline fill="none" stroke="green" points="3522,-155.87 3832,-155.87"/>
<text text-anchor="middle" x="3677" y="-139.07" font-family="Times,serif" font-size="16.00">...</text>
<polyline fill="none" stroke="green" points="3522,-129.87 3832,-129.87"/>
<text text-anchor="middle" x="3677" y="-113.07" font-family="Times,serif" font-size="16.00">Pointer to Parameter Definition N</text>
</g>
<!-- TypeDefinition&#45;&gt;MethodDefinition -->
<g id="0" class="edge">
<title>TypeDefinition:f9&#45;&gt;MethodDefinition:f0</title>
<path fill="none" stroke="green" d="M2435,-376.87C2468.21,-376.87 2474.79,-392.87 2508,-392.87 2508,-392.87 2508,-392.87 2741.5,-392.87 3023.33,-392.87 3099.09,-307.41 3375,-364.87 3406.75,-371.48 3472.96,-419.07 3511.47,-427.57"/>
<polygon fill="green" stroke="green" points="3510.65,-431.12 3521,-428.87 3511.5,-424.17 3510.65,-431.12"/>
</g>
<!-- TypeDefinition&#45;&gt;MethodDefinition -->
<g id="0" class="edge">
<title>TypeDefinition:f16&#45;&gt;MethodDefinition:f0</title>
<path fill="none" stroke="black" d="M2435,-142.87C2485.48,-142.87 2457.52,-55.87 2508,-55.87 2508,-55.87 2508,-55.87 3010,-55.87 3177.63,-55.87 3233.09,-61.65 3375,-150.87 3439.61,-191.48 3451.33,-213.88 3486,-281.87 3514.71,-338.16 3461.88,-418.42 3511.15,-427.94"/>
<polygon fill="black" stroke="black" points="3510.74,-431.5 3521,-428.87 3511.34,-424.52 3510.74,-431.5"/>
</g>
<!-- PropertiesTable -->
<g id="node8" class="node">
<title>PropertiesTable</title>
<polygon fill="none" stroke="black" points="2600.5,-233.87 2600.5,-363.87 2880.5,-363.87 2880.5,-233.87 2600.5,-233.87"/>
<text text-anchor="middle" x="2740.5" y="-347.07" font-family="Times,serif" font-size="16.00">Properties Table</text>
<polyline fill="none" stroke="black" points="2600.5,-337.87 2880.5,-337.87"/>
<text text-anchor="middle" x="2740.5" y="-321.07" font-family="Times,serif" font-size="16.00">Number of Properties</text>
<polyline fill="none" stroke="black" points="2600.5,-311.87 2880.5,-311.87"/>
<text text-anchor="middle" x="2740.5" y="-295.07" font-family="Times,serif" font-size="16.00">Pointer to Property Definition 1</text>
<polyline fill="none" stroke="black" points="2600.5,-285.87 2880.5,-285.87"/>
<text text-anchor="middle" x="2740.5" y="-269.07" font-family="Times,serif" font-size="16.00">...</text>
<polyline fill="none" stroke="black" points="2600.5,-259.87 2880.5,-259.87"/>
<text text-anchor="middle" x="2740.5" y="-243.07" font-family="Times,serif" font-size="16.00">Pointer to Property Definition N</text>
</g>
<!-- TypeDefinition&#45;&gt;PropertiesTable -->
<g id="0" class="edge">
<title>TypeDefinition:f10&#45;&gt;PropertiesTable:f0</title>
<path fill="none" stroke="black" d="M2435,-350.87C2504.4,-350.87 2524.39,-350.87 2588.77,-350.87"/>
<polygon fill="black" stroke="black" points="2588.5,-354.37 2598.5,-350.87 2588.5,-347.37 2588.5,-354.37"/>
</g>
<!-- FieldsTable -->
<g id="node9" class="node">
<title>FieldsTable</title>
<polygon fill="none" stroke="black" points="2615,-576.87 2615,-706.87 2866,-706.87 2866,-576.87 2615,-576.87"/>
<text text-anchor="middle" x="2740.5" y="-690.07" font-family="Times,serif" font-size="16.00">Fields Table</text>
<polyline fill="none" stroke="black" points="2615,-680.87 2866,-680.87"/>
<text text-anchor="middle" x="2740.5" y="-664.07" font-family="Times,serif" font-size="16.00">Number of Fields</text>
<polyline fill="none" stroke="black" points="2615,-654.87 2866,-654.87"/>
<text text-anchor="middle" x="2740.5" y="-638.07" font-family="Times,serif" font-size="16.00">Pointer to Field Definition 1</text>
<polyline fill="none" stroke="black" points="2615,-628.87 2866,-628.87"/>
<text text-anchor="middle" x="2740.5" y="-612.07" font-family="Times,serif" font-size="16.00">...</text>
<polyline fill="none" stroke="black" points="2615,-602.87 2866,-602.87"/>
<text text-anchor="middle" x="2740.5" y="-586.07" font-family="Times,serif" font-size="16.00">Pointer to Field Definition N</text>
</g>
<!-- TypeDefinition&#45;&gt;FieldsTable -->
<g id="0" class="edge">
<title>TypeDefinition:f11&#45;&gt;FieldsTable:f0</title>
<path fill="none" stroke="black" d="M2435,-324.87C2488.27,-324.87 2446.06,-514.79 2471,-561.87 2509.68,-634.88 2525.77,-689.04 2602.75,-693.56"/>
<polygon fill="black" stroke="black" points="2602.4,-697.08 2612.5,-693.87 2602.6,-690.08 2602.4,-697.08"/>
</g>
<!-- InterfaceSlotTable -->
<g id="node10" class="node">
<title>InterfaceSlotTable</title>
<polygon fill="none" stroke="black" points="2582,-84.87 2582,-214.87 2899,-214.87 2899,-84.87 2582,-84.87"/>
<text text-anchor="middle" x="2740.5" y="-198.07" font-family="Times,serif" font-size="16.00">Interface Slot Table</text>
<polyline fill="none" stroke="black" points="2582,-188.87 2899,-188.87"/>
<text text-anchor="middle" x="2740.5" y="-172.07" font-family="Times,serif" font-size="16.00">Number of Interface Method Tables</text>
<polyline fill="none" stroke="black" points="2582,-162.87 2899,-162.87"/>
<text text-anchor="middle" x="2740.5" y="-146.07" font-family="Times,serif" font-size="16.00">Pointer to Interface Method Table 1</text>
<polyline fill="none" stroke="black" points="2582,-136.87 2899,-136.87"/>
<text text-anchor="middle" x="2740.5" y="-120.07" font-family="Times,serif" font-size="16.00">...</text>
<polyline fill="none" stroke="black" points="2582,-110.87 2899,-110.87"/>
<text text-anchor="middle" x="2740.5" y="-94.07" font-family="Times,serif" font-size="16.00">Pointer to Interface Method Table N</text>
</g>
<!-- TypeDefinition&#45;&gt;InterfaceSlotTable -->
<g id="0" class="edge">
<title>TypeDefinition:f12&#45;&gt;InterfaceSlotTable:f0</title>
<path fill="none" stroke="black" d="M2435,-298.87C2509.45,-298.87 2504.45,-211.11 2571.14,-202.54"/>
<polygon fill="black" stroke="black" points="2571.24,-205.98 2581,-201.87 2570.8,-198.99 2571.24,-205.98"/>
</g>
<!-- MethodDefinition&#45;&gt;NameString -->
<g id="0" class="edge">
<title>MethodDefinition:f1&#45;&gt;NameString:f0</title>
<path fill="none" stroke="red" d="M3832,-402.87C3881.46,-402.87 3855.54,-486.87 3905,-486.87 3905,-486.87 3905,-486.87 4401,-486.87 4482.86,-486.87 4408.62,-829.84 4476.45,-860.66"/>
<polygon fill="red" stroke="red" points="4475.49,-864.24 4486,-862.87 4476.93,-857.39 4475.49,-864.24"/>
</g>
<!-- MethodDefinition&#45;&gt;CustomAttributesTable -->
<g id="0" class="edge">
<title>MethodDefinition:f2&#45;&gt;CustomAttributesTable:f0</title>
<path fill="none" stroke="black" d="M3522,-376.87C3256.5,-376.87 3582.32,-790.01 3375,-955.87 3074.35,-1196.39 2894.02,-932.87 2509,-932.87 1195,-932.87 1195,-932.87 1195,-932.87 1162.42,-932.87 1158.98,-902.73 1132.78,-896.13"/>
<polygon fill="black" stroke="black" points="1133.34,-892.56 1123,-894.87 1132.52,-899.51 1133.34,-892.56"/>
</g>
<!-- MethodDefinition&#45;&gt;TypeDefinition -->
<g id="0" class="edge">
<title>MethodDefinition:f6&#45;&gt;TypeDefinition:f0</title>
<path fill="none" stroke="blue" d="M3522,-272.87C3437.1,-272.87 3454.86,-179.69 3375,-150.87 3306.23,-126.05 3106.08,-109.21 3046,-150.87 2969.95,-203.6 3017.37,-264.66 2973,-345.87 2946.66,-394.07 2947.25,-418.61 2899,-444.87 2760.88,-520.04 2703.25,-468.87 2546,-468.87 2508,-468.87 2508,-468.87 2508,-468.87 2487.64,-468.87 2482.69,-479.2 2471,-495.87 2440.37,-539.55 2485.18,-609.19 2445.52,-618.76"/>
<polygon fill="blue" stroke="blue" points="2445.58,-615.34 2436,-619.87 2446.31,-622.3 2445.58,-615.34"/>
</g>
<!-- ProtectedRegionTable -->
<g id="node14" class="node">
<title>ProtectedRegionTable</title>
<polygon fill="none" stroke="black" points="3979,-174.87 3979,-304.87 4327,-304.87 4327,-174.87 3979,-174.87"/>
<text text-anchor="middle" x="4153" y="-288.07" font-family="Times,serif" font-size="16.00">Protected Region Table</text>
<polyline fill="none" stroke="black" points="3979,-278.87 4327,-278.87"/>
<text text-anchor="middle" x="4153" y="-262.07" font-family="Times,serif" font-size="16.00">Number of Regions</text>
<polyline fill="none" stroke="black" points="3979,-252.87 4327,-252.87"/>
<text text-anchor="middle" x="4153" y="-236.07" font-family="Times,serif" font-size="16.00">Pointer to Protected Region Definition 1</text>
<polyline fill="none" stroke="black" points="3979,-226.87 4327,-226.87"/>
<text text-anchor="middle" x="4153" y="-210.07" font-family="Times,serif" font-size="16.00">...</text>
<polyline fill="none" stroke="black" points="3979,-200.87 4327,-200.87"/>
<text text-anchor="middle" x="4153" y="-184.07" font-family="Times,serif" font-size="16.00">Protected Region Definition N</text>
</g>
<!-- MethodDefinition&#45;&gt;ProtectedRegionTable -->
<g id="0" class="edge">
<title>MethodDefinition:f7&#45;&gt;ProtectedRegionTable:f0</title>
<path fill="none" stroke="black" d="M3832,-246.87C3896.59,-246.87 3909.37,-287.08 3968.29,-291.48"/>
<polygon fill="black" stroke="black" points="3967.88,-295 3978,-291.87 3968.13,-288.01 3967.88,-295"/>
</g>
<!-- GCTrackingInformation -->
<g id="node17" class="node">
<title>GCTrackingInformation</title>
<polygon fill="none" stroke="black" points="4042.5,-103.87 4042.5,-155.87 4263.5,-155.87 4263.5,-103.87 4042.5,-103.87"/>
<text text-anchor="middle" x="4153" y="-139.07" font-family="Times,serif" font-size="16.00">GC Tracking Information</text>
<polyline fill="none" stroke="black" points="4042.5,-129.87 4263.5,-129.87"/>
<text text-anchor="middle" x="4153" y="-113.07" font-family="Times,serif" font-size="16.00">TODO</text>
</g>
<!-- MethodDefinition&#45;&gt;GCTrackingInformation -->
<g id="0" class="edge">
<title>MethodDefinition:f8&#45;&gt;GCTrackingInformation:f0</title>
<path fill="none" stroke="black" d="M3832,-220.87C3927.37,-220.87 3940.91,-148.7 4030.05,-143.2"/>
<polygon fill="black" stroke="black" points="4030.11,-146.67 4040,-142.87 4029.9,-139.67 4030.11,-146.67"/>
</g>
<!-- ParameterDefinition -->
<g id="node18" class="node">
<title>ParameterDefinition</title>
<polygon fill="none" stroke="black" points="4019.5,-891.87 4019.5,-1021.87 4286.5,-1021.87 4286.5,-891.87 4019.5,-891.87"/>
<text text-anchor="middle" x="4153" y="-1005.07" font-family="Times,serif" font-size="16.00">Parameter Definition</text>
<polyline fill="none" stroke="black" points="4019.5,-995.87 4286.5,-995.87"/>
<text text-anchor="middle" x="4153" y="-979.07" font-family="Times,serif" font-size="16.00">Pointer to Parameter Name</text>
<polyline fill="none" stroke="black" points="4019.5,-969.87 4286.5,-969.87"/>
<text text-anchor="middle" x="4153" y="-953.07" font-family="Times,serif" font-size="16.00">~Pointer to Custom Attributes</text>
<polyline fill="none" stroke="black" points="4019.5,-943.87 4286.5,-943.87"/>
<text text-anchor="middle" x="4153" y="-927.07" font-family="Times,serif" font-size="16.00">Parameter Attributes</text>
<polyline fill="none" stroke="black" points="4019.5,-917.87 4286.5,-917.87"/>
<text text-anchor="middle" x="4153" y="-901.07" font-family="Times,serif" font-size="16.00">Pointer to Parameter Type</text>
</g>
<!-- MethodDefinition&#45;&gt;ParameterDefinition -->
<g id="0" class="edge">
<title>MethodDefinition:f10&#45;&gt;ParameterDefinition:f0</title>
<path fill="none" stroke="black" d="M3832,-168.87C3869.11,-168.87 3860.72,-464.48 3868,-500.87 3890.38,-612.68 3899.7,-984.6 4007.28,-1007.74"/>
<polygon fill="black" stroke="black" points="4006.69,-1011.3 4017,-1008.87 4007.42,-1004.34 4006.69,-1011.3"/>
</g>
<!-- PropertyDefinition -->
<g id="node12" class="node">
<title>PropertyDefinition</title>
<polygon fill="none" stroke="black" points="3046,-374.87 3046,-556.87 3375,-556.87 3375,-374.87 3046,-374.87"/>
<text text-anchor="middle" x="3210.5" y="-540.07" font-family="Times,serif" font-size="16.00">Property Definition</text>
<polyline fill="none" stroke="black" points="3046,-530.87 3375,-530.87"/>
<text text-anchor="middle" x="3210.5" y="-514.07" font-family="Times,serif" font-size="16.00">Pointer to Property Name</text>
<polyline fill="none" stroke="black" points="3046,-504.87 3375,-504.87"/>
<text text-anchor="middle" x="3210.5" y="-488.07" font-family="Times,serif" font-size="16.00">~Pointer to Custom Attributes</text>
<polyline fill="none" stroke="black" points="3046,-478.87 3375,-478.87"/>
<text text-anchor="middle" x="3210.5" y="-462.07" font-family="Times,serif" font-size="16.00">Property Attributes</text>
<polyline fill="none" stroke="black" points="3046,-452.87 3375,-452.87"/>
<text text-anchor="middle" x="3210.5" y="-436.07" font-family="Times,serif" font-size="16.00">Pointer to Property Type</text>
<polyline fill="none" stroke="black" points="3046,-426.87 3375,-426.87"/>
<text text-anchor="middle" x="3210.5" y="-410.07" font-family="Times,serif" font-size="16.00">~Pointer to Getter Method Definition</text>
<polyline fill="none" stroke="black" points="3046,-400.87 3375,-400.87"/>
<text text-anchor="middle" x="3210.5" y="-384.07" font-family="Times,serif" font-size="16.00">~Pointer to Setter Method Defiinition</text>
</g>
<!-- PropertiesTable&#45;&gt;PropertyDefinition -->
<g id="0" class="edge">
<title>PropertiesTable:f2&#45;&gt;PropertyDefinition:f0</title>
<path fill="none" stroke="black" d="M2880.82,-312.05C2986.85,-373.42 2923.58,-533.76 3035.04,-543.41"/>
<polygon fill="black" stroke="black" points="3034.86,-546.95 3045,-543.87 3035.15,-539.95 3034.86,-546.95"/>
</g>
<!-- FieldDefinition -->
<g id="node11" class="node">
<title>FieldDefinition</title>
<polygon fill="none" stroke="black" points="3077,-763.87 3077,-945.87 3344,-945.87 3344,-763.87 3077,-763.87"/>
<text text-anchor="middle" x="3210.5" y="-929.07" font-family="Times,serif" font-size="16.00">Field Definition</text>
<polyline fill="none" stroke="black" points="3077,-919.87 3344,-919.87"/>
<text text-anchor="middle" x="3210.5" y="-903.07" font-family="Times,serif" font-size="16.00">Pointer to Field Name</text>
<polyline fill="none" stroke="black" points="3077,-893.87 3344,-893.87"/>
<text text-anchor="middle" x="3210.5" y="-877.07" font-family="Times,serif" font-size="16.00">~Pointer to Custom Attributes</text>
<polyline fill="none" stroke="black" points="3077,-867.87 3344,-867.87"/>
<text text-anchor="middle" x="3210.5" y="-851.07" font-family="Times,serif" font-size="16.00">Field Attributes</text>
<polyline fill="none" stroke="black" points="3077,-841.87 3344,-841.87"/>
<text text-anchor="middle" x="3210.5" y="-825.07" font-family="Times,serif" font-size="16.00">Pointer to Field Type</text>
<polyline fill="none" stroke="black" points="3077,-815.87 3344,-815.87"/>
<text text-anchor="middle" x="3210.5" y="-799.07" font-family="Times,serif" font-size="16.00">~Address</text>
<polyline fill="none" stroke="black" points="3077,-789.87 3344,-789.87"/>
<text text-anchor="middle" x="3210.5" y="-773.07" font-family="Times,serif" font-size="16.00">Offset / Size</text>
</g>
<!-- FieldsTable&#45;&gt;FieldDefinition -->
<g id="0" class="edge">
<title>FieldsTable:f2&#45;&gt;FieldDefinition:f0</title>
<path fill="none" stroke="black" d="M2866.44,-655.04C2940.94,-684.64 2961.67,-700.64 3010,-764.87 3055.83,-825.78 3001.23,-922.81 3064.75,-932.14"/>
<polygon fill="black" stroke="black" points="3064.29,-935.68 3074.5,-932.87 3064.76,-928.7 3064.29,-935.68"/>
</g>
<!-- InterfaceMethodTable -->
<g id="node16" class="node">
<title>InterfaceMethodTable</title>
<polygon fill="none" stroke="black" points="3074.5,-160.87 3074.5,-316.87 3346.5,-316.87 3346.5,-160.87 3074.5,-160.87"/>
<text text-anchor="middle" x="3210.5" y="-300.07" font-family="Times,serif" font-size="16.00">Interface Method Table</text>
<polyline fill="none" stroke="black" points="3074.5,-290.87 3346.5,-290.87"/>
<text text-anchor="middle" x="3210.5" y="-274.07" font-family="Times,serif" font-size="16.00">Pointer to Interface Type</text>
<polyline fill="none" stroke="black" points="3074.5,-264.87 3346.5,-264.87"/>
<text text-anchor="middle" x="3210.5" y="-248.07" font-family="Times,serif" font-size="16.00">Number of Methods</text>
<polyline fill="none" stroke="black" points="3074.5,-238.87 3346.5,-238.87"/>
<text text-anchor="middle" x="3210.5" y="-222.07" font-family="Times,serif" font-size="16.00">Pointer to Method Definition 1</text>
<polyline fill="none" stroke="black" points="3074.5,-212.87 3346.5,-212.87"/>
<text text-anchor="middle" x="3210.5" y="-196.07" font-family="Times,serif" font-size="16.00">..</text>
<polyline fill="none" stroke="black" points="3074.5,-186.87 3346.5,-186.87"/>
<text text-anchor="middle" x="3210.5" y="-170.07" font-family="Times,serif" font-size="16.00">Pointer to Method Definition N</text>
</g>
<!-- InterfaceSlotTable&#45;&gt;InterfaceMethodTable -->
<g id="0" class="edge">
<title>InterfaceSlotTable:f2&#45;&gt;InterfaceMethodTable:f0</title>
<path fill="none" stroke="black" d="M2899,-149.87C2998.6,-149.87 2972.28,-292.65 3062.53,-303.25"/>
<polygon fill="black" stroke="black" points="3062.32,-306.8 3072.5,-303.87 3062.71,-299.81 3062.32,-306.8"/>
</g>
<!-- FieldDefinition&#45;&gt;NameString -->
<g id="0" class="edge">
<title>FieldDefinition:f1&#45;&gt;NameString:f0</title>
<path fill="none" stroke="red" d="M3345.5,-906.87C3395.08,-906.87 3398.42,-862.87 3448,-862.87 3448,-862.87 3448,-862.87 4401,-862.87 4435.34,-862.87 4446.54,-862.87 4476.18,-862.87"/>
<polygon fill="red" stroke="red" points="4476,-866.37 4486,-862.87 4476,-859.37 4476,-866.37"/>
</g>
<!-- FieldDefinition&#45;&gt;CustomAttributesTable -->
<g id="0" class="edge">
<title>FieldDefinition:f2&#45;&gt;CustomAttributesTable:f0</title>
<path fill="none" stroke="black" d="M3075.5,-880.87C3074.5,-880.87 2510,-970.87 2509,-970.87 1195,-970.87 1195,-970.87 1195,-970.87 1175.4,-970.87 1172.07,-960.52 1158,-946.87 1140.98,-930.35 1147.06,-904.69 1132.5,-897.07"/>
<polygon fill="black" stroke="black" points="1133.51,-893.5 1123,-894.87 1132.07,-900.35 1133.51,-893.5"/>
</g>
<!-- FieldDefinition&#45;&gt;TypeDefinition -->
<g id="0" class="edge">
<title>FieldDefinition:f4&#45;&gt;TypeDefinition:f0</title>
<path fill="none" stroke="blue" d="M3075.5,-828.87C3024.81,-828.87 3023.69,-778.87 2973,-778.87 2508,-778.87 2508,-778.87 2508,-778.87 2472.77,-778.87 2473.37,-648.28 2444.86,-623.8"/>
<polygon fill="blue" stroke="blue" points="2446.59,-620.32 2436,-619.87 2443.99,-626.82 2446.59,-620.32"/>
</g>
<!-- PropertyDefinition&#45;&gt;NameString -->
<g id="0" class="edge">
<title>PropertyDefinition:f1&#45;&gt;NameString:f0</title>
<path fill="none" stroke="red" d="M3375,-517.87C3438.73,-517.87 3421.27,-609.87 3485,-609.87 3485,-609.87 3485,-609.87 4401,-609.87 4515.82,-609.87 4378,-846.35 4476.04,-862.05"/>
<polygon fill="red" stroke="red" points="4475.77,-865.61 4486,-862.87 4476.29,-858.63 4475.77,-865.61"/>
</g>
<!-- PropertyDefinition&#45;&gt;CustomAttributesTable -->
<g id="0" class="edge">
<title>PropertyDefinition:f2&#45;&gt;CustomAttributesTable:f0</title>
<path fill="none" stroke="black" d="M3046,-491.87C3031.1,-491.87 2980.05,-736.75 2973,-749.87 2961.06,-772.08 2957.39,-779.52 2936,-792.87 2784.02,-887.74 2725.16,-894.87 2546,-894.87 1195,-894.87 1195,-894.87 1195,-894.87 1166.48,-894.87 1156.77,-894.87 1132.8,-894.87"/>
<polygon fill="black" stroke="black" points="1133,-891.37 1123,-894.87 1133,-898.37 1133,-891.37"/>
</g>
<!-- PropertyDefinition&#45;&gt;TypeDefinition -->
<g id="0" class="edge">
<title>PropertyDefinition:f4&#45;&gt;TypeDefinition:f0</title>
<path fill="none" stroke="blue" d="M3046,-439.87C2978.25,-439.87 3040.75,-735.87 2973,-735.87 2508,-735.87 2508,-735.87 2508,-735.87 2451.13,-735.87 2489.91,-634.76 2445.75,-621.33"/>
<polygon fill="blue" stroke="blue" points="2446.38,-617.75 2436,-619.87 2445.43,-624.69 2446.38,-617.75"/>
</g>
<!-- PropertyDefinition&#45;&gt;MethodDefinition -->
<g id="0" class="edge">
<title>PropertyDefinition:f5&#45;&gt;MethodDefinition:f0</title>
<path fill="none" stroke="green" d="M3375,-413.87C3391.61,-413.87 3394.6,-421.25 3411,-423.87 3455.96,-431.03 3470.39,-429.24 3511.06,-428.91"/>
<polygon fill="green" stroke="green" points="3511.01,-432.41 3521,-428.87 3510.99,-425.41 3511.01,-432.41"/>
</g>
<!-- PropertyDefinition&#45;&gt;MethodDefinition -->
<g id="0" class="edge">
<title>PropertyDefinition:f6&#45;&gt;MethodDefinition:f0</title>
<path fill="none" stroke="green" d="M3375,-387.87C3439.12,-387.87 3452.76,-424.51 3511.36,-428.51"/>
<polygon fill="green" stroke="green" points="3510.89,-432.03 3521,-428.87 3511.12,-425.04 3510.89,-432.03"/>
</g>
<!-- MethodLookupTable -->
<g id="node13" class="node">
<title>MethodLookupTable</title>
<polygon fill="none" stroke="black" points="3049,-575.87 3049,-705.87 3372,-705.87 3372,-575.87 3049,-575.87"/>
<text text-anchor="middle" x="3210.5" y="-689.07" font-family="Times,serif" font-size="16.00">Method Lookup Table</text>
<polyline fill="none" stroke="black" points="3049,-679.87 3372,-679.87"/>
<text text-anchor="middle" x="3210.5" y="-663.07" font-family="Times,serif" font-size="16.00">Number of Methods</text>
<polyline fill="none" stroke="black" points="3049,-653.87 3372,-653.87"/>
<text text-anchor="middle" x="3210.5" y="-637.07" font-family="Times,serif" font-size="16.00">Pointer to Method (Starting Address)</text>
<polyline fill="none" stroke="black" points="3049,-627.87 3372,-627.87"/>
<text text-anchor="middle" x="3210.5" y="-611.07" font-family="Times,serif" font-size="16.00">Method Size</text>
<polyline fill="none" stroke="black" points="3049,-601.87 3372,-601.87"/>
<text text-anchor="middle" x="3210.5" y="-585.07" font-family="Times,serif" font-size="16.00">Pointer to Method Definition</text>
</g>
<!-- MethodLookupTable&#45;&gt;MethodDefinition -->
<g id="0" class="edge">
<title>MethodLookupTable:f3&#45;&gt;MethodDefinition:f0</title>
<path fill="none" stroke="green" d="M3373.5,-588.87C3418.5,-588.87 3466.07,-451.16 3511.44,-431.25"/>
<polygon fill="green" stroke="green" points="3512.02,-434.48 3521,-428.87 3510.47,-427.66 3512.02,-434.48"/>
</g>
<!-- ProtectedRegionDefinition -->
<g id="node15" class="node">
<title>ProtectedRegionDefinition</title>
<polygon fill="none" stroke="black" points="4474,-70.87 4474,-226.87 4720,-226.87 4720,-70.87 4474,-70.87"/>
<text text-anchor="middle" x="4597" y="-210.07" font-family="Times,serif" font-size="16.00">Protected Region Definition</text>
<polyline fill="none" stroke="black" points="4474,-200.87 4720,-200.87"/>
<text text-anchor="middle" x="4597" y="-184.07" font-family="Times,serif" font-size="16.00">Region Start</text>
<polyline fill="none" stroke="black" points="4474,-174.87 4720,-174.87"/>
<text text-anchor="middle" x="4597" y="-158.07" font-family="Times,serif" font-size="16.00">Region End</text>
<polyline fill="none" stroke="black" points="4474,-148.87 4720,-148.87"/>
<text text-anchor="middle" x="4597" y="-132.07" font-family="Times,serif" font-size="16.00">Region Handler</text>
<polyline fill="none" stroke="black" points="4474,-122.87 4720,-122.87"/>
<text text-anchor="middle" x="4597" y="-106.07" font-family="Times,serif" font-size="16.00">Exception Handler Type</text>
<polyline fill="none" stroke="black" points="4474,-96.87 4720,-96.87"/>
<text text-anchor="middle" x="4597" y="-80.07" font-family="Times,serif" font-size="16.00">Pointer to Exception Type</text>
</g>
<!-- ProtectedRegionTable&#45;&gt;ProtectedRegionDefinition -->
<g id="0" class="edge">
<title>ProtectedRegionTable:f2&#45;&gt;ProtectedRegionDefinition:f0</title>
<path fill="none" stroke="black" d="M4327,-239.87C4389.59,-239.87 4405.87,-216.73 4463.21,-214.11"/>
<polygon fill="black" stroke="black" points="4463.08,-217.59 4473,-213.87 4462.92,-210.59 4463.08,-217.59"/>
</g>
<!-- ProtectedRegionDefinition&#45;&gt;TypeDefinition -->
<g id="0" class="edge">
<title>ProtectedRegionDefinition:f5&#45;&gt;TypeDefinition:f0</title>
<path fill="none" stroke="blue" d="M4474,-83.87C4441.31,-83.87 4433.69,-74.87 4401,-74.87 3485,-74.87 3485,-74.87 3485,-74.87 3288.77,-74.87 3210.8,-15.35 3046,-121.87 2937.43,-192.05 3005.56,-299.67 2899,-372.87 2767.95,-462.89 2704.99,-430.87 2546,-430.87 2508,-430.87 2508,-430.87 2508,-430.87 2476.29,-430.87 2483.63,-462.78 2471,-491.87 2449.07,-542.37 2488.05,-609.87 2445.69,-618.86"/>
<polygon fill="blue" stroke="blue" points="2445.63,-615.45 2436,-619.87 2446.28,-622.42 2445.63,-615.45"/>
</g>
<!-- InterfaceMethodTable&#45;&gt;TypeDefinition -->
<g id="0" class="edge">
<title>InterfaceMethodTable:f1&#45;&gt;TypeDefinition:f0</title>
<path fill="none" stroke="blue" d="M3073.5,-277.87C2964.53,-277.87 3022.51,-414.61 2936,-480.87 2863.41,-536.46 2832.93,-547.87 2741.5,-547.87 2508,-547.87 2508,-547.87 2508,-547.87 2490.42,-547.87 2484.58,-550.7 2471,-561.87 2451.05,-578.28 2460.97,-608.8 2445.62,-617.5"/>
<polygon fill="blue" stroke="blue" points="2445,-614.27 2436,-619.87 2446.52,-621.11 2445,-614.27"/>
</g>
<!-- InterfaceMethodTable&#45;&gt;MethodDefinition -->
<g id="0" class="edge">
<title>InterfaceMethodTable:f3&#45;&gt;MethodDefinition:f0</title>
<path fill="none" stroke="green" d="M3347.5,-225.87C3432.53,-225.87 3435.26,-289.63 3486,-357.87 3504.55,-382.82 3490.97,-418.76 3511.43,-427.09"/>
<polygon fill="green" stroke="green" points="3510.56,-430.66 3521,-428.87 3511.72,-423.76 3510.56,-430.66"/>
</g>
<!-- ParameterDefinition&#45;&gt;NameString -->
<g id="0" class="edge">
<title>ParameterDefinition:f1&#45;&gt;NameString:f0</title>
<path fill="none" stroke="red" d="M4288,-982.87C4336.21,-982.87 4422.84,-878.28 4476.15,-864.38"/>
<polygon fill="red" stroke="red" points="4476.58,-867.72 4486,-862.87 4475.61,-860.79 4476.58,-867.72"/>
</g>
<!-- ParameterDefinition&#45;&gt;CustomAttributesTable -->
<g id="0" class="edge">
<title>ParameterDefinition:f2&#45;&gt;CustomAttributesTable:f0</title>
<path fill="none" stroke="black" d="M4018,-956.87C3929.53,-956.87 3957.47,-1088.87 3869,-1088.87 1195,-1088.87 1195,-1088.87 1195,-1088.87 1152.72,-1088.87 1165.36,-925.39 1132.09,-898.57"/>
<polygon fill="black" stroke="black" points="1133.59,-895.03 1123,-894.87 1131.18,-901.6 1133.59,-895.03"/>
</g>
<!-- ParameterDefinition&#45;&gt;TypeDefinition -->
<g id="0" class="edge">
<title>ParameterDefinition:f4&#45;&gt;TypeDefinition:f0</title>
<path fill="none" stroke="blue" d="M4018,-904.87C3959.3,-904.87 3964.7,-974.87 3906,-974.87 3411,-974.87 3411,-974.87 3411,-974.87 3248.56,-974.87 3198.39,-1012.13 3046,-955.87 2968.69,-927.33 2976.08,-872.02 2899,-842.87 2751.92,-787.23 2703.25,-818.87 2546,-818.87 2508,-818.87 2508,-818.87 2508,-818.87 2464.76,-818.87 2479.08,-651.18 2445.29,-623.66"/>
<polygon fill="blue" stroke="blue" points="2446.59,-620.05 2436,-619.87 2444.17,-626.61 2446.59,-620.05"/>
</g>
<!-- CustomAttribute&#45;&gt;TypeDefinition -->
<g id="0" class="edge">
<title>CustomAttribute:f1&#45;&gt;TypeDefinition:f0</title>
<path fill="none" stroke="blue" d="M1539,-632.87C1571.64,-632.87 1579.36,-624.87 1612,-624.87 1612,-624.87 1612,-624.87 1650,-624.87 1839.66,-624.87 1889.76,-620.06 2074.11,-619.87"/>
<polygon fill="blue" stroke="blue" points="2074,-623.37 2084,-619.87 2074,-616.37 2074,-623.37"/>
</g>
<!-- CustomAttribute&#45;&gt;MethodDefinition -->
<g id="0" class="edge">
<title>CustomAttribute:f2&#45;&gt;MethodDefinition:f0</title>
<path fill="none" stroke="green" d="M1539,-606.87C1581.62,-606.87 2046.59,-86.34 2085,-67.87 2255.6,14.19 2318.69,-17.87 2508,-17.87 2508,-17.87 2508,-17.87 3010,-17.87 3172.97,-17.87 3240.79,39.58 3375,-52.87 3466.5,-115.89 3448.29,-172.36 3486,-276.87 3508.18,-338.34 3458.98,-418.78 3511.06,-428"/>
<polygon fill="green" stroke="green" points="3510.75,-431.56 3521,-428.87 3511.31,-424.58 3510.75,-431.56"/>
</g>
<!-- CustomAttributeArgument -->
<g id="node20" class="node">
<title>CustomAttributeArgument</title>
<polygon fill="none" stroke="black" points="1686,-653.87 1686,-809.87 1938,-809.87 1938,-653.87 1686,-653.87"/>
<text text-anchor="middle" x="1812" y="-793.07" font-family="Times,serif" font-size="16.00">Custom Attribute Argument</text>
<polyline fill="none" stroke="black" points="1686,-783.87 1938,-783.87"/>
<text text-anchor="middle" x="1812" y="-767.07" font-family="Times,serif" font-size="16.00">~Pointer to Argument Name</text>
<polyline fill="none" stroke="black" points="1686,-757.87 1938,-757.87"/>
<text text-anchor="middle" x="1812" y="-741.07" font-family="Times,serif" font-size="16.00">Is Argument a Field</text>
<polyline fill="none" stroke="black" points="1686,-731.87 1938,-731.87"/>
<text text-anchor="middle" x="1812" y="-715.07" font-family="Times,serif" font-size="16.00">Pointer to Argument Type</text>
<polyline fill="none" stroke="black" points="1686,-705.87 1938,-705.87"/>
<text text-anchor="middle" x="1812" y="-689.07" font-family="Times,serif" font-size="16.00">Argument Size</text>
<polyline fill="none" stroke="black" points="1686,-679.87 1938,-679.87"/>
<text text-anchor="middle" x="1812" y="-663.07" font-family="Times,serif" font-size="16.00">Argument</text>
</g>
<!-- CustomAttribute&#45;&gt;CustomAttributeArgument -->
<g id="0" class="edge">
<title>CustomAttribute:f4&#45;&gt;CustomAttributeArgument:f0</title>
<path fill="none" stroke="black" d="M1539,-554.87C1661.03,-554.87 1566.28,-782.44 1675.19,-796.22"/>
<polygon fill="black" stroke="black" points="1674.81,-799.76 1685,-796.87 1675.23,-792.77 1674.81,-799.76"/>
</g>
<!-- CustomAttributeArgument&#45;&gt;NameString -->
<g id="0" class="edge">
<title>CustomAttributeArgument:f1&#45;&gt;NameString:f0</title>
<path fill="none" stroke="red" d="M1938,-770.87C1988.14,-770.87 1960.86,-856.87 2011,-856.87 2011,-856.87 2011,-856.87 2546,-856.87 2775.39,-856.87 2821.88,-935.98 3046,-984.87 3207.07,-1020 3246.15,-1050.87 3411,-1050.87 3411,-1050.87 3411,-1050.87 4401,-1050.87 4488.93,-1050.87 4403.17,-878.68 4476.18,-863.88"/>
<polygon fill="red" stroke="red" points="4476.37,-867.28 4486,-862.87 4475.72,-860.31 4476.37,-867.28"/>
</g>
<!-- CustomAttributeArgument&#45;&gt;TypeDefinition -->
<g id="0" class="edge">
<title>CustomAttributeArgument:f3&#45;&gt;TypeDefinition:f0</title>
<path fill="none" stroke="blue" d="M1938,-718.87C1946.54,-718.87 2043.41,-644.42 2075.41,-624.64"/>
<polygon fill="blue" stroke="blue" points="2076.61,-627.46 2084,-619.87 2073.49,-621.19 2076.61,-627.46"/>
</g>
</g>
</svg>
