<?xml version="1.0" encoding="UTF-8" standalone="no"?>
<!DOCTYPE svg PUBLIC "-//W3C//DTD SVG 1.1//EN"
 "http://www.w3.org/Graphics/SVG/1.1/DTD/svg11.dtd">
<!-- Generated by graphviz version 7.0.5 (0)
 -->
<!-- Title: MOSA Runtime Tables Pages: 1 -->
<svg width="4038pt" height="1128pt"
 viewBox="0.00 0.00 4038.00 1128.04" xmlns="http://www.w3.org/2000/svg" xmlns:xlink="http://www.w3.org/1999/xlink">
<g id="graph0" class="graph" transform="scale(1 1) rotate(0) translate(4 1124.04)">
<title>MOSA Runtime Tables</title>
<polygon fill="white" stroke="none" points="-4,4 -4,-1124.04 4034,-1124.04 4034,4 -4,4"/>
<!-- Key -->
<g id="node1" class="node">
<title>Key</title>
<polygon fill="none" stroke="black" points="0,-622.04 0,-692.04 233,-692.04 233,-622.04 0,-622.04"/>
<text text-anchor="middle" x="116.5" y="-675.24" font-family="Times,serif" font-size="16.00">Key</text>
<polyline fill="none" stroke="black" points="0,-666.04 233,-666.04"/>
<text text-anchor="middle" x="116.5" y="-649.24" font-family="Times,serif" font-size="16.00">~ Denotes field may be zero filled</text>
<text text-anchor="middle" x="116.5" y="-631.24" font-family="Times,serif" font-size="16.00">due to no value being available.</text>
</g>
<!-- NameString -->
<g id="node2" class="node">
<title>NameString</title>
<polygon fill="none" stroke="red" points="3845,-739.04 3845,-869.04 4018,-869.04 4018,-739.04 3845,-739.04"/>
<text text-anchor="middle" x="3931.5" y="-852.24" font-family="Times,serif" font-size="16.00">String Object</text>
<polyline fill="none" stroke="red" points="3845,-843.04 4018,-843.04"/>
<text text-anchor="middle" x="3931.5" y="-826.24" font-family="Times,serif" font-size="16.00">Object Header</text>
<polyline fill="none" stroke="red" points="3845,-817.04 4018,-817.04"/>
<text text-anchor="middle" x="3931.5" y="-800.24" font-family="Times,serif" font-size="16.00">Pointer to Method Table</text>
<polyline fill="none" stroke="red" points="3845,-791.04 4018,-791.04"/>
<text text-anchor="middle" x="3931.5" y="-774.24" font-family="Times,serif" font-size="16.00">String Length</text>
<polyline fill="none" stroke="red" points="3845,-765.04 4018,-765.04"/>
<text text-anchor="middle" x="3931.5" y="-748.24" font-family="Times,serif" font-size="16.00">Unicode String</text>
</g>
<!-- AssemblyListTable -->
<g id="node3" class="node">
<title>AssemblyListTable</title>
<polygon fill="none" stroke="black" points="35,-711.04 35,-841.04 198,-841.04 198,-711.04 35,-711.04"/>
<text text-anchor="middle" x="116.5" y="-824.24" font-family="Times,serif" font-size="16.00">Assembly Table</text>
<polyline fill="none" stroke="black" points="35,-815.04 198,-815.04"/>
<text text-anchor="middle" x="116.5" y="-798.24" font-family="Times,serif" font-size="16.00">Number of Assemblies</text>
<polyline fill="none" stroke="black" points="35,-789.04 198,-789.04"/>
<text text-anchor="middle" x="116.5" y="-772.24" font-family="Times,serif" font-size="16.00">Pointer to Assembly 1</text>
<polyline fill="none" stroke="black" points="35,-763.04 198,-763.04"/>
<text text-anchor="middle" x="116.5" y="-746.24" font-family="Times,serif" font-size="16.00">..</text>
<polyline fill="none" stroke="black" points="35,-737.04 198,-737.04"/>
<text text-anchor="middle" x="116.5" y="-720.24" font-family="Times,serif" font-size="16.00">Pointer to Assembly N</text>
</g>
<!-- AssemblyDefinition -->
<g id="node4" class="node">
<title>AssemblyDefinition</title>
<polygon fill="none" stroke="black" points="380,-581.04 380,-789.04 590,-789.04 590,-581.04 380,-581.04"/>
<text text-anchor="middle" x="485" y="-772.24" font-family="Times,serif" font-size="16.00">Assembly</text>
<polyline fill="none" stroke="black" points="380,-763.04 590,-763.04"/>
<text text-anchor="middle" x="485" y="-746.24" font-family="Times,serif" font-size="16.00">Pointer to Assembly Name</text>
<polyline fill="none" stroke="black" points="380,-737.04 590,-737.04"/>
<text text-anchor="middle" x="485" y="-720.24" font-family="Times,serif" font-size="16.00">~Pointer to Custom Attributes</text>
<polyline fill="none" stroke="black" points="380,-711.04 590,-711.04"/>
<text text-anchor="middle" x="485" y="-694.24" font-family="Times,serif" font-size="16.00">Flags: IsReflectionOnly</text>
<polyline fill="none" stroke="black" points="380,-685.04 590,-685.04"/>
<text text-anchor="middle" x="485" y="-668.24" font-family="Times,serif" font-size="16.00">Number of Types</text>
<polyline fill="none" stroke="black" points="380,-659.04 590,-659.04"/>
<text text-anchor="middle" x="485" y="-642.24" font-family="Times,serif" font-size="16.00">Pointer to Type Definition 1</text>
<polyline fill="none" stroke="black" points="380,-633.04 590,-633.04"/>
<text text-anchor="middle" x="485" y="-616.24" font-family="Times,serif" font-size="16.00">...</text>
<polyline fill="none" stroke="black" points="380,-607.04 590,-607.04"/>
<text text-anchor="middle" x="485" y="-590.24" font-family="Times,serif" font-size="16.00">Pointer to Type Definition N</text>
</g>
<!-- AssemblyListTable&#45;&gt;AssemblyDefinition -->
<g id="0" class="edge">
<title>AssemblyListTable:f2&#45;&gt;AssemblyDefinition:f0</title>
<path fill="none" stroke="black" d="M199.5,-776.04C275.81,-776.04 297.68,-776.04 368.67,-776.04"/>
<polygon fill="black" stroke="black" points="368.49,-779.54 378.49,-776.04 368.49,-772.54 368.49,-779.54"/>
</g>
<!-- AssemblyDefinition&#45;&gt;NameString -->
<g id="0" class="edge">
<title>AssemblyDefinition:f1&#45;&gt;NameString:f0</title>
<path fill="none" stroke="red" d="M590,-750.04C757.61,-750.04 495.39,-1120.04 663,-1120.04 663,-1120.04 663,-1120.04 3760,-1120.04 3817.45,-1120.04 3786.78,-889.94 3832.52,-859.38"/>
<polygon fill="red" stroke="red" points="3833.5,-862.74 3842.05,-856.48 3831.47,-856.04 3833.5,-862.74"/>
</g>
<!-- CustomAttributesTable -->
<g id="node5" class="node">
<title>CustomAttributesTable</title>
<polygon fill="none" stroke="black" points="737,-771.04 737,-901.04 947,-901.04 947,-771.04 737,-771.04"/>
<text text-anchor="middle" x="842" y="-884.24" font-family="Times,serif" font-size="16.00">Custom Attributes Table</text>
<polyline fill="none" stroke="black" points="737,-875.04 947,-875.04"/>
<text text-anchor="middle" x="842" y="-858.24" font-family="Times,serif" font-size="16.00">Number of Attributes</text>
<polyline fill="none" stroke="black" points="737,-849.04 947,-849.04"/>
<text text-anchor="middle" x="842" y="-832.24" font-family="Times,serif" font-size="16.00">Pointer to Custom Attribute 1</text>
<polyline fill="none" stroke="black" points="737,-823.04 947,-823.04"/>
<text text-anchor="middle" x="842" y="-806.24" font-family="Times,serif" font-size="16.00">...</text>
<polyline fill="none" stroke="black" points="737,-797.04 947,-797.04"/>
<text text-anchor="middle" x="842" y="-780.24" font-family="Times,serif" font-size="16.00">Pointer to Custom Attribute N</text>
</g>
<!-- AssemblyDefinition&#45;&gt;CustomAttributesTable -->
<g id="0" class="edge">
<title>AssemblyDefinition:f2&#45;&gt;CustomAttributesTable:f0</title>
<path fill="none" stroke="black" d="M590,-724.04C683.87,-724.04 642.87,-874.87 725.68,-887.24"/>
<polygon fill="black" stroke="black" points="725.27,-890.72 735.49,-887.94 725.76,-883.74 725.27,-890.72"/>
</g>
<!-- TypeDefinition -->
<g id="node6" class="node">
<title>TypeDefinition</title>
<polygon fill="none" stroke="blue" points="1799,-71.04 1799,-635.04 2072,-635.04 2072,-71.04 1799,-71.04"/>
<text text-anchor="middle" x="1935.5" y="-618.24" font-family="Times,serif" font-size="16.00">Type Definition</text>
<text text-anchor="middle" x="1935.5" y="-600.24" font-family="Times,serif" font-size="16.00">(contains Method Table)</text>
<polyline fill="none" stroke="blue" points="1799,-591.04 2072,-591.04"/>
<text text-anchor="middle" x="1935.5" y="-574.24" font-family="Times,serif" font-size="16.00">Pointer to Type Name</text>
<polyline fill="none" stroke="blue" points="1799,-565.04 2072,-565.04"/>
<text text-anchor="middle" x="1935.5" y="-548.24" font-family="Times,serif" font-size="16.00">~Pointer to Custom Attributes</text>
<polyline fill="none" stroke="blue" points="1799,-539.04 2072,-539.04"/>
<text text-anchor="middle" x="1935.5" y="-522.24" font-family="Times,serif" font-size="16.00">Type Code &amp; Attributes</text>
<polyline fill="none" stroke="blue" points="1799,-513.04 2072,-513.04"/>
<text text-anchor="middle" x="1935.5" y="-496.24" font-family="Times,serif" font-size="16.00">Type Size</text>
<polyline fill="none" stroke="blue" points="1799,-487.04 2072,-487.04"/>
<text text-anchor="middle" x="1935.5" y="-470.24" font-family="Times,serif" font-size="16.00">Pointer to Assembly</text>
<polyline fill="none" stroke="blue" points="1799,-461.04 2072,-461.04"/>
<text text-anchor="middle" x="1935.5" y="-444.24" font-family="Times,serif" font-size="16.00">~Pointer to Parent Type</text>
<polyline fill="none" stroke="blue" points="1799,-435.04 2072,-435.04"/>
<text text-anchor="middle" x="1935.5" y="-418.24" font-family="Times,serif" font-size="16.00">~Pointer to Declaring Type</text>
<polyline fill="none" stroke="blue" points="1799,-409.04 2072,-409.04"/>
<text text-anchor="middle" x="1935.5" y="-392.24" font-family="Times,serif" font-size="16.00">~Pointer to Element Type</text>
<polyline fill="none" stroke="blue" points="1799,-383.04 2072,-383.04"/>
<text text-anchor="middle" x="1935.5" y="-366.24" font-family="Times,serif" font-size="16.00">~Pointer to Default Constructor Method</text>
<polyline fill="none" stroke="blue" points="1799,-357.04 2072,-357.04"/>
<text text-anchor="middle" x="1935.5" y="-340.24" font-family="Times,serif" font-size="16.00">~Pointer to Properties Table</text>
<polyline fill="none" stroke="blue" points="1799,-331.04 2072,-331.04"/>
<text text-anchor="middle" x="1935.5" y="-314.24" font-family="Times,serif" font-size="16.00">~Pointer to Fields Table</text>
<polyline fill="none" stroke="blue" points="1799,-305.04 2072,-305.04"/>
<text text-anchor="middle" x="1935.5" y="-288.24" font-family="Times,serif" font-size="16.00">~Pointer to Interface Slot Table</text>
<polyline fill="none" stroke="blue" points="1799,-279.04 2072,-279.04"/>
<text text-anchor="middle" x="1935.5" y="-262.24" font-family="Times,serif" font-size="16.00">~Pointer to Interface Bitmap</text>
<polyline fill="none" stroke="blue" points="1799,-253.04 2072,-253.04"/>
<text text-anchor="middle" x="1935.5" y="-236.24" font-family="Times,serif" font-size="16.00">Number of Methods</text>
<polyline fill="none" stroke="blue" points="1799,-227.04 2072,-227.04"/>
<text text-anchor="middle" x="1935.5" y="-210.24" font-family="Times,serif" font-size="16.00">Pointer to Method 1</text>
<polyline fill="none" stroke="blue" points="1799,-201.04 2072,-201.04"/>
<text text-anchor="middle" x="1935.5" y="-184.24" font-family="Times,serif" font-size="16.00">...</text>
<polyline fill="none" stroke="blue" points="1799,-175.04 2072,-175.04"/>
<text text-anchor="middle" x="1935.5" y="-158.24" font-family="Times,serif" font-size="16.00">Pointer to Method N</text>
<polyline fill="none" stroke="blue" points="1799,-149.04 2072,-149.04"/>
<text text-anchor="middle" x="1935.5" y="-132.24" font-family="Times,serif" font-size="16.00">Pointer to Method Definition 1</text>
<polyline fill="none" stroke="blue" points="1799,-123.04 2072,-123.04"/>
<text text-anchor="middle" x="1935.5" y="-106.24" font-family="Times,serif" font-size="16.00">...</text>
<polyline fill="none" stroke="blue" points="1799,-97.04 2072,-97.04"/>
<text text-anchor="middle" x="1935.5" y="-80.24" font-family="Times,serif" font-size="16.00">Pointer to Method Definition N</text>
</g>
<!-- AssemblyDefinition&#45;&gt;TypeDefinition -->
<g id="0" class="edge">
<title>AssemblyDefinition:f5&#45;&gt;TypeDefinition:f0</title>
<path fill="none" stroke="blue" d="M590,-646.04C681.29,-646.04 571.71,-454.04 663,-454.04 663,-454.04 663,-454.04 1058,-454.04 1168.99,-454.04 1197.74,-453.54 1307,-473.04 1415.3,-492.38 1668.32,-605.41 1787.54,-612.68"/>
<polygon fill="blue" stroke="blue" points="1787.38,-616.17 1797.49,-613 1787.6,-609.18 1787.38,-616.17"/>
</g>
<!-- CustomAttribute -->
<g id="node19" class="node">
<title>CustomAttribute</title>
<polygon fill="none" stroke="black" points="1094,-483.04 1094,-665.04 1307,-665.04 1307,-483.04 1094,-483.04"/>
<text text-anchor="middle" x="1200.5" y="-648.24" font-family="Times,serif" font-size="16.00">Custom Attribute</text>
<polyline fill="none" stroke="black" points="1094,-639.04 1307,-639.04"/>
<text text-anchor="middle" x="1200.5" y="-622.24" font-family="Times,serif" font-size="16.00">Pointer to Attribute Type</text>
<polyline fill="none" stroke="black" points="1094,-613.04 1307,-613.04"/>
<text text-anchor="middle" x="1200.5" y="-596.24" font-family="Times,serif" font-size="16.00">Pointer to Constructor Method</text>
<polyline fill="none" stroke="black" points="1094,-587.04 1307,-587.04"/>
<text text-anchor="middle" x="1200.5" y="-570.24" font-family="Times,serif" font-size="16.00">Number of Arguments</text>
<polyline fill="none" stroke="black" points="1094,-561.04 1307,-561.04"/>
<text text-anchor="middle" x="1200.5" y="-544.24" font-family="Times,serif" font-size="16.00">Pointer to Argument 1</text>
<polyline fill="none" stroke="black" points="1094,-535.04 1307,-535.04"/>
<text text-anchor="middle" x="1200.5" y="-518.24" font-family="Times,serif" font-size="16.00">...</text>
<polyline fill="none" stroke="black" points="1094,-509.04 1307,-509.04"/>
<text text-anchor="middle" x="1200.5" y="-492.24" font-family="Times,serif" font-size="16.00">Pointer to Argument N</text>
</g>
<!-- CustomAttributesTable&#45;&gt;CustomAttribute -->
<g id="0" class="edge">
<title>CustomAttributesTable:f2&#45;&gt;CustomAttribute:f0</title>
<path fill="none" stroke="black" d="M947,-836.04C1001.83,-836.04 949.16,-761.18 983,-718.04 1016.01,-675.97 1034.04,-655.01 1082.76,-652.34"/>
<polygon fill="black" stroke="black" points="1082.58,-655.84 1092.49,-652.08 1082.4,-648.85 1082.58,-655.84"/>
</g>
<!-- TypeDefinition&#45;&gt;NameString -->
<g id="0" class="edge">
<title>TypeDefinition:f1&#45;&gt;NameString:f0</title>
<path fill="none" stroke="red" d="M2072,-578.04C2118.52,-578.04 2098.48,-503.04 2145,-503.04 2145,-503.04 2145,-503.04 2343.5,-503.04 2494.26,-503.04 2475.87,-646.41 2613,-709.04 2731.7,-763.26 2775.5,-728.04 2906,-728.04 2906,-728.04 2906,-728.04 3760,-728.04 3823.68,-728.04 3781.65,-840.54 3832.12,-854.61"/>
<polygon fill="red" stroke="red" points="3831.64,-858.07 3842,-855.85 3832.52,-851.13 3831.64,-858.07"/>
</g>
<!-- TypeDefinition&#45;&gt;AssemblyDefinition -->
<g id="0" class="edge">
<title>TypeDefinition:f5&#45;&gt;AssemblyDefinition:f0</title>
<path fill="none" stroke="black" d="M1799,-474.04C1641.4,-474.04 1587.06,-471.58 1454,-556.04 1387.78,-598.08 1422.43,-694.04 1344,-694.04 663,-694.04 663,-694.04 663,-694.04 640.06,-694.04 641.33,-712.97 626,-730.04 611.77,-745.89 614.13,-766.69 601.11,-773.66"/>
<polygon fill="black" stroke="black" points="600.52,-770.2 591.48,-775.73 601.99,-777.05 600.52,-770.2"/>
</g>
<!-- TypeDefinition&#45;&gt;CustomAttributesTable -->
<g id="0" class="edge">
<title>TypeDefinition:f2&#45;&gt;CustomAttributesTable:f0</title>
<path fill="none" stroke="black" d="M1799,-552.04C1641.08,-552.04 1592.09,-560.43 1454,-637.04 1444.11,-642.53 1389.84,-700.99 1381,-708.04 1365.68,-720.27 1363.6,-732.04 1344,-732.04 1020,-732.04 1020,-732.04 1020,-732.04 947.64,-732.04 1015.26,-871.45 958.2,-886.7"/>
<polygon fill="black" stroke="black" points="958.01,-883.19 948.5,-887.86 958.85,-890.14 958.01,-883.19"/>
</g>
<!-- TypeDefinition&#45;&gt;TypeDefinition -->
<g id="0" class="edge">
<title>TypeDefinition:f6&#45;&gt;TypeDefinition:f0</title>
<path fill="none" stroke="blue" d="M1799.13,-450.96C1751.28,-460.95 1712.5,-483.81 1712.5,-530.54 1712.5,-573.63 1745.46,-596.42 1788.1,-607.55"/>
<polygon fill="blue" stroke="blue" points="1787.12,-610.91 1797.66,-609.78 1788.72,-604.1 1787.12,-610.91"/>
</g>
<!-- MethodDefinition -->
<g id="node7" class="node">
<title>MethodDefinition</title>
<polygon fill="none" stroke="green" points="3017,-97.04 3017,-435.04 3264,-435.04 3264,-97.04 3017,-97.04"/>
<text text-anchor="middle" x="3140.5" y="-418.24" font-family="Times,serif" font-size="16.00">Method Definition</text>
<polyline fill="none" stroke="green" points="3017,-409.04 3264,-409.04"/>
<text text-anchor="middle" x="3140.5" y="-392.24" font-family="Times,serif" font-size="16.00">Pointer to Method Name</text>
<polyline fill="none" stroke="green" points="3017,-383.04 3264,-383.04"/>
<text text-anchor="middle" x="3140.5" y="-366.24" font-family="Times,serif" font-size="16.00">~Pointer to Custom Attributes</text>
<polyline fill="none" stroke="green" points="3017,-357.04 3264,-357.04"/>
<text text-anchor="middle" x="3140.5" y="-340.24" font-family="Times,serif" font-size="16.00">Method Attributes</text>
<polyline fill="none" stroke="green" points="3017,-331.04 3264,-331.04"/>
<text text-anchor="middle" x="3140.5" y="-314.24" font-family="Times,serif" font-size="16.00">Local &amp; Parameter Stack Size</text>
<polyline fill="none" stroke="green" points="3017,-305.04 3264,-305.04"/>
<text text-anchor="middle" x="3140.5" y="-288.24" font-family="Times,serif" font-size="16.00">Pointer to Method</text>
<polyline fill="none" stroke="green" points="3017,-279.04 3264,-279.04"/>
<text text-anchor="middle" x="3140.5" y="-262.24" font-family="Times,serif" font-size="16.00">Pointer to Return Type Definition</text>
<polyline fill="none" stroke="green" points="3017,-253.04 3264,-253.04"/>
<text text-anchor="middle" x="3140.5" y="-236.24" font-family="Times,serif" font-size="16.00">~Pointer to Protected Region Table</text>
<polyline fill="none" stroke="green" points="3017,-227.04 3264,-227.04"/>
<text text-anchor="middle" x="3140.5" y="-210.24" font-family="Times,serif" font-size="16.00">Pointer to GC Tracking Information</text>
<polyline fill="none" stroke="green" points="3017,-201.04 3264,-201.04"/>
<text text-anchor="middle" x="3140.5" y="-184.24" font-family="Times,serif" font-size="16.00">Number of Parameters</text>
<polyline fill="none" stroke="green" points="3017,-175.04 3264,-175.04"/>
<text text-anchor="middle" x="3140.5" y="-158.24" font-family="Times,serif" font-size="16.00">Pointer to Parameter Definition 1</text>
<polyline fill="none" stroke="green" points="3017,-149.04 3264,-149.04"/>
<text text-anchor="middle" x="3140.5" y="-132.24" font-family="Times,serif" font-size="16.00">...</text>
<polyline fill="none" stroke="green" points="3017,-123.04 3264,-123.04"/>
<text text-anchor="middle" x="3140.5" y="-106.24" font-family="Times,serif" font-size="16.00">Pointer to Parameter Definition N</text>
</g>
<!-- TypeDefinition&#45;&gt;MethodDefinition -->
<g id="0" class="edge">
<title>TypeDefinition:f9&#45;&gt;MethodDefinition:f0</title>
<path fill="none" stroke="green" d="M2072,-370.04C2105.21,-370.04 2111.79,-386.04 2145,-386.04 2145,-386.04 2145,-386.04 2343.5,-386.04 2577.83,-386.04 2640.59,-310.27 2870,-358.04 2901.54,-364.61 2967.11,-411.64 3005.72,-420.58"/>
<polygon fill="green" stroke="green" points="3005.13,-424.03 3015.5,-421.85 3006.03,-417.09 3005.13,-424.03"/>
</g>
<!-- TypeDefinition&#45;&gt;MethodDefinition -->
<g id="0" class="edge">
<title>TypeDefinition:f16&#45;&gt;MethodDefinition:f0</title>
<path fill="none" stroke="black" d="M2072,-136.04C2122.48,-136.04 2094.52,-49.04 2145,-49.04 2145,-49.04 2145,-49.04 2577,-49.04 2713.9,-49.04 2756.3,-67.8 2870,-144.04 2933.38,-186.55 2946.33,-207.06 2981,-275.04 3009.59,-331.1 2957.32,-410.93 3005.54,-420.99"/>
<polygon fill="black" stroke="black" points="3005.21,-424.47 3015.49,-421.91 3005.86,-417.5 3005.21,-424.47"/>
</g>
<!-- PropertiesTable -->
<g id="node8" class="node">
<title>PropertiesTable</title>
<polygon fill="none" stroke="black" points="2230.5,-227.04 2230.5,-357.04 2454.5,-357.04 2454.5,-227.04 2230.5,-227.04"/>
<text text-anchor="middle" x="2342.5" y="-340.24" font-family="Times,serif" font-size="16.00">Properties Table</text>
<polyline fill="none" stroke="black" points="2230.5,-331.04 2454.5,-331.04"/>
<text text-anchor="middle" x="2342.5" y="-314.24" font-family="Times,serif" font-size="16.00">Number of Properties</text>
<polyline fill="none" stroke="black" points="2230.5,-305.04 2454.5,-305.04"/>
<text text-anchor="middle" x="2342.5" y="-288.24" font-family="Times,serif" font-size="16.00">Pointer to Property Definition 1</text>
<polyline fill="none" stroke="black" points="2230.5,-279.04 2454.5,-279.04"/>
<text text-anchor="middle" x="2342.5" y="-262.24" font-family="Times,serif" font-size="16.00">...</text>
<polyline fill="none" stroke="black" points="2230.5,-253.04 2454.5,-253.04"/>
<text text-anchor="middle" x="2342.5" y="-236.24" font-family="Times,serif" font-size="16.00">Pointer to Property Definition N</text>
</g>
<!-- TypeDefinition&#45;&gt;PropertiesTable -->
<g id="0" class="edge">
<title>TypeDefinition:f10&#45;&gt;PropertiesTable:f0</title>
<path fill="none" stroke="black" d="M2072,-344.04C2138.04,-344.04 2157.35,-344.04 2218.09,-344.04"/>
<polygon fill="black" stroke="black" points="2217.99,-347.54 2227.99,-344.04 2217.99,-340.54 2217.99,-347.54"/>
</g>
<!-- FieldsTable -->
<g id="node9" class="node">
<title>FieldsTable</title>
<polygon fill="none" stroke="black" points="2242,-570.04 2242,-700.04 2443,-700.04 2443,-570.04 2242,-570.04"/>
<text text-anchor="middle" x="2342.5" y="-683.24" font-family="Times,serif" font-size="16.00">Fields Table</text>
<polyline fill="none" stroke="black" points="2242,-674.04 2443,-674.04"/>
<text text-anchor="middle" x="2342.5" y="-657.24" font-family="Times,serif" font-size="16.00">Number of Fields</text>
<polyline fill="none" stroke="black" points="2242,-648.04 2443,-648.04"/>
<text text-anchor="middle" x="2342.5" y="-631.24" font-family="Times,serif" font-size="16.00">Pointer to Field Definition 1</text>
<polyline fill="none" stroke="black" points="2242,-622.04 2443,-622.04"/>
<text text-anchor="middle" x="2342.5" y="-605.24" font-family="Times,serif" font-size="16.00">...</text>
<polyline fill="none" stroke="black" points="2242,-596.04 2443,-596.04"/>
<text text-anchor="middle" x="2342.5" y="-579.24" font-family="Times,serif" font-size="16.00">Pointer to Field Definition N</text>
</g>
<!-- TypeDefinition&#45;&gt;FieldsTable -->
<g id="0" class="edge">
<title>TypeDefinition:f11&#45;&gt;FieldsTable:f0</title>
<path fill="none" stroke="black" d="M2072,-318.04C2125.27,-318.04 2083.92,-507.53 2108,-555.04 2143.81,-625.72 2156.21,-681.58 2229.27,-686.67"/>
<polygon fill="black" stroke="black" points="2228.88,-690.16 2238.99,-686.99 2229.11,-683.16 2228.88,-690.16"/>
</g>
<!-- InterfaceSlotTable -->
<g id="node10" class="node">
<title>InterfaceSlotTable</title>
<polygon fill="none" stroke="black" points="2219,-78.04 2219,-208.04 2466,-208.04 2466,-78.04 2219,-78.04"/>
<text text-anchor="middle" x="2342.5" y="-191.24" font-family="Times,serif" font-size="16.00">Interface Slot Table</text>
<polyline fill="none" stroke="black" points="2219,-182.04 2466,-182.04"/>
<text text-anchor="middle" x="2342.5" y="-165.24" font-family="Times,serif" font-size="16.00">Number of Interface Method Tables</text>
<polyline fill="none" stroke="black" points="2219,-156.04 2466,-156.04"/>
<text text-anchor="middle" x="2342.5" y="-139.24" font-family="Times,serif" font-size="16.00">Pointer to Interface Method Table 1</text>
<polyline fill="none" stroke="black" points="2219,-130.04 2466,-130.04"/>
<text text-anchor="middle" x="2342.5" y="-113.24" font-family="Times,serif" font-size="16.00">...</text>
<polyline fill="none" stroke="black" points="2219,-104.04 2466,-104.04"/>
<text text-anchor="middle" x="2342.5" y="-87.24" font-family="Times,serif" font-size="16.00">Pointer to Interface Method Table N</text>
</g>
<!-- TypeDefinition&#45;&gt;InterfaceSlotTable -->
<g id="0" class="edge">
<title>TypeDefinition:f12&#45;&gt;InterfaceSlotTable:f0</title>
<path fill="none" stroke="black" d="M2072,-292.04C2146.3,-292.04 2141.47,-204.65 2207.73,-195.77"/>
<polygon fill="black" stroke="black" points="2207.73,-199.28 2217.49,-195.14 2207.29,-192.29 2207.73,-199.28"/>
</g>
<!-- MethodDefinition&#45;&gt;NameString -->
<g id="0" class="edge">
<title>MethodDefinition:f1&#45;&gt;NameString:f0</title>
<path fill="none" stroke="red" d="M3264,-396.04C3313.46,-396.04 3287.54,-480.04 3337,-480.04 3337,-480.04 3337,-480.04 3760,-480.04 3841.58,-480.04 3765.75,-821.62 3832.57,-853.64"/>
<polygon fill="red" stroke="red" points="3831.5,-856.99 3842.02,-855.72 3833.01,-850.15 3831.5,-856.99"/>
</g>
<!-- MethodDefinition&#45;&gt;CustomAttributesTable -->
<g id="0" class="edge">
<title>MethodDefinition:f2&#45;&gt;CustomAttributesTable:f0</title>
<path fill="none" stroke="black" d="M3017,-370.04C2751.5,-370.04 3079.56,-786.04 2870,-949.04 2615.88,-1146.71 2467.94,-926.04 2146,-926.04 1020,-926.04 1020,-926.04 1020,-926.04 987.57,-926.04 984.01,-896.17 958.12,-889.4"/>
<polygon fill="black" stroke="black" points="958.85,-885.96 948.5,-888.23 958.01,-892.91 958.85,-885.96"/>
</g>
<!-- MethodDefinition&#45;&gt;TypeDefinition -->
<g id="0" class="edge">
<title>MethodDefinition:f6&#45;&gt;TypeDefinition:f0</title>
<path fill="none" stroke="blue" d="M3017,-266.04C2932.1,-266.04 2949.86,-172.87 2870,-144.04 2762.56,-105.27 2706.86,-78.96 2613,-144.04 2536.95,-196.78 2584.37,-257.83 2540,-339.04 2513.66,-387.25 2514.03,-411.38 2466,-438.04 2355.63,-499.31 2309.23,-462.04 2183,-462.04 2145,-462.04 2145,-462.04 2145,-462.04 2124.64,-462.04 2119.69,-472.38 2108,-489.04 2077.5,-532.54 2121.8,-601.78 2083.01,-611.81"/>
<polygon fill="blue" stroke="blue" points="2083.05,-608.29 2073.5,-612.88 2083.83,-615.25 2083.05,-608.29"/>
</g>
<!-- ProtectedRegionTable -->
<g id="node14" class="node">
<title>ProtectedRegionTable</title>
<polygon fill="none" stroke="black" points="3411,-168.04 3411,-298.04 3686,-298.04 3686,-168.04 3411,-168.04"/>
<text text-anchor="middle" x="3548.5" y="-281.24" font-family="Times,serif" font-size="16.00">Protected Region Table</text>
<polyline fill="none" stroke="black" points="3411,-272.04 3686,-272.04"/>
<text text-anchor="middle" x="3548.5" y="-255.24" font-family="Times,serif" font-size="16.00">Number of Regions</text>
<polyline fill="none" stroke="black" points="3411,-246.04 3686,-246.04"/>
<text text-anchor="middle" x="3548.5" y="-229.24" font-family="Times,serif" font-size="16.00">Pointer to Protected Region Definition 1</text>
<polyline fill="none" stroke="black" points="3411,-220.04 3686,-220.04"/>
<text text-anchor="middle" x="3548.5" y="-203.24" font-family="Times,serif" font-size="16.00">...</text>
<polyline fill="none" stroke="black" points="3411,-194.04 3686,-194.04"/>
<text text-anchor="middle" x="3548.5" y="-177.24" font-family="Times,serif" font-size="16.00">Protected Region Definition N</text>
</g>
<!-- MethodDefinition&#45;&gt;ProtectedRegionTable -->
<g id="0" class="edge">
<title>MethodDefinition:f7&#45;&gt;ProtectedRegionTable:f0</title>
<path fill="none" stroke="black" d="M3264,-240.04C3328.32,-240.04 3341.26,-279.92 3399.56,-284.6"/>
<polygon fill="black" stroke="black" points="3399.36,-288.09 3409.49,-284.98 3399.63,-281.1 3399.36,-288.09"/>
</g>
<!-- GCTrackingInformation -->
<g id="node17" class="node">
<title>GCTrackingInformation</title>
<polygon fill="none" stroke="black" points="3458.5,-97.04 3458.5,-149.04 3638.5,-149.04 3638.5,-97.04 3458.5,-97.04"/>
<text text-anchor="middle" x="3548.5" y="-132.24" font-family="Times,serif" font-size="16.00">GC Tracking Information</text>
<polyline fill="none" stroke="black" points="3458.5,-123.04 3638.5,-123.04"/>
<text text-anchor="middle" x="3548.5" y="-106.24" font-family="Times,serif" font-size="16.00">TODO</text>
</g>
<!-- MethodDefinition&#45;&gt;GCTrackingInformation -->
<g id="0" class="edge">
<title>MethodDefinition:f8&#45;&gt;GCTrackingInformation:f0</title>
<path fill="none" stroke="black" d="M3264,-214.04C3352.74,-214.04 3363.93,-142.6 3446,-136.46"/>
<polygon fill="black" stroke="black" points="3446.12,-139.96 3455.99,-136.1 3445.87,-132.97 3446.12,-139.96"/>
</g>
<!-- ParameterDefinition -->
<g id="node18" class="node">
<title>ParameterDefinition</title>
<polygon fill="none" stroke="black" points="3443.5,-885.04 3443.5,-1015.04 3653.5,-1015.04 3653.5,-885.04 3443.5,-885.04"/>
<text text-anchor="middle" x="3548.5" y="-998.24" font-family="Times,serif" font-size="16.00">Parameter Definition</text>
<polyline fill="none" stroke="black" points="3443.5,-989.04 3653.5,-989.04"/>
<text text-anchor="middle" x="3548.5" y="-972.24" font-family="Times,serif" font-size="16.00">Pointer to Parameter Name</text>
<polyline fill="none" stroke="black" points="3443.5,-963.04 3653.5,-963.04"/>
<text text-anchor="middle" x="3548.5" y="-946.24" font-family="Times,serif" font-size="16.00">~Pointer to Custom Attributes</text>
<polyline fill="none" stroke="black" points="3443.5,-937.04 3653.5,-937.04"/>
<text text-anchor="middle" x="3548.5" y="-920.24" font-family="Times,serif" font-size="16.00">Parameter Attributes</text>
<polyline fill="none" stroke="black" points="3443.5,-911.04 3653.5,-911.04"/>
<text text-anchor="middle" x="3548.5" y="-894.24" font-family="Times,serif" font-size="16.00">Pointer to Parameter Type</text>
</g>
<!-- MethodDefinition&#45;&gt;ParameterDefinition -->
<g id="0" class="edge">
<title>MethodDefinition:f10&#45;&gt;ParameterDefinition:f0</title>
<path fill="none" stroke="black" d="M3264,-162.04C3301.11,-162.04 3292.97,-457.61 3300,-494.04 3321.49,-605.34 3325.03,-976.26 3431.19,-1000.77"/>
<polygon fill="black" stroke="black" points="3430.67,-1004.23 3441,-1001.87 3431.45,-997.28 3430.67,-1004.23"/>
</g>
<!-- PropertyDefinition -->
<g id="node12" class="node">
<title>PropertyDefinition</title>
<polygon fill="none" stroke="black" points="2613,-368.04 2613,-550.04 2870,-550.04 2870,-368.04 2613,-368.04"/>
<text text-anchor="middle" x="2741.5" y="-533.24" font-family="Times,serif" font-size="16.00">Property Definition</text>
<polyline fill="none" stroke="black" points="2613,-524.04 2870,-524.04"/>
<text text-anchor="middle" x="2741.5" y="-507.24" font-family="Times,serif" font-size="16.00">Pointer to Property Name</text>
<polyline fill="none" stroke="black" points="2613,-498.04 2870,-498.04"/>
<text text-anchor="middle" x="2741.5" y="-481.24" font-family="Times,serif" font-size="16.00">~Pointer to Custom Attributes</text>
<polyline fill="none" stroke="black" points="2613,-472.04 2870,-472.04"/>
<text text-anchor="middle" x="2741.5" y="-455.24" font-family="Times,serif" font-size="16.00">Property Attributes</text>
<polyline fill="none" stroke="black" points="2613,-446.04 2870,-446.04"/>
<text text-anchor="middle" x="2741.5" y="-429.24" font-family="Times,serif" font-size="16.00">Pointer to Property Type</text>
<polyline fill="none" stroke="black" points="2613,-420.04 2870,-420.04"/>
<text text-anchor="middle" x="2741.5" y="-403.24" font-family="Times,serif" font-size="16.00">~Pointer to Getter Method Definition</text>
<polyline fill="none" stroke="black" points="2613,-394.04 2870,-394.04"/>
<text text-anchor="middle" x="2741.5" y="-377.24" font-family="Times,serif" font-size="16.00">~Pointer to Setter Method Defiinition</text>
</g>
<!-- PropertiesTable&#45;&gt;PropertyDefinition -->
<g id="0" class="edge">
<title>PropertiesTable:f2&#45;&gt;PropertyDefinition:f0</title>
<path fill="none" stroke="black" d="M2454.81,-305.23C2557.81,-367.86 2492.76,-526.38 2601.54,-536.53"/>
<polygon fill="black" stroke="black" points="2601.34,-540.03 2611.49,-536.98 2601.65,-533.03 2601.34,-540.03"/>
</g>
<!-- FieldDefinition -->
<g id="node11" class="node">
<title>FieldDefinition</title>
<polygon fill="none" stroke="black" points="2636.5,-757.04 2636.5,-939.04 2846.5,-939.04 2846.5,-757.04 2636.5,-757.04"/>
<text text-anchor="middle" x="2741.5" y="-922.24" font-family="Times,serif" font-size="16.00">Field Definition</text>
<polyline fill="none" stroke="black" points="2636.5,-913.04 2846.5,-913.04"/>
<text text-anchor="middle" x="2741.5" y="-896.24" font-family="Times,serif" font-size="16.00">Pointer to Field Name</text>
<polyline fill="none" stroke="black" points="2636.5,-887.04 2846.5,-887.04"/>
<text text-anchor="middle" x="2741.5" y="-870.24" font-family="Times,serif" font-size="16.00">~Pointer to Custom Attributes</text>
<polyline fill="none" stroke="black" points="2636.5,-861.04 2846.5,-861.04"/>
<text text-anchor="middle" x="2741.5" y="-844.24" font-family="Times,serif" font-size="16.00">Field Attributes</text>
<polyline fill="none" stroke="black" points="2636.5,-835.04 2846.5,-835.04"/>
<text text-anchor="middle" x="2741.5" y="-818.24" font-family="Times,serif" font-size="16.00">Pointer to Field Type</text>
<polyline fill="none" stroke="black" points="2636.5,-809.04 2846.5,-809.04"/>
<text text-anchor="middle" x="2741.5" y="-792.24" font-family="Times,serif" font-size="16.00">~Address</text>
<polyline fill="none" stroke="black" points="2636.5,-783.04 2846.5,-783.04"/>
<text text-anchor="middle" x="2741.5" y="-766.24" font-family="Times,serif" font-size="16.00">Offset / Size</text>
</g>
<!-- FieldsTable&#45;&gt;FieldDefinition -->
<g id="0" class="edge">
<title>FieldsTable:f2&#45;&gt;FieldDefinition:f0</title>
<path fill="none" stroke="black" d="M2443.41,-648.22C2513.8,-678.68 2532.99,-694.98 2577,-758.04 2619.86,-819.46 2563.07,-915.27 2624.16,-925.2"/>
<polygon fill="black" stroke="black" points="2623.76,-928.68 2633.99,-925.93 2624.28,-921.7 2623.76,-928.68"/>
</g>
<!-- InterfaceMethodTable -->
<g id="node16" class="node">
<title>InterfaceMethodTable</title>
<polygon fill="none" stroke="black" points="2632.5,-154.04 2632.5,-310.04 2850.5,-310.04 2850.5,-154.04 2632.5,-154.04"/>
<text text-anchor="middle" x="2741.5" y="-293.24" font-family="Times,serif" font-size="16.00">Interface Method Table</text>
<polyline fill="none" stroke="black" points="2632.5,-284.04 2850.5,-284.04"/>
<text text-anchor="middle" x="2741.5" y="-267.24" font-family="Times,serif" font-size="16.00">Pointer to Interface Type</text>
<polyline fill="none" stroke="black" points="2632.5,-258.04 2850.5,-258.04"/>
<text text-anchor="middle" x="2741.5" y="-241.24" font-family="Times,serif" font-size="16.00">Number of Methods</text>
<polyline fill="none" stroke="black" points="2632.5,-232.04 2850.5,-232.04"/>
<text text-anchor="middle" x="2741.5" y="-215.24" font-family="Times,serif" font-size="16.00">Pointer to Method Definition 1</text>
<polyline fill="none" stroke="black" points="2632.5,-206.04 2850.5,-206.04"/>
<text text-anchor="middle" x="2741.5" y="-189.24" font-family="Times,serif" font-size="16.00">..</text>
<polyline fill="none" stroke="black" points="2632.5,-180.04 2850.5,-180.04"/>
<text text-anchor="middle" x="2741.5" y="-163.24" font-family="Times,serif" font-size="16.00">Pointer to Method Definition N</text>
</g>
<!-- InterfaceSlotTable&#45;&gt;InterfaceMethodTable -->
<g id="0" class="edge">
<title>InterfaceSlotTable:f2&#45;&gt;InterfaceMethodTable:f0</title>
<path fill="none" stroke="black" d="M2466,-143.04C2562.45,-143.04 2533.65,-284.96 2620.07,-296.32"/>
<polygon fill="black" stroke="black" points="2619.79,-299.81 2629.99,-296.95 2620.23,-292.83 2619.79,-299.81"/>
</g>
<!-- FieldDefinition&#45;&gt;NameString -->
<g id="0" class="edge">
<title>FieldDefinition:f1&#45;&gt;NameString:f0</title>
<path fill="none" stroke="red" d="M2847.5,-900.04C2894.23,-900.04 2896.27,-856.04 2943,-856.04 2943,-856.04 2943,-856.04 3760,-856.04 3793.05,-856.04 3804.03,-856.04 3832.25,-856.04"/>
<polygon fill="red" stroke="red" points="3831.99,-859.54 3841.99,-856.04 3831.99,-852.54 3831.99,-859.54"/>
</g>
<!-- FieldDefinition&#45;&gt;CustomAttributesTable -->
<g id="0" class="edge">
<title>FieldDefinition:f2&#45;&gt;CustomAttributesTable:f0</title>
<path fill="none" stroke="black" d="M2635.5,-874.04C2580.2,-874.04 2201.3,-964.04 2146,-964.04 1020,-964.04 1020,-964.04 1020,-964.04 1000.4,-964.04 997.07,-953.69 983,-940.04 966.14,-923.68 971.95,-898.34 957.9,-890.46"/>
<polygon fill="black" stroke="black" points="959,-887.12 948.48,-888.37 957.48,-893.96 959,-887.12"/>
</g>
<!-- FieldDefinition&#45;&gt;TypeDefinition -->
<g id="0" class="edge">
<title>FieldDefinition:f4&#45;&gt;TypeDefinition:f0</title>
<path fill="none" stroke="blue" d="M2635.5,-822.04C2587.59,-822.04 2587.91,-772.04 2540,-772.04 2145,-772.04 2145,-772.04 2145,-772.04 2109.92,-772.04 2110.37,-642.58 2082.22,-617.3"/>
<polygon fill="blue" stroke="blue" points="2083.97,-614.23 2073.4,-613.63 2081.29,-620.7 2083.97,-614.23"/>
</g>
<!-- PropertyDefinition&#45;&gt;NameString -->
<g id="0" class="edge">
<title>PropertyDefinition:f1&#45;&gt;NameString:f0</title>
<path fill="none" stroke="red" d="M2870,-511.04C2933.73,-511.04 2916.27,-603.04 2980,-603.04 2980,-603.04 2980,-603.04 3760,-603.04 3815.16,-603.04 3788.63,-822.64 3832.62,-852.66"/>
<polygon fill="red" stroke="red" points="3831.47,-855.97 3842.05,-855.59 3833.55,-849.28 3831.47,-855.97"/>
</g>
<!-- PropertyDefinition&#45;&gt;CustomAttributesTable -->
<g id="0" class="edge">
<title>PropertyDefinition:f2&#45;&gt;CustomAttributesTable:f0</title>
<path fill="none" stroke="black" d="M2613,-485.04C2598.1,-485.04 2547.05,-729.92 2540,-743.04 2458.93,-893.89 2354.25,-888.04 2183,-888.04 1020,-888.04 1020,-888.04 1020,-888.04 991.74,-888.04 981.94,-888.04 958.44,-888.04"/>
<polygon fill="black" stroke="black" points="958.51,-884.54 948.51,-888.04 958.51,-891.54 958.51,-884.54"/>
</g>
<!-- PropertyDefinition&#45;&gt;TypeDefinition -->
<g id="0" class="edge">
<title>PropertyDefinition:f4&#45;&gt;TypeDefinition:f0</title>
<path fill="none" stroke="blue" d="M2613,-433.04C2545.25,-433.04 2607.75,-729.04 2540,-729.04 2145,-729.04 2145,-729.04 2145,-729.04 2088.37,-729.04 2126.59,-628.78 2083.3,-614.68"/>
<polygon fill="blue" stroke="blue" points="2083.9,-611.23 2073.5,-613.26 2082.89,-618.16 2083.9,-611.23"/>
</g>
<!-- PropertyDefinition&#45;&gt;MethodDefinition -->
<g id="0" class="edge">
<title>PropertyDefinition:f5&#45;&gt;MethodDefinition:f0</title>
<path fill="none" stroke="green" d="M2870,-407.04C2886.61,-407.04 2889.6,-414.43 2906,-417.04 2950.77,-424.18 2965.27,-422.43 3005.54,-422.09"/>
<polygon fill="green" stroke="green" points="3005.5,-425.59 3015.49,-422.05 3005.47,-418.59 3005.5,-425.59"/>
</g>
<!-- PropertyDefinition&#45;&gt;MethodDefinition -->
<g id="0" class="edge">
<title>PropertyDefinition:f6&#45;&gt;MethodDefinition:f0</title>
<path fill="none" stroke="green" d="M2870,-381.04C2933.85,-381.04 2947.65,-417.38 3005.64,-421.64"/>
<polygon fill="green" stroke="green" points="3005.37,-425.13 3015.49,-421.99 3005.62,-418.14 3005.37,-425.13"/>
</g>
<!-- MethodLookupTable -->
<g id="node13" class="node">
<title>MethodLookupTable</title>
<polygon fill="none" stroke="black" points="2614.5,-569.04 2614.5,-699.04 2868.5,-699.04 2868.5,-569.04 2614.5,-569.04"/>
<text text-anchor="middle" x="2741.5" y="-682.24" font-family="Times,serif" font-size="16.00">Method Lookup Table</text>
<polyline fill="none" stroke="black" points="2614.5,-673.04 2868.5,-673.04"/>
<text text-anchor="middle" x="2741.5" y="-656.24" font-family="Times,serif" font-size="16.00">Number of Methods</text>
<polyline fill="none" stroke="black" points="2614.5,-647.04 2868.5,-647.04"/>
<text text-anchor="middle" x="2741.5" y="-630.24" font-family="Times,serif" font-size="16.00">Pointer to Method (Starting Address)</text>
<polyline fill="none" stroke="black" points="2614.5,-621.04 2868.5,-621.04"/>
<text text-anchor="middle" x="2741.5" y="-604.24" font-family="Times,serif" font-size="16.00">Method Size</text>
<polyline fill="none" stroke="black" points="2614.5,-595.04 2868.5,-595.04"/>
<text text-anchor="middle" x="2741.5" y="-578.24" font-family="Times,serif" font-size="16.00">Pointer to Method Definition</text>
</g>
<!-- MethodLookupTable&#45;&gt;MethodDefinition -->
<g id="0" class="edge">
<title>MethodLookupTable:f3&#45;&gt;MethodDefinition:f0</title>
<path fill="none" stroke="green" d="M2869.5,-582.04C2914.18,-582.04 2960.92,-445.49 3005.91,-424.69"/>
<polygon fill="green" stroke="green" points="3006.61,-428.12 3015.53,-422.39 3004.99,-421.31 3006.61,-428.12"/>
</g>
<!-- ProtectedRegionDefinition -->
<g id="node15" class="node">
<title>ProtectedRegionDefinition</title>
<polygon fill="none" stroke="black" points="3833,-64.04 3833,-220.04 4030,-220.04 4030,-64.04 3833,-64.04"/>
<text text-anchor="middle" x="3931.5" y="-203.24" font-family="Times,serif" font-size="16.00">Protected Region Definition</text>
<polyline fill="none" stroke="black" points="3833,-194.04 4030,-194.04"/>
<text text-anchor="middle" x="3931.5" y="-177.24" font-family="Times,serif" font-size="16.00">Region Start</text>
<polyline fill="none" stroke="black" points="3833,-168.04 4030,-168.04"/>
<text text-anchor="middle" x="3931.5" y="-151.24" font-family="Times,serif" font-size="16.00">Region End</text>
<polyline fill="none" stroke="black" points="3833,-142.04 4030,-142.04"/>
<text text-anchor="middle" x="3931.5" y="-125.24" font-family="Times,serif" font-size="16.00">Region Handler</text>
<polyline fill="none" stroke="black" points="3833,-116.04 4030,-116.04"/>
<text text-anchor="middle" x="3931.5" y="-99.24" font-family="Times,serif" font-size="16.00">Exception Handler Type</text>
<polyline fill="none" stroke="black" points="3833,-90.04 4030,-90.04"/>
<text text-anchor="middle" x="3931.5" y="-73.24" font-family="Times,serif" font-size="16.00">Pointer to Exception Type</text>
</g>
<!-- ProtectedRegionTable&#45;&gt;ProtectedRegionDefinition -->
<g id="0" class="edge">
<title>ProtectedRegionTable:f2&#45;&gt;ProtectedRegionDefinition:f0</title>
<path fill="none" stroke="black" d="M3686,-233.04C3748.33,-233.04 3764.73,-210.1 3821.5,-207.32"/>
<polygon fill="black" stroke="black" points="3821.57,-210.82 3831.49,-207.08 3821.41,-203.82 3821.57,-210.82"/>
</g>
<!-- ProtectedRegionDefinition&#45;&gt;TypeDefinition -->
<g id="0" class="edge">
<title>ProtectedRegionDefinition:f5&#45;&gt;TypeDefinition:f0</title>
<path fill="none" stroke="blue" d="M3833,-77.04C3800.31,-77.04 3792.69,-68.04 3760,-68.04 2980,-68.04 2980,-68.04 2980,-68.04 2816.23,-68.04 2750.25,-11.7 2613,-101.04 2500.12,-174.52 2574.57,-286.34 2466,-366.04 2362.5,-442.02 2311.39,-424.04 2183,-424.04 2145,-424.04 2145,-424.04 2145,-424.04 2113.29,-424.04 2120.63,-455.96 2108,-485.04 2086.16,-535.33 2124.72,-602.48 2083.22,-611.92"/>
<polygon fill="blue" stroke="blue" points="2083.11,-608.42 2073.51,-612.89 2083.8,-615.38 2083.11,-608.42"/>
</g>
<!-- InterfaceMethodTable&#45;&gt;TypeDefinition -->
<g id="0" class="edge">
<title>InterfaceMethodTable:f1&#45;&gt;TypeDefinition:f0</title>
<path fill="none" stroke="blue" d="M2631.5,-271.04C2524.72,-271.04 2584.53,-405.09 2503,-474.04 2444.29,-523.7 2420.39,-541.04 2343.5,-541.04 2145,-541.04 2145,-541.04 2145,-541.04 2127.42,-541.04 2121.58,-543.87 2108,-555.04 2088.23,-571.31 2097.79,-601.42 2083.04,-610.43"/>
<polygon fill="blue" stroke="blue" points="2082.4,-606.98 2073.47,-612.7 2084.01,-613.8 2082.4,-606.98"/>
</g>
<!-- InterfaceMethodTable&#45;&gt;MethodDefinition -->
<g id="0" class="edge">
<title>InterfaceMethodTable:f3&#45;&gt;MethodDefinition:f0</title>
<path fill="none" stroke="green" d="M2851.5,-219.04C2933.69,-219.04 2933.08,-284.28 2981,-351.04 2998.97,-376.08 2986.1,-411.37 3005.87,-420.06"/>
<polygon fill="green" stroke="green" points="3005.05,-423.47 3015.51,-421.78 3006.28,-416.57 3005.05,-423.47"/>
</g>
<!-- ParameterDefinition&#45;&gt;NameString -->
<g id="0" class="edge">
<title>ParameterDefinition:f1&#45;&gt;NameString:f0</title>
<path fill="none" stroke="red" d="M3654.5,-976.04C3700.75,-976.04 3781.36,-872.33 3832.44,-857.74"/>
<polygon fill="red" stroke="red" points="3832.65,-861.25 3842,-856.27 3831.59,-854.33 3832.65,-861.25"/>
</g>
<!-- ParameterDefinition&#45;&gt;CustomAttributesTable -->
<g id="0" class="edge">
<title>ParameterDefinition:f2&#45;&gt;CustomAttributesTable:f0</title>
<path fill="none" stroke="black" d="M3442.5,-950.04C3356.5,-950.04 3387,-1082.04 3301,-1082.04 1020,-1082.04 1020,-1082.04 1020,-1082.04 977.9,-1082.04 990.26,-919.95 957.51,-892.1"/>
<polygon fill="black" stroke="black" points="959,-888.92 948.41,-888.59 956.48,-895.45 959,-888.92"/>
</g>
<!-- ParameterDefinition&#45;&gt;TypeDefinition -->
<g id="0" class="edge">
<title>ParameterDefinition:f4&#45;&gt;TypeDefinition:f0</title>
<path fill="none" stroke="blue" d="M3442.5,-898.04C3386.6,-898.04 3393.9,-968.04 3338,-968.04 2906,-968.04 2906,-968.04 2906,-968.04 2775.5,-968.04 2735.13,-995.02 2613,-949.04 2535.88,-920.01 2542.83,-865.84 2466,-836.04 2348.31,-790.4 2309.23,-812.04 2183,-812.04 2145,-812.04 2145,-812.04 2145,-812.04 2101.94,-812.04 2115.96,-645.78 2082.72,-617.2"/>
<polygon fill="blue" stroke="blue" points="2084,-613.94 2073.41,-613.59 2081.47,-620.47 2084,-613.94"/>
</g>
<!-- CustomAttribute&#45;&gt;TypeDefinition -->
<g id="0" class="edge">
<title>CustomAttribute:f1&#45;&gt;TypeDefinition:f0</title>
<path fill="none" stroke="blue" d="M1307,-626.04C1339.64,-626.04 1347.36,-618.04 1380,-618.04 1380,-618.04 1380,-618.04 1418,-618.04 1583.54,-618.04 1627.69,-613.27 1787.78,-613.05"/>
<polygon fill="blue" stroke="blue" points="1787.49,-616.55 1797.49,-613.04 1787.48,-609.55 1787.49,-616.55"/>
</g>
<!-- CustomAttribute&#45;&gt;MethodDefinition -->
<g id="0" class="edge">
<title>CustomAttribute:f2&#45;&gt;MethodDefinition:f0</title>
<path fill="none" stroke="green" d="M1307,-600.04C1388.09,-600.04 1727.35,-99.01 1799,-61.04 1936.29,11.7 1989.62,-11.04 2145,-11.04 2145,-11.04 2145,-11.04 2577,-11.04 2708.15,-11.04 2762.87,29.6 2870,-46.04 2960.76,-110.13 2943.29,-165.53 2981,-270.04 3003.14,-331.39 2954.18,-411.62 3005.73,-421.11"/>
<polygon fill="green" stroke="green" points="3005.24,-424.59 3015.49,-421.92 3005.81,-417.61 3005.24,-424.59"/>
</g>
<!-- CustomAttributeArgument -->
<g id="node20" class="node">
<title>CustomAttributeArgument</title>
<polygon fill="none" stroke="black" points="1454,-647.04 1454,-803.04 1652,-803.04 1652,-647.04 1454,-647.04"/>
<text text-anchor="middle" x="1553" y="-786.24" font-family="Times,serif" font-size="16.00">Custom Attribute Argument</text>
<polyline fill="none" stroke="black" points="1454,-777.04 1652,-777.04"/>
<text text-anchor="middle" x="1553" y="-760.24" font-family="Times,serif" font-size="16.00">~Pointer to Argument Name</text>
<polyline fill="none" stroke="black" points="1454,-751.04 1652,-751.04"/>
<text text-anchor="middle" x="1553" y="-734.24" font-family="Times,serif" font-size="16.00">Is Argument a Field</text>
<polyline fill="none" stroke="black" points="1454,-725.04 1652,-725.04"/>
<text text-anchor="middle" x="1553" y="-708.24" font-family="Times,serif" font-size="16.00">Pointer to Argument Type</text>
<polyline fill="none" stroke="black" points="1454,-699.04 1652,-699.04"/>
<text text-anchor="middle" x="1553" y="-682.24" font-family="Times,serif" font-size="16.00">Argument Size</text>
<polyline fill="none" stroke="black" points="1454,-673.04 1652,-673.04"/>
<text text-anchor="middle" x="1553" y="-656.24" font-family="Times,serif" font-size="16.00">Argument</text>
</g>
<!-- CustomAttribute&#45;&gt;CustomAttributeArgument -->
<g id="0" class="edge">
<title>CustomAttribute:f4&#45;&gt;CustomAttributeArgument:f0</title>
<path fill="none" stroke="black" d="M1307,-548.04C1428.79,-548.04 1334.66,-774.7 1442.54,-789.31"/>
<polygon fill="black" stroke="black" points="1442.29,-792.8 1452.49,-789.95 1442.74,-785.81 1442.29,-792.8"/>
</g>
<!-- CustomAttributeArgument&#45;&gt;NameString -->
<g id="0" class="edge">
<title>CustomAttributeArgument:f1&#45;&gt;NameString:f0</title>
<path fill="none" stroke="red" d="M1652,-764.04C1702.14,-764.04 1674.86,-850.04 1725,-850.04 1725,-850.04 1725,-850.04 2183,-850.04 2515.7,-850.04 2573.3,-1044.04 2906,-1044.04 2906,-1044.04 2906,-1044.04 3760,-1044.04 3847.32,-1044.04 3760.61,-872.56 3832.3,-857.15"/>
<polygon fill="red" stroke="red" points="3832.39,-860.66 3841.99,-856.19 3831.7,-853.69 3832.39,-860.66"/>
</g>
<!-- CustomAttributeArgument&#45;&gt;TypeDefinition -->
<g id="0" class="edge">
<title>CustomAttributeArgument:f3&#45;&gt;TypeDefinition:f0</title>
<path fill="none" stroke="blue" d="M1652,-712.04C1660.5,-712.04 1756.54,-638.26 1788.98,-618.09"/>
<polygon fill="blue" stroke="blue" points="1790.29,-621.35 1797.65,-613.72 1787.14,-615.09 1790.29,-621.35"/>
</g>
</g>
</svg>
