<?xml version="1.0" encoding="UTF-8" standalone="no"?>
<!DOCTYPE svg PUBLIC "-//W3C//DTD SVG 1.1//EN"
 "http://www.w3.org/Graphics/SVG/1.1/DTD/svg11.dtd">
<!-- Generated by graphviz version 7.1.0 (0)
 -->
<!-- Title: MOSA Runtime Tables Pages: 1 -->
<svg width="4727pt" height="1135pt"
 viewBox="0.00 0.00 4727.00 1134.87" xmlns="http://www.w3.org/2000/svg" xmlns:xlink="http://www.w3.org/1999/xlink">
<g id="graph0" class="graph" transform="scale(1 1) rotate(0) translate(4 1130.87)">
<title>MOSA Runtime Tables</title>
<polygon fill="white" stroke="none" points="-4,4 -4,-1130.87 4723,-1130.87 4723,4 -4,4"/>
<!-- Key -->
<g id="node1" class="node">
<title>Key</title>
<polygon fill="none" stroke="black" points="0,-628.87 0,-698.87 297,-698.87 297,-628.87 0,-628.87"/>
<text text-anchor="middle" x="148.5" y="-682.07" font-family="Times,serif" font-size="16.00">Key</text>
<polyline fill="none" stroke="black" points="0,-672.87 297,-672.87"/>
<text text-anchor="middle" x="148.5" y="-656.07" font-family="Times,serif" font-size="16.00">~ Denotes field may be zero filled</text>
<text text-anchor="middle" x="148.5" y="-638.07" font-family="Times,serif" font-size="16.00">due to no value being available.</text>
</g>
<!-- NameString -->
<g id="node2" class="node">
<title>NameString</title>
<polygon fill="none" stroke="red" points="4487.5,-745.87 4487.5,-875.87 4703.5,-875.87 4703.5,-745.87 4487.5,-745.87"/>
<text text-anchor="middle" x="4595.5" y="-859.07" font-family="Times,serif" font-size="16.00">String Object</text>
<polyline fill="none" stroke="red" points="4487.5,-849.87 4703.5,-849.87"/>
<text text-anchor="middle" x="4595.5" y="-833.07" font-family="Times,serif" font-size="16.00">Object Header</text>
<polyline fill="none" stroke="red" points="4487.5,-823.87 4703.5,-823.87"/>
<text text-anchor="middle" x="4595.5" y="-807.07" font-family="Times,serif" font-size="16.00">Pointer to Method Table</text>
<polyline fill="none" stroke="red" points="4487.5,-797.87 4703.5,-797.87"/>
<text text-anchor="middle" x="4595.5" y="-781.07" font-family="Times,serif" font-size="16.00">String Length</text>
<polyline fill="none" stroke="red" points="4487.5,-771.87 4703.5,-771.87"/>
<text text-anchor="middle" x="4595.5" y="-755.07" font-family="Times,serif" font-size="16.00">Unicode String</text>
</g>
<!-- AssemblyListTable -->
<g id="node3" class="node">
<title>AssemblyListTable</title>
<polygon fill="none" stroke="black" points="47.5,-717.87 47.5,-847.87 249.5,-847.87 249.5,-717.87 47.5,-717.87"/>
<text text-anchor="middle" x="148.5" y="-831.07" font-family="Times,serif" font-size="16.00">Assembly Table</text>
<polyline fill="none" stroke="black" points="47.5,-821.87 249.5,-821.87"/>
<text text-anchor="middle" x="148.5" y="-805.07" font-family="Times,serif" font-size="16.00">Number of Assemblies</text>
<polyline fill="none" stroke="black" points="47.5,-795.87 249.5,-795.87"/>
<text text-anchor="middle" x="148.5" y="-779.07" font-family="Times,serif" font-size="16.00">Pointer to Assembly 1</text>
<polyline fill="none" stroke="black" points="47.5,-769.87 249.5,-769.87"/>
<text text-anchor="middle" x="148.5" y="-753.07" font-family="Times,serif" font-size="16.00">..</text>
<polyline fill="none" stroke="black" points="47.5,-743.87 249.5,-743.87"/>
<text text-anchor="middle" x="148.5" y="-727.07" font-family="Times,serif" font-size="16.00">Pointer to Assembly N</text>
</g>
<!-- AssemblyDefinition -->
<g id="node4" class="node">
<title>AssemblyDefinition</title>
<polygon fill="none" stroke="black" points="444,-587.87 444,-795.87 710,-795.87 710,-587.87 444,-587.87"/>
<text text-anchor="middle" x="577" y="-779.07" font-family="Times,serif" font-size="16.00">Assembly</text>
<polyline fill="none" stroke="black" points="444,-769.87 710,-769.87"/>
<text text-anchor="middle" x="577" y="-753.07" font-family="Times,serif" font-size="16.00">Pointer to Assembly Name</text>
<polyline fill="none" stroke="black" points="444,-743.87 710,-743.87"/>
<text text-anchor="middle" x="577" y="-727.07" font-family="Times,serif" font-size="16.00">~Pointer to Custom Attributes</text>
<polyline fill="none" stroke="black" points="444,-717.87 710,-717.87"/>
<text text-anchor="middle" x="577" y="-701.07" font-family="Times,serif" font-size="16.00">Flags: IsReflectionOnly</text>
<polyline fill="none" stroke="black" points="444,-691.87 710,-691.87"/>
<text text-anchor="middle" x="577" y="-675.07" font-family="Times,serif" font-size="16.00">Number of Types</text>
<polyline fill="none" stroke="black" points="444,-665.87 710,-665.87"/>
<text text-anchor="middle" x="577" y="-649.07" font-family="Times,serif" font-size="16.00">Pointer to Type Definition 1</text>
<polyline fill="none" stroke="black" points="444,-639.87 710,-639.87"/>
<text text-anchor="middle" x="577" y="-623.07" font-family="Times,serif" font-size="16.00">...</text>
<polyline fill="none" stroke="black" points="444,-613.87 710,-613.87"/>
<text text-anchor="middle" x="577" y="-597.07" font-family="Times,serif" font-size="16.00">Pointer to Type Definition N</text>
</g>
<!-- AssemblyListTable&#45;&gt;AssemblyDefinition -->
<g id="0" class="edge">
<title>AssemblyListTable:f2&#45;&gt;AssemblyDefinition:f0</title>
<path fill="none" stroke="black" d="M250.5,-782.87C332.64,-782.87 355.94,-782.87 432.79,-782.87"/>
<polygon fill="black" stroke="black" points="432.49,-786.37 442.49,-782.87 432.49,-779.37 432.49,-786.37"/>
</g>
<!-- AssemblyDefinition&#45;&gt;NameString -->
<g id="0" class="edge">
<title>AssemblyDefinition:f1&#45;&gt;NameString:f0</title>
<path fill="none" stroke="red" d="M710,-756.87C877.61,-756.87 615.39,-1126.87 783,-1126.87 783,-1126.87 783,-1126.87 4399,-1126.87 4518.51,-1126.87 4373.18,-880.11 4475.1,-863.72"/>
<polygon fill="red" stroke="red" points="4475.28,-867.22 4484.99,-862.98 4474.76,-860.24 4475.28,-867.22"/>
</g>
<!-- CustomAttributesTable -->
<g id="node5" class="node">
<title>CustomAttributesTable</title>
<polygon fill="none" stroke="black" points="857,-777.87 857,-907.87 1121,-907.87 1121,-777.87 857,-777.87"/>
<text text-anchor="middle" x="989" y="-891.07" font-family="Times,serif" font-size="16.00">Custom Attributes Table</text>
<polyline fill="none" stroke="black" points="857,-881.87 1121,-881.87"/>
<text text-anchor="middle" x="989" y="-865.07" font-family="Times,serif" font-size="16.00">Number of Attributes</text>
<polyline fill="none" stroke="black" points="857,-855.87 1121,-855.87"/>
<text text-anchor="middle" x="989" y="-839.07" font-family="Times,serif" font-size="16.00">Pointer to Custom Attribute 1</text>
<polyline fill="none" stroke="black" points="857,-829.87 1121,-829.87"/>
<text text-anchor="middle" x="989" y="-813.07" font-family="Times,serif" font-size="16.00">...</text>
<polyline fill="none" stroke="black" points="857,-803.87 1121,-803.87"/>
<text text-anchor="middle" x="989" y="-787.07" font-family="Times,serif" font-size="16.00">Pointer to Custom Attribute N</text>
</g>
<!-- AssemblyDefinition&#45;&gt;CustomAttributesTable -->
<g id="0" class="edge">
<title>AssemblyDefinition:f2&#45;&gt;CustomAttributesTable:f0</title>
<path fill="none" stroke="black" d="M710,-730.87C803.87,-730.87 762.87,-881.69 845.68,-894.06"/>
<polygon fill="black" stroke="black" points="845.27,-897.54 855.49,-894.76 845.76,-890.56 845.27,-897.54"/>
</g>
<!-- TypeDefinition -->
<g id="node6" class="node">
<title>TypeDefinition</title>
<polygon fill="none" stroke="blue" points="2084,-77.87 2084,-641.87 2434,-641.87 2434,-77.87 2084,-77.87"/>
<text text-anchor="middle" x="2259" y="-625.07" font-family="Times,serif" font-size="16.00">Type Definition</text>
<text text-anchor="middle" x="2259" y="-607.07" font-family="Times,serif" font-size="16.00">(contains Method Table)</text>
<polyline fill="none" stroke="blue" points="2084,-597.87 2434,-597.87"/>
<text text-anchor="middle" x="2259" y="-581.07" font-family="Times,serif" font-size="16.00">Pointer to Type Name</text>
<polyline fill="none" stroke="blue" points="2084,-571.87 2434,-571.87"/>
<text text-anchor="middle" x="2259" y="-555.07" font-family="Times,serif" font-size="16.00">~Pointer to Custom Attributes</text>
<polyline fill="none" stroke="blue" points="2084,-545.87 2434,-545.87"/>
<text text-anchor="middle" x="2259" y="-529.07" font-family="Times,serif" font-size="16.00">Type Code &amp; Attributes</text>
<polyline fill="none" stroke="blue" points="2084,-519.87 2434,-519.87"/>
<text text-anchor="middle" x="2259" y="-503.07" font-family="Times,serif" font-size="16.00">Type Size</text>
<polyline fill="none" stroke="blue" points="2084,-493.87 2434,-493.87"/>
<text text-anchor="middle" x="2259" y="-477.07" font-family="Times,serif" font-size="16.00">Pointer to Assembly</text>
<polyline fill="none" stroke="blue" points="2084,-467.87 2434,-467.87"/>
<text text-anchor="middle" x="2259" y="-451.07" font-family="Times,serif" font-size="16.00">~Pointer to Parent Type</text>
<polyline fill="none" stroke="blue" points="2084,-441.87 2434,-441.87"/>
<text text-anchor="middle" x="2259" y="-425.07" font-family="Times,serif" font-size="16.00">~Pointer to Declaring Type</text>
<polyline fill="none" stroke="blue" points="2084,-415.87 2434,-415.87"/>
<text text-anchor="middle" x="2259" y="-399.07" font-family="Times,serif" font-size="16.00">~Pointer to Element Type</text>
<polyline fill="none" stroke="blue" points="2084,-389.87 2434,-389.87"/>
<text text-anchor="middle" x="2259" y="-373.07" font-family="Times,serif" font-size="16.00">~Pointer to Default Constructor Method</text>
<polyline fill="none" stroke="blue" points="2084,-363.87 2434,-363.87"/>
<text text-anchor="middle" x="2259" y="-347.07" font-family="Times,serif" font-size="16.00">~Pointer to Properties Table</text>
<polyline fill="none" stroke="blue" points="2084,-337.87 2434,-337.87"/>
<text text-anchor="middle" x="2259" y="-321.07" font-family="Times,serif" font-size="16.00">~Pointer to Fields Table</text>
<polyline fill="none" stroke="blue" points="2084,-311.87 2434,-311.87"/>
<text text-anchor="middle" x="2259" y="-295.07" font-family="Times,serif" font-size="16.00">~Pointer to Interface Slot Table</text>
<polyline fill="none" stroke="blue" points="2084,-285.87 2434,-285.87"/>
<text text-anchor="middle" x="2259" y="-269.07" font-family="Times,serif" font-size="16.00">~Pointer to Interface Bitmap</text>
<polyline fill="none" stroke="blue" points="2084,-259.87 2434,-259.87"/>
<text text-anchor="middle" x="2259" y="-243.07" font-family="Times,serif" font-size="16.00">Number of Methods</text>
<polyline fill="none" stroke="blue" points="2084,-233.87 2434,-233.87"/>
<text text-anchor="middle" x="2259" y="-217.07" font-family="Times,serif" font-size="16.00">Pointer to Method 1</text>
<polyline fill="none" stroke="blue" points="2084,-207.87 2434,-207.87"/>
<text text-anchor="middle" x="2259" y="-191.07" font-family="Times,serif" font-size="16.00">...</text>
<polyline fill="none" stroke="blue" points="2084,-181.87 2434,-181.87"/>
<text text-anchor="middle" x="2259" y="-165.07" font-family="Times,serif" font-size="16.00">Pointer to Method N</text>
<polyline fill="none" stroke="blue" points="2084,-155.87 2434,-155.87"/>
<text text-anchor="middle" x="2259" y="-139.07" font-family="Times,serif" font-size="16.00">Pointer to Method Definition 1</text>
<polyline fill="none" stroke="blue" points="2084,-129.87 2434,-129.87"/>
<text text-anchor="middle" x="2259" y="-113.07" font-family="Times,serif" font-size="16.00">...</text>
<polyline fill="none" stroke="blue" points="2084,-103.87 2434,-103.87"/>
<text text-anchor="middle" x="2259" y="-87.07" font-family="Times,serif" font-size="16.00">Pointer to Method Definition N</text>
</g>
<!-- AssemblyDefinition&#45;&gt;TypeDefinition -->
<g id="0" class="edge">
<title>AssemblyDefinition:f5&#45;&gt;TypeDefinition:f0</title>
<path fill="none" stroke="blue" d="M710,-652.87C801.29,-652.87 691.71,-460.87 783,-460.87 783,-460.87 783,-460.87 1232,-460.87 1368.26,-460.87 1403.4,-458.63 1538,-479.87 1596.9,-489.16 1981.85,-607.68 2072.62,-619"/>
<polygon fill="blue" stroke="blue" points="2072.25,-622.48 2082.49,-619.75 2072.79,-615.5 2072.25,-622.48"/>
</g>
<!-- CustomAttribute -->
<g id="node19" class="node">
<title>CustomAttribute</title>
<polygon fill="none" stroke="black" points="1268,-489.87 1268,-671.87 1538,-671.87 1538,-489.87 1268,-489.87"/>
<text text-anchor="middle" x="1403" y="-655.07" font-family="Times,serif" font-size="16.00">Custom Attribute</text>
<polyline fill="none" stroke="black" points="1268,-645.87 1538,-645.87"/>
<text text-anchor="middle" x="1403" y="-629.07" font-family="Times,serif" font-size="16.00">Pointer to Attribute Type</text>
<polyline fill="none" stroke="black" points="1268,-619.87 1538,-619.87"/>
<text text-anchor="middle" x="1403" y="-603.07" font-family="Times,serif" font-size="16.00">Pointer to Constructor Method</text>
<polyline fill="none" stroke="black" points="1268,-593.87 1538,-593.87"/>
<text text-anchor="middle" x="1403" y="-577.07" font-family="Times,serif" font-size="16.00">Number of Arguments</text>
<polyline fill="none" stroke="black" points="1268,-567.87 1538,-567.87"/>
<text text-anchor="middle" x="1403" y="-551.07" font-family="Times,serif" font-size="16.00">Pointer to Argument 1</text>
<polyline fill="none" stroke="black" points="1268,-541.87 1538,-541.87"/>
<text text-anchor="middle" x="1403" y="-525.07" font-family="Times,serif" font-size="16.00">...</text>
<polyline fill="none" stroke="black" points="1268,-515.87 1538,-515.87"/>
<text text-anchor="middle" x="1403" y="-499.07" font-family="Times,serif" font-size="16.00">Pointer to Argument N</text>
</g>
<!-- CustomAttributesTable&#45;&gt;CustomAttribute -->
<g id="0" class="edge">
<title>CustomAttributesTable:f2&#45;&gt;CustomAttribute:f0</title>
<path fill="none" stroke="black" d="M1121,-842.87C1175.83,-842.87 1123.16,-768.01 1157,-724.87 1190.01,-682.8 1208.04,-661.83 1256.76,-659.16"/>
<polygon fill="black" stroke="black" points="1256.58,-662.67 1266.49,-658.91 1256.4,-655.67 1256.58,-662.67"/>
</g>
<!-- TypeDefinition&#45;&gt;NameString -->
<g id="0" class="edge">
<title>TypeDefinition:f1&#45;&gt;NameString:f0</title>
<path fill="none" stroke="red" d="M2434,-584.87C2480.52,-584.87 2460.48,-509.87 2507,-509.87 2507,-509.87 2507,-509.87 2740,-509.87 2814.23,-509.87 2834.51,-526.8 2897,-566.87 2975.31,-617.08 2959.14,-677.76 3044,-715.87 3192.19,-782.41 3246.56,-734.87 3409,-734.87 3409,-734.87 3409,-734.87 4399,-734.87 4463.74,-734.87 4423.25,-847.84 4475.24,-861.52"/>
<polygon fill="red" stroke="red" points="4474.65,-864.97 4485,-862.69 4475.49,-858.02 4474.65,-864.97"/>
</g>
<!-- TypeDefinition&#45;&gt;AssemblyDefinition -->
<g id="0" class="edge">
<title>TypeDefinition:f5&#45;&gt;AssemblyDefinition:f0</title>
<path fill="none" stroke="black" d="M2084,-480.87C1903.14,-480.87 1839.06,-466.12 1685,-560.87 1617.59,-602.32 1654.13,-700.87 1575,-700.87 783,-700.87 783,-700.87 783,-700.87 760.06,-700.87 761.33,-719.79 746,-736.87 731.77,-752.71 734.13,-773.52 721.11,-780.48"/>
<polygon fill="black" stroke="black" points="720.52,-777.03 711.48,-782.55 721.99,-783.87 720.52,-777.03"/>
</g>
<!-- TypeDefinition&#45;&gt;CustomAttributesTable -->
<g id="0" class="edge">
<title>TypeDefinition:f2&#45;&gt;CustomAttributesTable:f0</title>
<path fill="none" stroke="black" d="M2084,-558.87C1902.69,-558.87 1844.92,-558.42 1685,-643.87 1675.02,-649.2 1620.84,-707.81 1612,-714.87 1596.68,-727.09 1594.6,-738.87 1575,-738.87 1194,-738.87 1194,-738.87 1194,-738.87 1121.64,-738.87 1189.26,-878.27 1132.2,-893.52"/>
<polygon fill="black" stroke="black" points="1132.01,-890.02 1122.5,-894.69 1132.85,-896.97 1132.01,-890.02"/>
</g>
<!-- TypeDefinition&#45;&gt;TypeDefinition -->
<g id="0" class="edge">
<title>TypeDefinition:f6&#45;&gt;TypeDefinition:f0</title>
<path fill="none" stroke="blue" d="M2084.22,-458.31C2025.41,-468.56 1978.25,-491.44 1978.25,-537.37 1978.25,-580.34 2019.52,-603.13 2073,-614.28"/>
<polygon fill="blue" stroke="blue" points="2072.25,-617.7 2082.73,-616.14 2073.56,-610.83 2072.25,-617.7"/>
</g>
<!-- MethodDefinition -->
<g id="node7" class="node">
<title>MethodDefinition</title>
<polygon fill="none" stroke="green" points="3520,-103.87 3520,-441.87 3829,-441.87 3829,-103.87 3520,-103.87"/>
<text text-anchor="middle" x="3674.5" y="-425.07" font-family="Times,serif" font-size="16.00">Method Definition</text>
<polyline fill="none" stroke="green" points="3520,-415.87 3829,-415.87"/>
<text text-anchor="middle" x="3674.5" y="-399.07" font-family="Times,serif" font-size="16.00">Pointer to Method Name</text>
<polyline fill="none" stroke="green" points="3520,-389.87 3829,-389.87"/>
<text text-anchor="middle" x="3674.5" y="-373.07" font-family="Times,serif" font-size="16.00">~Pointer to Custom Attributes</text>
<polyline fill="none" stroke="green" points="3520,-363.87 3829,-363.87"/>
<text text-anchor="middle" x="3674.5" y="-347.07" font-family="Times,serif" font-size="16.00">Method Attributes</text>
<polyline fill="none" stroke="green" points="3520,-337.87 3829,-337.87"/>
<text text-anchor="middle" x="3674.5" y="-321.07" font-family="Times,serif" font-size="16.00">Local &amp; Parameter Stack Size</text>
<polyline fill="none" stroke="green" points="3520,-311.87 3829,-311.87"/>
<text text-anchor="middle" x="3674.5" y="-295.07" font-family="Times,serif" font-size="16.00">Pointer to Method</text>
<polyline fill="none" stroke="green" points="3520,-285.87 3829,-285.87"/>
<text text-anchor="middle" x="3674.5" y="-269.07" font-family="Times,serif" font-size="16.00">Pointer to Return Type Definition</text>
<polyline fill="none" stroke="green" points="3520,-259.87 3829,-259.87"/>
<text text-anchor="middle" x="3674.5" y="-243.07" font-family="Times,serif" font-size="16.00">~Pointer to Protected Region Table</text>
<polyline fill="none" stroke="green" points="3520,-233.87 3829,-233.87"/>
<text text-anchor="middle" x="3674.5" y="-217.07" font-family="Times,serif" font-size="16.00">Pointer to GC Tracking Information</text>
<polyline fill="none" stroke="green" points="3520,-207.87 3829,-207.87"/>
<text text-anchor="middle" x="3674.5" y="-191.07" font-family="Times,serif" font-size="16.00">Number of Parameters</text>
<polyline fill="none" stroke="green" points="3520,-181.87 3829,-181.87"/>
<text text-anchor="middle" x="3674.5" y="-165.07" font-family="Times,serif" font-size="16.00">Pointer to Parameter Definition 1</text>
<polyline fill="none" stroke="green" points="3520,-155.87 3829,-155.87"/>
<text text-anchor="middle" x="3674.5" y="-139.07" font-family="Times,serif" font-size="16.00">...</text>
<polyline fill="none" stroke="green" points="3520,-129.87 3829,-129.87"/>
<text text-anchor="middle" x="3674.5" y="-113.07" font-family="Times,serif" font-size="16.00">Pointer to Parameter Definition N</text>
</g>
<!-- TypeDefinition&#45;&gt;MethodDefinition -->
<g id="0" class="edge">
<title>TypeDefinition:f9&#45;&gt;MethodDefinition:f0</title>
<path fill="none" stroke="green" d="M2434,-376.87C2467.21,-376.87 2473.79,-392.87 2507,-392.87 2507,-392.87 2507,-392.87 2740,-392.87 3021.61,-392.87 3097.31,-307.45 3373,-364.87 3404.54,-371.44 3470.11,-418.46 3508.72,-427.4"/>
<polygon fill="green" stroke="green" points="3508.13,-430.85 3518.5,-428.67 3509.03,-423.91 3508.13,-430.85"/>
</g>
<!-- TypeDefinition&#45;&gt;MethodDefinition -->
<g id="0" class="edge">
<title>TypeDefinition:f16&#45;&gt;MethodDefinition:f0</title>
<path fill="none" stroke="black" d="M2434,-142.87C2484.48,-142.87 2456.52,-55.87 2507,-55.87 2507,-55.87 2507,-55.87 3008,-55.87 3175.63,-55.87 3231.09,-61.65 3373,-150.87 3437.61,-191.48 3449.33,-213.88 3484,-281.87 3512.59,-337.93 3460.32,-417.76 3508.54,-427.81"/>
<polygon fill="black" stroke="black" points="3508.21,-431.3 3518.49,-428.73 3508.86,-424.33 3508.21,-431.3"/>
</g>
<!-- PropertiesTable -->
<g id="node8" class="node">
<title>PropertiesTable</title>
<polygon fill="none" stroke="black" points="2598.5,-233.87 2598.5,-363.87 2879.5,-363.87 2879.5,-233.87 2598.5,-233.87"/>
<text text-anchor="middle" x="2739" y="-347.07" font-family="Times,serif" font-size="16.00">Properties Table</text>
<polyline fill="none" stroke="black" points="2598.5,-337.87 2879.5,-337.87"/>
<text text-anchor="middle" x="2739" y="-321.07" font-family="Times,serif" font-size="16.00">Number of Properties</text>
<polyline fill="none" stroke="black" points="2598.5,-311.87 2879.5,-311.87"/>
<text text-anchor="middle" x="2739" y="-295.07" font-family="Times,serif" font-size="16.00">Pointer to Property Definition 1</text>
<polyline fill="none" stroke="black" points="2598.5,-285.87 2879.5,-285.87"/>
<text text-anchor="middle" x="2739" y="-269.07" font-family="Times,serif" font-size="16.00">...</text>
<polyline fill="none" stroke="black" points="2598.5,-259.87 2879.5,-259.87"/>
<text text-anchor="middle" x="2739" y="-243.07" font-family="Times,serif" font-size="16.00">Pointer to Property Definition N</text>
</g>
<!-- TypeDefinition&#45;&gt;PropertiesTable -->
<g id="0" class="edge">
<title>TypeDefinition:f10&#45;&gt;PropertiesTable:f0</title>
<path fill="none" stroke="black" d="M2434,-350.87C2502.48,-350.87 2522.41,-350.87 2585.58,-350.87"/>
<polygon fill="black" stroke="black" points="2585.49,-354.37 2595.49,-350.87 2585.49,-347.37 2585.49,-354.37"/>
</g>
<!-- FieldsTable -->
<g id="node9" class="node">
<title>FieldsTable</title>
<polygon fill="none" stroke="black" points="2613.5,-576.87 2613.5,-706.87 2864.5,-706.87 2864.5,-576.87 2613.5,-576.87"/>
<text text-anchor="middle" x="2739" y="-690.07" font-family="Times,serif" font-size="16.00">Fields Table</text>
<polyline fill="none" stroke="black" points="2613.5,-680.87 2864.5,-680.87"/>
<text text-anchor="middle" x="2739" y="-664.07" font-family="Times,serif" font-size="16.00">Number of Fields</text>
<polyline fill="none" stroke="black" points="2613.5,-654.87 2864.5,-654.87"/>
<text text-anchor="middle" x="2739" y="-638.07" font-family="Times,serif" font-size="16.00">Pointer to Field Definition 1</text>
<polyline fill="none" stroke="black" points="2613.5,-628.87 2864.5,-628.87"/>
<text text-anchor="middle" x="2739" y="-612.07" font-family="Times,serif" font-size="16.00">...</text>
<polyline fill="none" stroke="black" points="2613.5,-602.87 2864.5,-602.87"/>
<text text-anchor="middle" x="2739" y="-586.07" font-family="Times,serif" font-size="16.00">Pointer to Field Definition N</text>
</g>
<!-- TypeDefinition&#45;&gt;FieldsTable -->
<g id="0" class="edge">
<title>TypeDefinition:f11&#45;&gt;FieldsTable:f0</title>
<path fill="none" stroke="black" d="M2434,-324.87C2487.27,-324.87 2445.1,-514.77 2470,-561.87 2508.46,-634.62 2524.38,-688.81 2600.81,-693.53"/>
<polygon fill="black" stroke="black" points="2600.39,-697.02 2610.49,-693.82 2600.6,-690.02 2600.39,-697.02"/>
</g>
<!-- InterfaceSlotTable -->
<g id="node10" class="node">
<title>InterfaceSlotTable</title>
<polygon fill="none" stroke="black" points="2581,-84.87 2581,-214.87 2897,-214.87 2897,-84.87 2581,-84.87"/>
<text text-anchor="middle" x="2739" y="-198.07" font-family="Times,serif" font-size="16.00">Interface Slot Table</text>
<polyline fill="none" stroke="black" points="2581,-188.87 2897,-188.87"/>
<text text-anchor="middle" x="2739" y="-172.07" font-family="Times,serif" font-size="16.00">Number of Interface Method Tables</text>
<polyline fill="none" stroke="black" points="2581,-162.87 2897,-162.87"/>
<text text-anchor="middle" x="2739" y="-146.07" font-family="Times,serif" font-size="16.00">Pointer to Interface Method Table 1</text>
<polyline fill="none" stroke="black" points="2581,-136.87 2897,-136.87"/>
<text text-anchor="middle" x="2739" y="-120.07" font-family="Times,serif" font-size="16.00">...</text>
<polyline fill="none" stroke="black" points="2581,-110.87 2897,-110.87"/>
<text text-anchor="middle" x="2739" y="-94.07" font-family="Times,serif" font-size="16.00">Pointer to Interface Method Table N</text>
</g>
<!-- TypeDefinition&#45;&gt;InterfaceSlotTable -->
<g id="0" class="edge">
<title>TypeDefinition:f12&#45;&gt;InterfaceSlotTable:f0</title>
<path fill="none" stroke="black" d="M2434,-298.87C2508.3,-298.87 2503.47,-211.47 2569.73,-202.59"/>
<polygon fill="black" stroke="black" points="2569.73,-206.1 2579.49,-201.96 2569.29,-199.11 2569.73,-206.1"/>
</g>
<!-- MethodDefinition&#45;&gt;NameString -->
<g id="0" class="edge">
<title>MethodDefinition:f1&#45;&gt;NameString:f0</title>
<path fill="none" stroke="red" d="M3829,-402.87C3878.46,-402.87 3852.54,-486.87 3902,-486.87 3902,-486.87 3902,-486.87 4399,-486.87 4480.77,-486.87 4408.22,-828.44 4475.52,-860.47"/>
<polygon fill="red" stroke="red" points="4474.5,-863.83 4485.02,-862.54 4476,-856.99 4474.5,-863.83"/>
</g>
<!-- MethodDefinition&#45;&gt;CustomAttributesTable -->
<g id="0" class="edge">
<title>MethodDefinition:f2&#45;&gt;CustomAttributesTable:f0</title>
<path fill="none" stroke="black" d="M3520,-376.87C3254.5,-376.87 3580.32,-790.01 3373,-955.87 3072.69,-1196.11 2892.58,-932.87 2508,-932.87 1194,-932.87 1194,-932.87 1194,-932.87 1161.57,-932.87 1158.01,-902.99 1132.12,-896.22"/>
<polygon fill="black" stroke="black" points="1132.85,-892.78 1122.5,-895.05 1132.01,-899.73 1132.85,-892.78"/>
</g>
<!-- MethodDefinition&#45;&gt;TypeDefinition -->
<g id="0" class="edge">
<title>MethodDefinition:f6&#45;&gt;TypeDefinition:f0</title>
<path fill="none" stroke="blue" d="M3520,-272.87C3435.1,-272.87 3452.86,-179.69 3373,-150.87 3304.23,-126.05 3104.08,-109.21 3044,-150.87 2967.95,-203.6 3015.37,-264.66 2971,-345.87 2944.66,-394.07 2945.25,-418.6 2897,-444.87 2759.28,-519.84 2701.81,-468.87 2545,-468.87 2507,-468.87 2507,-468.87 2507,-468.87 2486.64,-468.87 2481.69,-479.2 2470,-495.87 2439.5,-539.37 2483.8,-608.6 2445.01,-618.64"/>
<polygon fill="blue" stroke="blue" points="2445.05,-615.11 2435.5,-619.7 2445.83,-622.07 2445.05,-615.11"/>
</g>
<!-- ProtectedRegionTable -->
<g id="node14" class="node">
<title>ProtectedRegionTable</title>
<polygon fill="none" stroke="black" points="3976,-174.87 3976,-304.87 4325,-304.87 4325,-174.87 3976,-174.87"/>
<text text-anchor="middle" x="4150.5" y="-288.07" font-family="Times,serif" font-size="16.00">Protected Region Table</text>
<polyline fill="none" stroke="black" points="3976,-278.87 4325,-278.87"/>
<text text-anchor="middle" x="4150.5" y="-262.07" font-family="Times,serif" font-size="16.00">Number of Regions</text>
<polyline fill="none" stroke="black" points="3976,-252.87 4325,-252.87"/>
<text text-anchor="middle" x="4150.5" y="-236.07" font-family="Times,serif" font-size="16.00">Pointer to Protected Region Definition 1</text>
<polyline fill="none" stroke="black" points="3976,-226.87 4325,-226.87"/>
<text text-anchor="middle" x="4150.5" y="-210.07" font-family="Times,serif" font-size="16.00">...</text>
<polyline fill="none" stroke="black" points="3976,-200.87 4325,-200.87"/>
<text text-anchor="middle" x="4150.5" y="-184.07" font-family="Times,serif" font-size="16.00">Protected Region Definition N</text>
</g>
<!-- MethodDefinition&#45;&gt;ProtectedRegionTable -->
<g id="0" class="edge">
<title>MethodDefinition:f7&#45;&gt;ProtectedRegionTable:f0</title>
<path fill="none" stroke="black" d="M3829,-246.87C3893.32,-246.87 3906.26,-286.75 3964.56,-291.42"/>
<polygon fill="black" stroke="black" points="3964.36,-294.92 3974.49,-291.81 3964.63,-287.92 3964.36,-294.92"/>
</g>
<!-- GCTrackingInformation -->
<g id="node17" class="node">
<title>GCTrackingInformation</title>
<polygon fill="none" stroke="black" points="4040,-103.87 4040,-155.87 4261,-155.87 4261,-103.87 4040,-103.87"/>
<text text-anchor="middle" x="4150.5" y="-139.07" font-family="Times,serif" font-size="16.00">GC Tracking Information</text>
<polyline fill="none" stroke="black" points="4040,-129.87 4261,-129.87"/>
<text text-anchor="middle" x="4150.5" y="-113.07" font-family="Times,serif" font-size="16.00">TODO</text>
</g>
<!-- MethodDefinition&#45;&gt;GCTrackingInformation -->
<g id="0" class="edge">
<title>MethodDefinition:f8&#45;&gt;GCTrackingInformation:f0</title>
<path fill="none" stroke="black" d="M3829,-220.87C3924.47,-220.87 3938.17,-148.84 4027.25,-143.22"/>
<polygon fill="black" stroke="black" points="4027.1,-146.72 4036.99,-142.91 4026.88,-139.72 4027.1,-146.72"/>
</g>
<!-- ParameterDefinition -->
<g id="node18" class="node">
<title>ParameterDefinition</title>
<polygon fill="none" stroke="black" points="4017.5,-891.87 4017.5,-1021.87 4283.5,-1021.87 4283.5,-891.87 4017.5,-891.87"/>
<text text-anchor="middle" x="4150.5" y="-1005.07" font-family="Times,serif" font-size="16.00">Parameter Definition</text>
<polyline fill="none" stroke="black" points="4017.5,-995.87 4283.5,-995.87"/>
<text text-anchor="middle" x="4150.5" y="-979.07" font-family="Times,serif" font-size="16.00">Pointer to Parameter Name</text>
<polyline fill="none" stroke="black" points="4017.5,-969.87 4283.5,-969.87"/>
<text text-anchor="middle" x="4150.5" y="-953.07" font-family="Times,serif" font-size="16.00">~Pointer to Custom Attributes</text>
<polyline fill="none" stroke="black" points="4017.5,-943.87 4283.5,-943.87"/>
<text text-anchor="middle" x="4150.5" y="-927.07" font-family="Times,serif" font-size="16.00">Parameter Attributes</text>
<polyline fill="none" stroke="black" points="4017.5,-917.87 4283.5,-917.87"/>
<text text-anchor="middle" x="4150.5" y="-901.07" font-family="Times,serif" font-size="16.00">Pointer to Parameter Type</text>
</g>
<!-- MethodDefinition&#45;&gt;ParameterDefinition -->
<g id="0" class="edge">
<title>MethodDefinition:f10&#45;&gt;ParameterDefinition:f0</title>
<path fill="none" stroke="black" d="M3829,-168.87C3866.11,-168.87 3857.67,-464.49 3865,-500.87 3887.51,-612.51 3897.99,-983.11 4005.12,-1007.59"/>
<polygon fill="black" stroke="black" points="4004.67,-1011.07 4015,-1008.7 4005.45,-1004.11 4004.67,-1011.07"/>
</g>
<!-- PropertyDefinition -->
<g id="node12" class="node">
<title>PropertyDefinition</title>
<polygon fill="none" stroke="black" points="3044,-374.87 3044,-556.87 3373,-556.87 3373,-374.87 3044,-374.87"/>
<text text-anchor="middle" x="3208.5" y="-540.07" font-family="Times,serif" font-size="16.00">Property Definition</text>
<polyline fill="none" stroke="black" points="3044,-530.87 3373,-530.87"/>
<text text-anchor="middle" x="3208.5" y="-514.07" font-family="Times,serif" font-size="16.00">Pointer to Property Name</text>
<polyline fill="none" stroke="black" points="3044,-504.87 3373,-504.87"/>
<text text-anchor="middle" x="3208.5" y="-488.07" font-family="Times,serif" font-size="16.00">~Pointer to Custom Attributes</text>
<polyline fill="none" stroke="black" points="3044,-478.87 3373,-478.87"/>
<text text-anchor="middle" x="3208.5" y="-462.07" font-family="Times,serif" font-size="16.00">Property Attributes</text>
<polyline fill="none" stroke="black" points="3044,-452.87 3373,-452.87"/>
<text text-anchor="middle" x="3208.5" y="-436.07" font-family="Times,serif" font-size="16.00">Pointer to Property Type</text>
<polyline fill="none" stroke="black" points="3044,-426.87 3373,-426.87"/>
<text text-anchor="middle" x="3208.5" y="-410.07" font-family="Times,serif" font-size="16.00">~Pointer to Getter Method Definition</text>
<polyline fill="none" stroke="black" points="3044,-400.87 3373,-400.87"/>
<text text-anchor="middle" x="3208.5" y="-384.07" font-family="Times,serif" font-size="16.00">~Pointer to Setter Method Defiinition</text>
</g>
<!-- PropertiesTable&#45;&gt;PropertyDefinition -->
<g id="0" class="edge">
<title>PropertiesTable:f2&#45;&gt;PropertyDefinition:f0</title>
<path fill="none" stroke="black" d="M2879.82,-312.05C2985.45,-373.37 2921.99,-533.44 3032.73,-543.38"/>
<polygon fill="black" stroke="black" points="3032.35,-546.87 3042.49,-543.8 3032.65,-539.88 3032.35,-546.87"/>
</g>
<!-- FieldDefinition -->
<g id="node11" class="node">
<title>FieldDefinition</title>
<polygon fill="none" stroke="black" points="3075.5,-763.87 3075.5,-945.87 3341.5,-945.87 3341.5,-763.87 3075.5,-763.87"/>
<text text-anchor="middle" x="3208.5" y="-929.07" font-family="Times,serif" font-size="16.00">Field Definition</text>
<polyline fill="none" stroke="black" points="3075.5,-919.87 3341.5,-919.87"/>
<text text-anchor="middle" x="3208.5" y="-903.07" font-family="Times,serif" font-size="16.00">Pointer to Field Name</text>
<polyline fill="none" stroke="black" points="3075.5,-893.87 3341.5,-893.87"/>
<text text-anchor="middle" x="3208.5" y="-877.07" font-family="Times,serif" font-size="16.00">~Pointer to Custom Attributes</text>
<polyline fill="none" stroke="black" points="3075.5,-867.87 3341.5,-867.87"/>
<text text-anchor="middle" x="3208.5" y="-851.07" font-family="Times,serif" font-size="16.00">Field Attributes</text>
<polyline fill="none" stroke="black" points="3075.5,-841.87 3341.5,-841.87"/>
<text text-anchor="middle" x="3208.5" y="-825.07" font-family="Times,serif" font-size="16.00">Pointer to Field Type</text>
<polyline fill="none" stroke="black" points="3075.5,-815.87 3341.5,-815.87"/>
<text text-anchor="middle" x="3208.5" y="-799.07" font-family="Times,serif" font-size="16.00">~Address</text>
<polyline fill="none" stroke="black" points="3075.5,-789.87 3341.5,-789.87"/>
<text text-anchor="middle" x="3208.5" y="-773.07" font-family="Times,serif" font-size="16.00">Offset / Size</text>
</g>
<!-- FieldsTable&#45;&gt;FieldDefinition -->
<g id="0" class="edge">
<title>FieldsTable:f2&#45;&gt;FieldDefinition:f0</title>
<path fill="none" stroke="black" d="M2864.94,-655.04C2939.25,-684.63 2959.66,-700.87 3008,-764.87 3053.94,-825.69 3000.23,-922.42 3063.34,-932.08"/>
<polygon fill="black" stroke="black" points="3062.77,-935.55 3072.99,-932.76 3063.26,-928.57 3062.77,-935.55"/>
</g>
<!-- InterfaceMethodTable -->
<g id="node16" class="node">
<title>InterfaceMethodTable</title>
<polygon fill="none" stroke="black" points="3072,-160.87 3072,-316.87 3345,-316.87 3345,-160.87 3072,-160.87"/>
<text text-anchor="middle" x="3208.5" y="-300.07" font-family="Times,serif" font-size="16.00">Interface Method Table</text>
<polyline fill="none" stroke="black" points="3072,-290.87 3345,-290.87"/>
<text text-anchor="middle" x="3208.5" y="-274.07" font-family="Times,serif" font-size="16.00">Pointer to Interface Type</text>
<polyline fill="none" stroke="black" points="3072,-264.87 3345,-264.87"/>
<text text-anchor="middle" x="3208.5" y="-248.07" font-family="Times,serif" font-size="16.00">Number of Methods</text>
<polyline fill="none" stroke="black" points="3072,-238.87 3345,-238.87"/>
<text text-anchor="middle" x="3208.5" y="-222.07" font-family="Times,serif" font-size="16.00">Pointer to Method Definition 1</text>
<polyline fill="none" stroke="black" points="3072,-212.87 3345,-212.87"/>
<text text-anchor="middle" x="3208.5" y="-196.07" font-family="Times,serif" font-size="16.00">..</text>
<polyline fill="none" stroke="black" points="3072,-186.87 3345,-186.87"/>
<text text-anchor="middle" x="3208.5" y="-170.07" font-family="Times,serif" font-size="16.00">Pointer to Method Definition N</text>
</g>
<!-- InterfaceSlotTable&#45;&gt;InterfaceMethodTable -->
<g id="0" class="edge">
<title>InterfaceSlotTable:f2&#45;&gt;InterfaceMethodTable:f0</title>
<path fill="none" stroke="black" d="M2897,-149.87C2996.08,-149.87 2969.74,-292.07 3059.02,-303.18"/>
<polygon fill="black" stroke="black" points="3058.8,-306.67 3068.99,-303.78 3059.22,-299.69 3058.8,-306.67"/>
</g>
<!-- FieldDefinition&#45;&gt;NameString -->
<g id="0" class="edge">
<title>FieldDefinition:f1&#45;&gt;NameString:f0</title>
<path fill="none" stroke="red" d="M3342.5,-906.87C3392.48,-906.87 3396.02,-862.87 3446,-862.87 3446,-862.87 3446,-862.87 4399,-862.87 4433.79,-862.87 4445.24,-862.87 4475.1,-862.87"/>
<polygon fill="red" stroke="red" points="4474.99,-866.37 4484.99,-862.87 4474.99,-859.37 4474.99,-866.37"/>
</g>
<!-- FieldDefinition&#45;&gt;CustomAttributesTable -->
<g id="0" class="edge">
<title>FieldDefinition:f2&#45;&gt;CustomAttributesTable:f0</title>
<path fill="none" stroke="black" d="M3074.5,-880.87C3070.52,-880.87 2511.98,-970.87 2508,-970.87 1194,-970.87 1194,-970.87 1194,-970.87 1174.4,-970.87 1171.07,-960.52 1157,-946.87 1140.14,-930.5 1145.95,-905.16 1131.9,-897.29"/>
<polygon fill="black" stroke="black" points="1133,-893.95 1122.48,-895.2 1131.48,-900.78 1133,-893.95"/>
</g>
<!-- FieldDefinition&#45;&gt;TypeDefinition -->
<g id="0" class="edge">
<title>FieldDefinition:f4&#45;&gt;TypeDefinition:f0</title>
<path fill="none" stroke="blue" d="M3074.5,-828.87C3023.41,-828.87 3022.09,-778.87 2971,-778.87 2507,-778.87 2507,-778.87 2507,-778.87 2471.92,-778.87 2472.37,-649.41 2444.22,-624.12"/>
<polygon fill="blue" stroke="blue" points="2445.97,-621.06 2435.4,-620.45 2443.29,-627.52 2445.97,-621.06"/>
</g>
<!-- PropertyDefinition&#45;&gt;NameString -->
<g id="0" class="edge">
<title>PropertyDefinition:f1&#45;&gt;NameString:f0</title>
<path fill="none" stroke="red" d="M3373,-517.87C3436.73,-517.87 3419.27,-609.87 3483,-609.87 3483,-609.87 3483,-609.87 4399,-609.87 4513.91,-609.87 4377.49,-845.87 4475.22,-862"/>
<polygon fill="red" stroke="red" points="4474.75,-865.47 4484.99,-862.75 4475.29,-858.5 4474.75,-865.47"/>
</g>
<!-- PropertyDefinition&#45;&gt;CustomAttributesTable -->
<g id="0" class="edge">
<title>PropertyDefinition:f2&#45;&gt;CustomAttributesTable:f0</title>
<path fill="none" stroke="black" d="M3044,-491.87C3029.1,-491.87 2978.05,-736.75 2971,-749.87 2959.06,-772.08 2955.38,-779.51 2934,-792.87 2782.41,-887.56 2723.73,-894.87 2545,-894.87 1194,-894.87 1194,-894.87 1194,-894.87 1165.74,-894.87 1155.94,-894.87 1132.44,-894.87"/>
<polygon fill="black" stroke="black" points="1132.51,-891.37 1122.51,-894.87 1132.51,-898.37 1132.51,-891.37"/>
</g>
<!-- PropertyDefinition&#45;&gt;TypeDefinition -->
<g id="0" class="edge">
<title>PropertyDefinition:f4&#45;&gt;TypeDefinition:f0</title>
<path fill="none" stroke="blue" d="M3044,-439.87C2976.25,-439.87 3038.75,-735.87 2971,-735.87 2507,-735.87 2507,-735.87 2507,-735.87 2450.37,-735.87 2488.59,-635.61 2445.3,-621.51"/>
<polygon fill="blue" stroke="blue" points="2445.9,-618.06 2435.5,-620.08 2444.89,-624.98 2445.9,-618.06"/>
</g>
<!-- PropertyDefinition&#45;&gt;MethodDefinition -->
<g id="0" class="edge">
<title>PropertyDefinition:f5&#45;&gt;MethodDefinition:f0</title>
<path fill="none" stroke="green" d="M3373,-413.87C3389.61,-413.87 3392.6,-421.25 3409,-423.87 3453.77,-431 3468.27,-429.25 3508.54,-428.92"/>
<polygon fill="green" stroke="green" points="3508.5,-432.42 3518.49,-428.87 3508.47,-425.42 3508.5,-432.42"/>
</g>
<!-- PropertyDefinition&#45;&gt;MethodDefinition -->
<g id="0" class="edge">
<title>PropertyDefinition:f6&#45;&gt;MethodDefinition:f0</title>
<path fill="none" stroke="green" d="M3373,-387.87C3436.85,-387.87 3450.65,-424.2 3508.64,-428.46"/>
<polygon fill="green" stroke="green" points="3508.37,-431.95 3518.49,-428.81 3508.62,-424.96 3508.37,-431.95"/>
</g>
<!-- MethodLookupTable -->
<g id="node13" class="node">
<title>MethodLookupTable</title>
<polygon fill="none" stroke="black" points="3047,-575.87 3047,-705.87 3370,-705.87 3370,-575.87 3047,-575.87"/>
<text text-anchor="middle" x="3208.5" y="-689.07" font-family="Times,serif" font-size="16.00">Method Lookup Table</text>
<polyline fill="none" stroke="black" points="3047,-679.87 3370,-679.87"/>
<text text-anchor="middle" x="3208.5" y="-663.07" font-family="Times,serif" font-size="16.00">Number of Methods</text>
<polyline fill="none" stroke="black" points="3047,-653.87 3370,-653.87"/>
<text text-anchor="middle" x="3208.5" y="-637.07" font-family="Times,serif" font-size="16.00">Pointer to Method (Starting Address)</text>
<polyline fill="none" stroke="black" points="3047,-627.87 3370,-627.87"/>
<text text-anchor="middle" x="3208.5" y="-611.07" font-family="Times,serif" font-size="16.00">Method Size</text>
<polyline fill="none" stroke="black" points="3047,-601.87 3370,-601.87"/>
<text text-anchor="middle" x="3208.5" y="-585.07" font-family="Times,serif" font-size="16.00">Pointer to Method Definition</text>
</g>
<!-- MethodLookupTable&#45;&gt;MethodDefinition -->
<g id="0" class="edge">
<title>MethodLookupTable:f3&#45;&gt;MethodDefinition:f0</title>
<path fill="none" stroke="green" d="M3371.5,-588.87C3416.31,-588.87 3463.66,-452.31 3508.87,-431.51"/>
<polygon fill="green" stroke="green" points="3509.61,-434.93 3518.53,-429.22 3507.99,-428.12 3509.61,-434.93"/>
</g>
<!-- ProtectedRegionDefinition -->
<g id="node15" class="node">
<title>ProtectedRegionDefinition</title>
<polygon fill="none" stroke="black" points="4472,-70.87 4472,-226.87 4719,-226.87 4719,-70.87 4472,-70.87"/>
<text text-anchor="middle" x="4595.5" y="-210.07" font-family="Times,serif" font-size="16.00">Protected Region Definition</text>
<polyline fill="none" stroke="black" points="4472,-200.87 4719,-200.87"/>
<text text-anchor="middle" x="4595.5" y="-184.07" font-family="Times,serif" font-size="16.00">Region Start</text>
<polyline fill="none" stroke="black" points="4472,-174.87 4719,-174.87"/>
<text text-anchor="middle" x="4595.5" y="-158.07" font-family="Times,serif" font-size="16.00">Region End</text>
<polyline fill="none" stroke="black" points="4472,-148.87 4719,-148.87"/>
<text text-anchor="middle" x="4595.5" y="-132.07" font-family="Times,serif" font-size="16.00">Region Handler</text>
<polyline fill="none" stroke="black" points="4472,-122.87 4719,-122.87"/>
<text text-anchor="middle" x="4595.5" y="-106.07" font-family="Times,serif" font-size="16.00">Exception Handler Type</text>
<polyline fill="none" stroke="black" points="4472,-96.87 4719,-96.87"/>
<text text-anchor="middle" x="4595.5" y="-80.07" font-family="Times,serif" font-size="16.00">Pointer to Exception Type</text>
</g>
<!-- ProtectedRegionTable&#45;&gt;ProtectedRegionDefinition -->
<g id="0" class="edge">
<title>ProtectedRegionTable:f2&#45;&gt;ProtectedRegionDefinition:f0</title>
<path fill="none" stroke="black" d="M4325,-239.87C4387.33,-239.87 4403.73,-216.92 4460.5,-214.14"/>
<polygon fill="black" stroke="black" points="4460.57,-217.64 4470.49,-213.9 4460.41,-210.64 4460.57,-217.64"/>
</g>
<!-- ProtectedRegionDefinition&#45;&gt;TypeDefinition -->
<g id="0" class="edge">
<title>ProtectedRegionDefinition:f5&#45;&gt;TypeDefinition:f0</title>
<path fill="none" stroke="blue" d="M4472,-83.87C4439.31,-83.87 4431.69,-74.87 4399,-74.87 3483,-74.87 3483,-74.87 3483,-74.87 3286.77,-74.87 3208.8,-15.35 3044,-121.87 2935.43,-192.05 3003.54,-299.64 2897,-372.87 2766.33,-462.67 2703.55,-430.87 2545,-430.87 2507,-430.87 2507,-430.87 2507,-430.87 2475.29,-430.87 2482.63,-462.78 2470,-491.87 2448.16,-542.16 2486.72,-609.3 2445.22,-618.75"/>
<polygon fill="blue" stroke="blue" points="2445.11,-615.24 2435.51,-619.72 2445.8,-622.21 2445.11,-615.24"/>
</g>
<!-- InterfaceMethodTable&#45;&gt;TypeDefinition -->
<g id="0" class="edge">
<title>InterfaceMethodTable:f1&#45;&gt;TypeDefinition:f0</title>
<path fill="none" stroke="blue" d="M3070.5,-277.87C2961.78,-277.87 3020.18,-414.58 2934,-480.87 2861.7,-536.48 2831.22,-547.87 2740,-547.87 2507,-547.87 2507,-547.87 2507,-547.87 2489.42,-547.87 2483.58,-550.7 2470,-561.87 2450.23,-578.13 2459.79,-608.24 2445.04,-617.25"/>
<polygon fill="blue" stroke="blue" points="2444.4,-613.81 2435.47,-619.52 2446.01,-620.62 2444.4,-613.81"/>
</g>
<!-- InterfaceMethodTable&#45;&gt;MethodDefinition -->
<g id="0" class="edge">
<title>InterfaceMethodTable:f3&#45;&gt;MethodDefinition:f0</title>
<path fill="none" stroke="green" d="M3346.5,-225.87C3431.21,-225.87 3433.58,-289.79 3484,-357.87 3502.34,-382.63 3489.2,-418.13 3508.89,-426.87"/>
<polygon fill="green" stroke="green" points="3508.05,-430.27 3518.51,-428.6 3509.29,-423.38 3508.05,-430.27"/>
</g>
<!-- ParameterDefinition&#45;&gt;NameString -->
<g id="0" class="edge">
<title>ParameterDefinition:f1&#45;&gt;NameString:f0</title>
<path fill="none" stroke="red" d="M4284.5,-982.87C4333.14,-982.87 4421.16,-878.71 4475.19,-864.47"/>
<polygon fill="red" stroke="red" points="4475.59,-867.95 4485,-863.08 4474.61,-861.02 4475.59,-867.95"/>
</g>
<!-- ParameterDefinition&#45;&gt;CustomAttributesTable -->
<g id="0" class="edge">
<title>ParameterDefinition:f2&#45;&gt;CustomAttributesTable:f0</title>
<path fill="none" stroke="black" d="M4016.5,-956.87C3927.53,-956.87 3954.97,-1088.87 3866,-1088.87 1194,-1088.87 1194,-1088.87 1194,-1088.87 1151.9,-1088.87 1164.26,-926.78 1131.51,-898.92"/>
<polygon fill="black" stroke="black" points="1133,-895.74 1122.41,-895.41 1130.48,-902.27 1133,-895.74"/>
</g>
<!-- ParameterDefinition&#45;&gt;TypeDefinition -->
<g id="0" class="edge">
<title>ParameterDefinition:f4&#45;&gt;TypeDefinition:f0</title>
<path fill="none" stroke="blue" d="M4016.5,-904.87C3957.23,-904.87 3962.27,-974.87 3903,-974.87 3409,-974.87 3409,-974.87 3409,-974.87 3246.56,-974.87 3196.39,-1012.13 3044,-955.87 2966.69,-927.33 2974.07,-872.03 2897,-842.87 2750.34,-787.38 2701.81,-818.87 2545,-818.87 2507,-818.87 2507,-818.87 2507,-818.87 2463.94,-818.87 2477.96,-652.6 2444.72,-624.02"/>
<polygon fill="blue" stroke="blue" points="2446,-620.77 2435.41,-620.41 2443.47,-627.29 2446,-620.77"/>
</g>
<!-- CustomAttribute&#45;&gt;TypeDefinition -->
<g id="0" class="edge">
<title>CustomAttribute:f1&#45;&gt;TypeDefinition:f0</title>
<path fill="none" stroke="blue" d="M1538,-632.87C1570.64,-632.87 1578.36,-624.87 1611,-624.87 1611,-624.87 1611,-624.87 1649,-624.87 1838.48,-624.87 1888.66,-620.07 2072.56,-619.87"/>
<polygon fill="blue" stroke="blue" points="2072.49,-623.37 2082.49,-619.87 2072.48,-616.37 2072.49,-623.37"/>
</g>
<!-- CustomAttribute&#45;&gt;MethodDefinition -->
<g id="0" class="edge">
<title>CustomAttribute:f2&#45;&gt;MethodDefinition:f0</title>
<path fill="none" stroke="green" d="M1538,-606.87C1580.62,-606.87 2045.59,-86.34 2084,-67.87 2254.6,14.19 2317.69,-17.87 2507,-17.87 2507,-17.87 2507,-17.87 3008,-17.87 3170.97,-17.87 3238.79,39.58 3373,-52.87 3464.5,-115.89 3446.29,-172.36 3484,-276.87 3506.14,-338.22 3457.18,-418.45 3508.73,-427.94"/>
<polygon fill="green" stroke="green" points="3508.24,-431.41 3518.49,-428.74 3508.81,-424.43 3508.24,-431.41"/>
</g>
<!-- CustomAttributeArgument -->
<g id="node20" class="node">
<title>CustomAttributeArgument</title>
<polygon fill="none" stroke="black" points="1685,-653.87 1685,-809.87 1937,-809.87 1937,-653.87 1685,-653.87"/>
<text text-anchor="middle" x="1811" y="-793.07" font-family="Times,serif" font-size="16.00">Custom Attribute Argument</text>
<polyline fill="none" stroke="black" points="1685,-783.87 1937,-783.87"/>
<text text-anchor="middle" x="1811" y="-767.07" font-family="Times,serif" font-size="16.00">~Pointer to Argument Name</text>
<polyline fill="none" stroke="black" points="1685,-757.87 1937,-757.87"/>
<text text-anchor="middle" x="1811" y="-741.07" font-family="Times,serif" font-size="16.00">Is Argument a Field</text>
<polyline fill="none" stroke="black" points="1685,-731.87 1937,-731.87"/>
<text text-anchor="middle" x="1811" y="-715.07" font-family="Times,serif" font-size="16.00">Pointer to Argument Type</text>
<polyline fill="none" stroke="black" points="1685,-705.87 1937,-705.87"/>
<text text-anchor="middle" x="1811" y="-689.07" font-family="Times,serif" font-size="16.00">Argument Size</text>
<polyline fill="none" stroke="black" points="1685,-679.87 1937,-679.87"/>
<text text-anchor="middle" x="1811" y="-663.07" font-family="Times,serif" font-size="16.00">Argument</text>
</g>
<!-- CustomAttribute&#45;&gt;CustomAttributeArgument -->
<g id="0" class="edge">
<title>CustomAttribute:f4&#45;&gt;CustomAttributeArgument:f0</title>
<path fill="none" stroke="black" d="M1538,-554.87C1659.79,-554.87 1565.66,-781.52 1673.54,-796.13"/>
<polygon fill="black" stroke="black" points="1673.29,-799.62 1683.49,-796.77 1673.74,-792.63 1673.29,-799.62"/>
</g>
<!-- CustomAttributeArgument&#45;&gt;NameString -->
<g id="0" class="edge">
<title>CustomAttributeArgument:f1&#45;&gt;NameString:f0</title>
<path fill="none" stroke="red" d="M1937,-770.87C1987.14,-770.87 1959.86,-856.87 2010,-856.87 2010,-856.87 2010,-856.87 2545,-856.87 2773.96,-856.87 2820.31,-936.02 3044,-984.87 3205.06,-1020.04 3244.15,-1050.87 3409,-1050.87 3409,-1050.87 3409,-1050.87 4399,-1050.87 4487.02,-1050.87 4402.66,-879.38 4475.19,-863.97"/>
<polygon fill="red" stroke="red" points="4475.38,-867.47 4484.99,-863.01 4474.7,-860.5 4475.38,-867.47"/>
</g>
<!-- CustomAttributeArgument&#45;&gt;TypeDefinition -->
<g id="0" class="edge">
<title>CustomAttributeArgument:f3&#45;&gt;TypeDefinition:f0</title>
<path fill="none" stroke="blue" d="M1937,-718.87C1945.5,-718.87 2041.54,-645.09 2073.98,-624.91"/>
<polygon fill="blue" stroke="blue" points="2075.29,-628.17 2082.65,-620.55 2072.14,-621.92 2075.29,-628.17"/>
</g>
</g>
</svg>
